{
.appVersion = "1352";
DisplayStrings = (
"/f_f/space/f_f_i/space/f_f_l/space/fi/space/fl \012ff/space ffi/space ffl/space fi/space fl",
"a/abrevedotbelow"
);
classes = (
{
automatic = 1;

glyphs = (
{
color = 1;
glyphname = A;
lastChange = "2021-11-14 10:14:53 +0000";
layers = (
{
anchors = (
{
name = bottom;
position = "{257, 0}";
},
{
name = ogonek;
position = "{511, 0}";
},
{
name = top;
position = "{355, 697}";
}
);
layerId = "F91D9E91-C1BC-4259-B0D8-112C0CBA2B8E";
paths = (
{
closed = 1;
nodes = (
"24 0 LINE",
"353 675 LINE",
"490 0 LINE",
"513 0 LINE",
"367 697 LINE",
"341 697 LINE",
"1 0 LINE"
);
},
{
closed = 1;
nodes = (
"454 208 LINE",
"450 227 LINE",
"129 227 LINE",
"118 208 LINE"
);
}
);
width = 584;
},
{
anchors = (
{
name = bottom;
position = "{315, 0}";
},
{
name = ogonek;
position = "{641, 0}";
},
{
name = top;
position = "{413, 697}";
}
);
layerId = "957254E3-B7AD-4837-9092-D4428001DE8E";
paths = (
{
closed = 1;
nodes = (
"140 0 LINE",
"383 463 LINE",
"492 0 LINE",
"660 0 LINE",
"469 697 LINE",
"354 697 LINE",
"-34 0 LINE"
);
},
{
closed = 1;
nodes = (
"472 118 LINE",
"440 258 LINE",
"259 258 LINE",
"191 118 LINE"
);
}
);
width = 698;
},
{
anchors = (
{
name = bottom;
position = "{284, 0}";
},
{
name = ogonek;
position = "{573, 0}";
},
{
name = top;
position = "{382, 697}";
}
);
layerId = m003;
paths = (
{
closed = 1;
nodes = (
"80 0 LINE",
"365 571 LINE",
"489 0 LINE",
"583 0 LINE",
"416 697 LINE",
"345 697 LINE",
"-18 0 LINE"
);
},
{
closed = 1;
nodes = (
"461 164 LINE",
"443 243 LINE",
"191 243 LINE",
"152 164 LINE"
);
}
);
width = 637;
}
);
leftKerningGroup = A;
note = A;
rightKerningGroup = A;
unicode = 0041;
},
{
color = 1;
glyphname = AE;
lastChange = "2021-11-14 10:14:53 +0000";
layers = (
{
anchors = (
{
name = bottom;
position = "{386, 0}";
},
{
name = top;
position = "{484, 697}";
}
);
layerId = "F91D9E91-C1BC-4259-B0D8-112C0CBA2B8E";
paths = (
{
closed = 1;
nodes = (
"24 0 LINE",
"354 678 LINE",
"438 678 LINE",
"342 0 LINE",
"765 0 LINE",
"769 19 LINE",
"367 19 LINE",
"412 341 LINE",
"760 341 LINE",
"763 361 LINE",
"415 361 LINE",
"459 678 LINE",
"861 678 LINE",
"863 697 LINE",
"341 697 LINE",
"1 0 LINE"
);
},
{
closed = 1;
nodes = (
"380 208 LINE",
"383 228 LINE",
"129 228 LINE",
"119 208 LINE"
);
}
);
width = 844;
},
{
anchors = (
{
name = bottom;
position = "{447, 0}";
},
{
name = top;
position = "{545, 697}";
}
);
layerId = "957254E3-B7AD-4837-9092-D4428001DE8E";
paths = (
{
closed = 1;
nodes = (
"140 0 LINE",
"430 559 LINE",
"457 559 LINE",
"378 0 LINE",
"868 0 LINE",
"888 140 LINE",
"556 140 LINE",
"575 278 LINE",
"868 278 LINE",
"888 418 LINE",
"595 418 LINE",
"615 557 LINE",
"947 557 LINE",
"966 697 LINE",
"353 697 LINE",
"-34 0 LINE"
);
},
{
closed = 1;
nodes = (
"432 118 LINE",
"452 262 LINE",
"244 262 LINE",
"175 118 LINE"
);
}
);
width = 949;
},
{
anchors = (
{
name = bottom;
position = "{414, 0}";
},
{
name = top;
position = "{512, 697}";
}
);
layerId = m003;
paths = (
{
closed = 1;
nodes = (
"80 0 LINE",
"390 620 LINE",
"445 620 LINE",
"358 0 LINE",
"814 0 LINE",
"825 79 LINE",
"458 79 LINE",
"490 310 LINE",
"811 310 LINE",
"822 390 LINE",
"502 390 LINE",
"534 618 LINE",
"901 618 LINE",
"912 697 LINE",
"345 697 LINE",
"-18 0 LINE"
);
},
{
closed = 1;
nodes = (
"403 164 LINE",
"415 245 LINE",
"184 245 LINE",
"144 164 LINE"
);
}
);
width = 896;
}
);
leftKerningGroup = A;
leftMetricsKey = "=A";
note = AE;
rightKerningGroup = E;
rightMetricsKey = "=E";
unicode = 00C6;
},
{
color = 1;
glyphname = B;
lastChange = "2021-11-14 10:14:53 +0000";
layers = (
{
anchors = (
{
name = bottom;
position = "{248, 0}";
},
{
name = top;
position = "{346, 697}";
}
);
layerId = "F91D9E91-C1BC-4259-B0D8-112C0CBA2B8E";
paths = (
{
closed = 1;
nodes = (
"262 0 LINE SMOOTH",
"415 0 OFFCURVE",
"508 77 OFFCURVE",
"508 222 CURVE SMOOTH",
"508 299 OFFCURVE",
"469 354 OFFCURVE",
"389 366 CURVE",
"475 393 OFFCURVE",
"521 470 OFFCURVE",
"521 554 CURVE SMOOTH",
"521 645 OFFCURVE",
"458 697 OFFCURVE",
"346 697 CURVE SMOOTH",
"160 697 LINE",
"62 0 LINE"
);
},
{
closed = 1;
nodes = (
"133 352 LINE",
"348 352 LINE SMOOTH",
"438 352 OFFCURVE",
"487 304 OFFCURVE",
"487 223 CURVE SMOOTH",
"487 91 OFFCURVE",
"406 19 OFFCURVE",
"262 19 CURVE SMOOTH",
"86 19 LINE"
);
},
{
closed = 1;
nodes = (
"178 678 LINE",
"345 678 LINE SMOOTH",
"445 678 OFFCURVE",
"500 632 OFFCURVE",
"500 554 CURVE SMOOTH",
"500 445 OFFCURVE",
"427 371 OFFCURVE",
"329 371 CURVE SMOOTH",
"135 371 LINE"
);
}
);
width = 584;
},
{
anchors = (
{
name = bottom;
position = "{263, 0}";
},
{
name = top;
position = "{361, 697}";
}
);
layerId = "957254E3-B7AD-4837-9092-D4428001DE8E";
paths = (
{
closed = 1;
nodes = (
"325 0 LINE SMOOTH",
"478 0 OFFCURVE",
"582 91 OFFCURVE",
"582 237 CURVE SMOOTH",
"582 303 OFFCURVE",
"553 350 OFFCURVE",
"498 375 CURVE",
"557 412 OFFCURVE",
"587 471 OFFCURVE",
"587 539 CURVE SMOOTH",
"587 638 OFFCURVE",
"509 697 OFFCURVE",
"378 697 CURVE SMOOTH",
"122 697 LINE",
"24 0 LINE"
);
},
{
closed = 1;
nodes = (
"222 289 LINE",
"353 289 LINE SMOOTH",
"403 289 OFFCURVE",
"427 266 OFFCURVE",
"427 231 CURVE SMOOTH",
"427 175 OFFCURVE",
"391 144 OFFCURVE",
"325 144 CURVE SMOOTH",
"202 144 LINE"
);
},
{
closed = 1;
nodes = (
"259 553 LINE",
"366 553 LINE SMOOTH",
"407 553 OFFCURVE",
"428 534 OFFCURVE",
"428 503 CURVE SMOOTH",
"428 453 OFFCURVE",
"389 429 OFFCURVE",
"341 429 CURVE SMOOTH",
"242 429 LINE"
);
}
);
width = 618;
},
{
anchors = (
{
name = bottom;
position = "{257, 0}";
},
{
name = top;
position = "{355, 697}";
}
);
layerId = m003;
paths = (
{
closed = 1;
nodes = (
"294 0 LINE SMOOTH",
"447 0 OFFCURVE",
"545 84 OFFCURVE",
"545 230 CURVE SMOOTH",
"545 304 OFFCURVE",
"508 352 OFFCURVE",
"443 371 CURVE",
"514 402 OFFCURVE",
"554 467 OFFCURVE",
"554 548 CURVE SMOOTH",
"554 642 OFFCURVE",
"483 697 OFFCURVE",
"363 697 CURVE SMOOTH",
"142 697 LINE",
"44 0 LINE"
);
},
{
closed = 1;
nodes = (
"177 321 LINE",
"351 321 LINE SMOOTH",
"422 321 OFFCURVE",
"459 288 OFFCURVE",
"459 228 CURVE SMOOTH",
"459 136 OFFCURVE",
"398 81 OFFCURVE",
"294 81 CURVE SMOOTH",
"144 81 LINE"
);
},
{
closed = 1;
nodes = (
"219 616 LINE",
"356 616 LINE SMOOTH",
"427 616 OFFCURVE",
"465 586 OFFCURVE",
"465 532 CURVE SMOOTH",
"465 460 OFFCURVE",
"413 400 OFFCURVE",
"335 400 CURVE SMOOTH",
"189 400 LINE"
);
}
);
width = 601;
}
);
leftKerningGroup = H;
leftMetricsKey = H;
note = B;
rightKerningGroup = B;
unicode = 0042;
},
{
color = 1;
glyphname = C;
lastChange = "2021-11-14 10:14:53 +0000";
layers = (
{
anchors = (
{
name = bottom;
position = "{334, 0}";
},
{
name = top;
position = "{432, 697}";
}
);
layerId = "F91D9E91-C1BC-4259-B0D8-112C0CBA2B8E";
paths = (
{
closed = 1;
nodes = (
"466 -6 OFFCURVE",
"573 61 OFFCURVE",
"632 172 CURVE",
"614 180 LINE",
"558 75 OFFCURVE",
"462 14 OFFCURVE",
"340 14 CURVE SMOOTH",
"188 14 OFFCURVE",
"98 115 OFFCURVE",
"98 277 CURVE SMOOTH",
"98 487 OFFCURVE",
"222 683 OFFCURVE",
"436 683 CURVE SMOOTH",
"560 683 OFFCURVE",
"637 618 OFFCURVE",
"662 518 CURVE",
"681 525 LINE",
"655 630 OFFCURVE",
"571 703 OFFCURVE",
"436 703 CURVE SMOOTH",
"210 703 OFFCURVE",
"78 495 OFFCURVE",
"78 278 CURVE SMOOTH",
"78 103 OFFCURVE",
"177 -6 OFFCURVE",
"339 -6 CURVE SMOOTH"
);
}
);
width = 697;
},
{
anchors = (
{
name = bottom;
position = "{322, 0}";
},
{
name = top;
position = "{420, 697}";
}
);
layerId = "957254E3-B7AD-4837-9092-D4428001DE8E";
paths = (
{
closed = 1;
nodes = (
"493 -18 OFFCURVE",
"618 60 OFFCURVE",
"684 194 CURVE",
"542 255 LINE",
"505 180 OFFCURVE",
"445 132 OFFCURVE",
"358 132 CURVE SMOOTH",
"253 132 OFFCURVE",
"196 201 OFFCURVE",
"196 308 CURVE SMOOTH",
"196 432 OFFCURVE",
"273 565 OFFCURVE",
"416 565 CURVE SMOOTH",
"494 565 OFFCURVE",
"556 525 OFFCURVE",
"572 450 CURVE",
"724 495 LINE",
"695 629 OFFCURVE",
"588 715 OFFCURVE",
"431 715 CURVE SMOOTH",
"182 715 OFFCURVE",
"42 494 OFFCURVE",
"42 295 CURVE SMOOTH",
"42 131 OFFCURVE",
"137 -18 OFFCURVE",
"344 -18 CURVE SMOOTH"
);
}
);
width = 714;
},
{
anchors = (
{
name = bottom;
position = "{325, 0}";
},
{
name = top;
position = "{423, 697}";
}
);
layerId = m003;
paths = (
{
closed = 1;
nodes = (
"477 -12 OFFCURVE",
"593 60 OFFCURVE",
"655 182 CURVE",
"576 217 LINE",
"529 127 OFFCURVE",
"446 72 OFFCURVE",
"342 72 CURVE SMOOTH",
"218 72 OFFCURVE",
"146 152 OFFCURVE",
"146 286 CURVE SMOOTH",
"146 458 OFFCURVE",
"246 625 OFFCURVE",
"429 625 CURVE SMOOTH",
"528 625 OFFCURVE",
"594 574 OFFCURVE",
"616 484 CURVE",
"700 510 LINE",
"671 632 OFFCURVE",
"573 709 OFFCURVE",
"431 709 CURVE SMOOTH",
"200 709 OFFCURVE",
"59 504 OFFCURVE",
"59 284 CURVE SMOOTH",
"59 103 OFFCURVE",
"167 -12 OFFCURVE",
"339 -12 CURVE SMOOTH"
);
}
);
width = 703;
}
);
leftKerningGroup = O;
leftMetricsKey = O;
note = C;
rightKerningGroup = C;
unicode = 0043;
},
{
color = 1;
glyphname = D;
lastChange = "2021-11-14 10:14:53 +0000";
layers = (
{
anchors = (
{
name = bottom;
position = "{304, 0}";
},
{
name = center;
position = "{151, 349}";
},
{
name = top;
position = "{402, 697}";
}
);
layerId = "F91D9E91-C1BC-4259-B0D8-112C0CBA2B8E";
paths = (
{
closed = 1;
nodes = (
"239 0 LINE SMOOTH",
"515 0 OFFCURVE",
"642 184 OFFCURVE",
"642 415 CURVE SMOOTH",
"642 595 OFFCURVE",
"534 697 OFFCURVE",
"336 697 CURVE SMOOTH",
"160 697 LINE",
"62 0 LINE"
);
},
{
closed = 1;
nodes = (
"178 678 LINE",
"334 678 LINE SMOOTH",
"520 678 OFFCURVE",
"621 585 OFFCURVE",
"621 415 CURVE SMOOTH",
"621 191 OFFCURVE",
"498 19 OFFCURVE",
"239 19 CURVE SMOOTH",
"86 19 LINE"
);
}
);
width = 692;
},
{
anchors = (
{
name = bottom;
position = "{287, 0}";
},
{
name = center;
position = "{169, 349}";
},
{
name = top;
position = "{385, 697}";
}
);
layerId = "957254E3-B7AD-4837-9092-D4428001DE8E";
paths = (
{
closed = 1;
nodes = (
"237 0 LINE SMOOTH",
"522 0 OFFCURVE",
"653 172 OFFCURVE",
"653 406 CURVE SMOOTH",
"653 592 OFFCURVE",
"536 697 OFFCURVE",
"328 697 CURVE SMOOTH",
"122 697 LINE",
"24 0 LINE"
);
},
{
closed = 1;
nodes = (
"259 553 LINE",
"313 553 LINE SMOOTH",
"428 553 OFFCURVE",
"498 524 OFFCURVE",
"498 409 CURVE SMOOTH",
"498 293 OFFCURVE",
"466 144 OFFCURVE",
"234 144 CURVE SMOOTH",
"202 144 LINE"
);
}
);
width = 668;
},
{
anchors = (
{
name = bottom;
position = "{296, 0}";
},
{
name = center;
position = "{161, 349}";
},
{
name = top;
position = "{394, 697}";
}
);
layerId = m003;
paths = (
{
closed = 1;
nodes = (
"239 0 LINE SMOOTH",
"515 0 OFFCURVE",
"648 174 OFFCURVE",
"648 410 CURVE SMOOTH",
"648 593 OFFCURVE",
"536 697 OFFCURVE",
"333 697 CURVE SMOOTH",
"142 697 LINE",
"44 0 LINE"
);
},
{
closed = 1;
nodes = (
"219 616 LINE",
"325 616 LINE SMOOTH",
"475 616 OFFCURVE",
"561 554 OFFCURVE",
"561 412 CURVE SMOOTH",
"561 256 OFFCURVE",
"493 81 OFFCURVE",
"237 81 CURVE SMOOTH",
"144 81 LINE"
);
}
);
width = 682;
}
);
leftKerningGroup = H;
leftMetricsKey = H;
note = D;
rightKerningGroup = D;
unicode = 0044;
},
{
color = 1;
glyphname = E;
lastChange = "2021-11-14 10:14:53 +0000";
layers = (
{
anchors = (
{
name = bottom;
position = "{287, 0}";
},
{
name = ogonek;
position = "{511, 0}";
},
{
name = top;
position = "{385, 697}";
},
{
name = topleft;
position = "{55, 697}";
}
);
layerId = "F91D9E91-C1BC-4259-B0D8-112C0CBA2B8E";
paths = (
{
closed = 1;
nodes = (
"511 0 LINE",
"515 19 LINE",
"86 19 LINE",
"131 342 LINE",
"508 342 LINE",
"510 361 LINE",
"133 361 LINE",
"178 678 LINE",
"607 678 LINE",
"609 697 LINE",
"160 697 LINE",
"62 0 LINE"
);
}
);
width = 590;
},
{
anchors = (
{
name = bottom;
position = "{258, 0}";
},
{
name = ogonek;
position = "{492, 0}";
},
{
name = top;
position = "{356, 697}";
},
{
name = topleft;
position = "{65, 697}";
}
);
layerId = "957254E3-B7AD-4837-9092-D4428001DE8E";
paths = (
{
closed = 1;
nodes = (
"492 0 LINE",
"512 140 LINE",
"201 140 LINE",
"222 289 LINE",
"518 289 LINE",
"538 429 LINE",
"242 429 LINE",
"260 557 LINE",
"571 557 LINE",
"590 697 LINE",
"122 697 LINE",
"24 0 LINE"
);
}
);
width = 573;
},
{
anchors = (
{
name = bottom;
position = "{274, 0}";
},
{
name = ogonek;
position = "{503, 0}";
},
{
name = top;
position = "{372, 697}";
},
{
name = topleft;
position = "{61, 697}";
}
);
layerId = m003;
paths = (
{
closed = 1;
nodes = (
"503 0 LINE",
"514 79 LINE",
"143 79 LINE",
"177 316 LINE",
"513 316 LINE",
"524 395 LINE",
"188 395 LINE",
"219 618 LINE",
"590 618 LINE",
"601 697 LINE",
"142 697 LINE",
"44 0 LINE"
);
}
);
width = 585;
}
);
leftKerningGroup = H;
leftMetricsKey = "=I";
note = E;
rightKerningGroup = E;
unicode = 0045;
},
{
color = 1;
glyphname = F;
lastChange = "2021-11-14 10:14:53 +0000";
layers = (
{
anchors = (
{
name = bottom;
position = "{281, 0}";
},
{
name = top;
position = "{379, 697}";
}
);
layerId = "F91D9E91-C1BC-4259-B0D8-112C0CBA2B8E";
paths = (
{
closed = 1;
nodes = (
"82 0 LINE",
"131 342 LINE",
"497 342 LINE",
"499 361 LINE",
"133 361 LINE",
"178 678 LINE",
"598 678 LINE",
"601 697 LINE",
"160 697 LINE",
"62 0 LINE"
);
}
);
width = 573;
},
{
anchors = (
{
name = bottom;
position = "{247, 0}";
},
{
name = top;
position = "{345, 697}";
}
);
layerId = "957254E3-B7AD-4837-9092-D4428001DE8E";
paths = (
{
closed = 1;
nodes = (
"181 0 LINE",
"222 289 LINE",
"496 289 LINE",
"516 429 LINE",
"242 429 LINE",
"260 557 LINE",
"575 557 LINE",
"594 697 LINE",
"122 697 LINE",
"24 0 LINE"
);
}
);
width = 553;
},
{
anchors = (
{
name = bottom;
position = "{265, 0}";
},
{
name = top;
position = "{363, 697}";
}
);
layerId = m003;
paths = (
{
closed = 1;
nodes = (
"132 0 LINE",
"177 316 LINE",
"497 316 LINE",
"508 395 LINE",
"188 395 LINE",
"219 618 LINE",
"588 618 LINE",
"599 697 LINE",
"142 697 LINE",
"44 0 LINE"
);
}
);
width = 565;
}
);
leftKerningGroup = H;
leftMetricsKey = "=I";
note = F;
rightKerningGroup = F;
unicode = 0046;
},
{
color = 1;
glyphname = G;
lastChange = "2021-11-14 10:14:53 +0000";
layers = (
{
anchors = (
{
name = bottom;
position = "{339, 0}";
},
{
name = top;
position = "{437, 697}";
}
);
layerId = "F91D9E91-C1BC-4259-B0D8-112C0CBA2B8E";
paths = (
{
closed = 1;
nodes = (
"443 -6 OFFCURVE",
"562 41 OFFCURVE",
"614 172 CURVE",
"612 173 LINE",
"588 0 LINE",
"607 0 LINE",
"656 344 LINE",
"454 344 LINE",
"451 325 LINE",
"640 325 LINE",
"635 337 LINE",
"626 269 LINE SMOOTH",
"599 69 OFFCURVE",
"454 14 OFFCURVE",
"340 14 CURVE SMOOTH",
"188 14 OFFCURVE",
"98 115 OFFCURVE",
"98 277 CURVE SMOOTH",
"98 486 OFFCURVE",
"222 683 OFFCURVE",
"436 683 CURVE SMOOTH",
"560 683 OFFCURVE",
"637 618 OFFCURVE",
"662 518 CURVE",
"681 525 LINE",
"655 630 OFFCURVE",
"571 703 OFFCURVE",
"436 703 CURVE SMOOTH",
"210 703 OFFCURVE",
"78 494 OFFCURVE",
"78 278 CURVE SMOOTH",
"78 103 OFFCURVE",
"177 -6 OFFCURVE",
"338 -6 CURVE SMOOTH"
);
}
);
width = 723;
},
{
anchors = (
{
name = bottom;
position = "{338, 0}";
},
{
name = top;
position = "{436, 697}";
}
);
layerId = "957254E3-B7AD-4837-9092-D4428001DE8E";
paths = (
{
closed = 1;
nodes = (
"418 -18 OFFCURVE",
"487 13 OFFCURVE",
"534 72 CURVE",
"508 98 LINE",
"518 0 LINE",
"655 0 LINE",
"709 387 LINE",
"402 387 LINE",
"383 247 LINE",
"584 247 LINE",
"565 357 LINE",
"561 328 LINE SMOOTH",
"540 174 OFFCURVE",
"433 132 OFFCURVE",
"348 132 CURVE SMOOTH",
"254 132 OFFCURVE",
"198 191 OFFCURVE",
"198 293 CURVE SMOOTH",
"198 433 OFFCURVE",
"281 565 OFFCURVE",
"425 565 CURVE SMOOTH",
"503 565 OFFCURVE",
"555 525 OFFCURVE",
"571 450 CURVE",
"723 495 LINE",
"694 629 OFFCURVE",
"587 715 OFFCURVE",
"430 715 CURVE SMOOTH",
"192 715 OFFCURVE",
"42 513 OFFCURVE",
"42 290 CURVE SMOOTH",
"42 103 OFFCURVE",
"158 -18 OFFCURVE",
"333 -18 CURVE SMOOTH"
);
}
);
width = 738;
},
{
anchors = (
{
name = bottom;
position = "{336, 0}";
},
{
name = top;
position = "{434, 697}";
}
);
layerId = m003;
paths = (
{
closed = 1;
nodes = (
"428 -12 OFFCURVE",
"522 26 OFFCURVE",
"572 123 CURVE",
"558 136 LINE",
"552 0 LINE",
"629 0 LINE",
"680 366 LINE",
"426 366 LINE",
"415 287 LINE",
"610 287 LINE",
"599 347 LINE",
"592 298 LINE SMOOTH",
"569 128 OFFCURVE",
"450 72 OFFCURVE",
"342 72 CURVE SMOOTH",
"218 72 OFFCURVE",
"146 152 OFFCURVE",
"146 286 CURVE SMOOTH",
"146 458 OFFCURVE",
"246 625 OFFCURVE",
"429 625 CURVE SMOOTH",
"528 625 OFFCURVE",
"594 574 OFFCURVE",
"616 484 CURVE",
"700 510 LINE",
"671 632 OFFCURVE",
"573 709 OFFCURVE",
"431 709 CURVE SMOOTH",
"201 709 OFFCURVE",
"59 505 OFFCURVE",
"59 283 CURVE SMOOTH",
"59 103 OFFCURVE",
"165 -12 OFFCURVE",
"334 -12 CURVE SMOOTH"
);
}
);
width = 730;
}
);
leftKerningGroup = O;
leftMetricsKey = O;
note = G;
rightKerningGroup = G;
unicode = 0047;
},
{
color = 1;
glyphname = H;
lastChange = "2021-11-14 10:14:53 +0000";
layers = (
{
anchors = (
{
name = bottom;
position = "{291, 0}";
},
{
name = center;
position = "{367, 539}";
},
{
name = top;
position = "{389, 697}";
},
{
name = topleft;
position = "{56, 697}";
}
);
layerId = "F91D9E91-C1BC-4259-B0D8-112C0CBA2B8E";
paths = (
{
closed = 1;
nodes = (
"82 0 LINE",
"131 343 LINE",
"547 343 LINE",
"498 0 LINE",
"519 0 LINE",
"617 697 LINE",
"596 697 LINE",
"550 363 LINE",
"134 363 LINE",
"180 697 LINE",
"160 697 LINE",
"62 0 LINE"
);
}
);
width = 651;
},
{
anchors = (
{
name = bottom;
position = "{318, 0}";
},
{
name = center;
position = "{396, 557}";
},
{
name = top;
position = "{415, 697}";
},
{
name = topleft;
position = "{65, 697}";
}
);
layerId = "957254E3-B7AD-4837-9092-D4428001DE8E";
paths = (
{
closed = 1;
nodes = (
"181 0 LINE",
"222 288 LINE",
"493 288 LINE",
"452 0 LINE",
"609 0 LINE",
"707 697 LINE",
"550 697 LINE",
"513 432 LINE",
"242 432 LINE",
"279 697 LINE",
"122 697 LINE",
"24 0 LINE"
);
}
);
width = 703;
},
{
anchors = (
{
name = bottom;
position = "{304, 0}";
},
{
name = center;
position = "{381, 545}";
},
{
name = top;
position = "{402, 697}";
},
{
name = topleft;
position = "{73, 697}";
}
);
layerId = m003;
paths = (
{
closed = 1;
nodes = (
"132 0 LINE",
"177 316 LINE",
"521 316 LINE",
"476 0 LINE",
"564 0 LINE",
"662 697 LINE",
"574 697 LINE",
"532 398 LINE",
"188 398 LINE",
"230 697 LINE",
"142 697 LINE",
"44 0 LINE"
);
}
);
width = 678;
}
);
leftKerningGroup = H;
note = H;
rightKerningGroup = H;
unicode = 0048;
},
{
color = 1;
glyphname = I;
lastChange = "2021-11-14 10:14:53 +0000";
layers = (
{
anchors = (
{
name = bottom;
position = "{72, 0}";
},
{
name = ogonek;
position = "{82, 0}";
},
{
name = top;
position = "{170, 697}";
},
{
name = topleft;
position = "{55, 697}";
}
);
layerId = "F91D9E91-C1BC-4259-B0D8-112C0CBA2B8E";
paths = (
{
closed = 1;
nodes = (
"82 0 LINE",
"180 697 LINE",
"160 697 LINE",
"62 0 LINE"
);
}
);
width = 214;
},
{
anchors = (
{
name = bottom;
position = "{103, 0}";
},
{
name = ogonek;
position = "{181, 0}";
},
{
name = top;
position = "{201, 697}";
},
{
name = topleft;
position = "{65, 697}";
}
);
layerId = "957254E3-B7AD-4837-9092-D4428001DE8E";
paths = (
{
closed = 1;
nodes = (
"181 0 LINE",
"279 697 LINE",
"122 697 LINE",
"24 0 LINE"
);
}
);
width = 275;
},
{
anchors = (
{
name = bottom;
position = "{89, 0}";
},
{
name = ogonek;
position = "{132, 0}";
},
{
name = top;
position = "{187, 697}";
},
{
name = topleft;
position = "{61, 697}";
}
);
layerId = m003;
paths = (
{
closed = 1;
nodes = (
"132 0 LINE",
"230 697 LINE",
"142 697 LINE",
"44 0 LINE"
);
}
);
width = 246;
}
);
leftKerningGroup = H;
leftMetricsKey = H;
note = I;
rightKerningGroup = H;
rightMetricsKey = H;
unicode = 0049;
},
{
color = 1;
glyphname = J;
lastChange = "2021-11-14 10:14:53 +0000";
layers = (
{
anchors = (
{
name = bottom;
position = "{244, 0}";
},
{
name = top;
position = "{362, 697}";
}
);
layerId = "F91D9E91-C1BC-4259-B0D8-112C0CBA2B8E";
paths = (
{
closed = 1;
nodes = (
"352 -6 OFFCURVE",
"436 84 OFFCURVE",
"460 255 CURVE SMOOTH",
"522 697 LINE",
"201 697 LINE",
"199 678 LINE",
"499 678 LINE",
"440 257 LINE SMOOTH",
"418 97 OFFCURVE",
"342 14 OFFCURVE",
"220 14 CURVE SMOOTH",
"112 14 OFFCURVE",
"55 77 OFFCURVE",
"53 171 CURVE",
"33 169 LINE",
"35 60 OFFCURVE",
"105 -6 OFFCURVE",
"219 -6 CURVE SMOOTH"
);
}
);
width = 549;
},
{
anchors = (
{
name = bottom;
position = "{255, 0}";
},
{
name = top;
position = "{363, 697}";
}
);
layerId = "957254E3-B7AD-4837-9092-D4428001DE8E";
paths = (
{
closed = 1;
nodes = (
"375 -18 OFFCURVE",
"480 77 OFFCURVE",
"502 234 CURVE SMOOTH",
"567 697 LINE",
"158 697 LINE",
"139 557 LINE",
"390 557 LINE",
"347 251 LINE SMOOTH",
"337 178 OFFCURVE",
"316 127 OFFCURVE",
"248 127 CURVE SMOOTH",
"198 127 OFFCURVE",
"169 147 OFFCURVE",
"169 207 CURVE",
"13 201 LINE",
"13 65 OFFCURVE",
"96 -18 OFFCURVE",
"231 -18 CURVE SMOOTH"
);
}
);
width = 558;
},
{
anchors = (
{
name = bottom;
position = "{249, 0}";
},
{
name = top;
position = "{361, 697}";
}
);
layerId = m003;
paths = (
{
closed = 1;
nodes = (
"363 -12 OFFCURVE",
"457 81 OFFCURVE",
"480 244 CURVE SMOOTH",
"543 697 LINE",
"179 697 LINE",
"168 618 LINE",
"444 618 LINE",
"393 254 LINE SMOOTH",
"377 137 OFFCURVE",
"323 70 OFFCURVE",
"226 70 CURVE SMOOTH",
"145 70 OFFCURVE",
"112 114 OFFCURVE",
"109 188 CURVE",
"22 182 LINE",
"25 61 OFFCURVE",
"102 -12 OFFCURVE",
"224 -12 CURVE SMOOTH"
);
}
);
width = 552;
}
);
leftKerningGroup = J;
note = J;
rightKerningGroup = J;
unicode = 004A;
},
{
color = 1;
glyphname = K;
lastChange = "2021-11-14 10:14:53 +0000";
layers = (
{
anchors = (
{
name = bottom;
position = "{259, 0}";
},
{
name = top;
position = "{357, 697}";
}
);
layerId = "F91D9E91-C1BC-4259-B0D8-112C0CBA2B8E";
paths = (
{
closed = 1;
nodes = (
"614 697 LINE",
"586 697 LINE",
"114 269 LINE",
"110 241 LINE"
);
},
{
closed = 1;
nodes = (
"82 0 LINE",
"180 697 LINE",
"160 697 LINE",
"62 0 LINE"
);
},
{
closed = 1;
nodes = (
"519 0 LINE",
"308 428 LINE",
"291 414 LINE",
"495 0 LINE"
);
}
);
width = 590;
},
{
anchors = (
{
name = bottom;
position = "{306, 0}";
},
{
name = top;
position = "{404, 697}";
}
);
layerId = "957254E3-B7AD-4837-9092-D4428001DE8E";
paths = (
{
closed = 1;
nodes = (
"740 697 LINE",
"526 697 LINE",
"205 400 LINE",
"180 202 LINE"
);
},
{
closed = 1;
nodes = (
"181 0 LINE",
"279 697 LINE",
"122 697 LINE",
"24 0 LINE"
);
},
{
closed = 1;
nodes = (
"641 0 LINE",
"423 444 LINE",
"294 335 LINE",
"458 0 LINE"
);
}
);
width = 682;
},
{
anchors = (
{
name = bottom;
position = "{283, 0}";
},
{
name = top;
position = "{381, 697}";
}
);
layerId = m003;
paths = (
{
closed = 1;
nodes = (
"677 697 LINE",
"557 697 LINE",
"159 334 LINE",
"145 222 LINE"
);
},
{
closed = 1;
nodes = (
"132 0 LINE",
"230 697 LINE",
"142 697 LINE",
"44 0 LINE"
);
},
{
closed = 1;
nodes = (
"579 0 LINE",
"365 436 LINE",
"293 375 LINE",
"478 0 LINE"
);
}
);
width = 634;
}
);
leftKerningGroup = H;
leftMetricsKey = H;
note = K;
rightKerningGroup = K;
unicode = 004B;
},
{
color = 1;
glyphname = L;
lastChange = "2021-11-14 10:14:53 +0000";
layers = (
{
anchors = (
{
name = bottom;
position = "{236, 0}";
},
{
name = center;
position = "{187, 375}";
},
{
name = top;
position = "{170, 697}";
},
{
name = topright;
position = "{424, 493}";
}
);
layerId = "F91D9E91-C1BC-4259-B0D8-112C0CBA2B8E";
paths = (
{
closed = 1;
nodes = (
"419 0 LINE",
"422 19 LINE",
"86 19 LINE",
"180 697 LINE",
"160 697 LINE",
"62 0 LINE"
);
}
);
width = 479;
},
{
anchors = (
{
name = bottom;
position = "{246, 0}";
},
{
name = center;
position = "{167, 323}";
},
{
name = top;
position = "{201, 697}";
},
{
name = topright;
position = "{467, 493}";
}
);
layerId = "957254E3-B7AD-4837-9092-D4428001DE8E";
paths = (
{
closed = 1;
nodes = (
"467 0 LINE",
"487 140 LINE",
"201 140 LINE",
"279 697 LINE",
"122 697 LINE",
"24 0 LINE"
);
}
);
width = 510;
},
{
anchors = (
{
name = bottom;
position = "{212, 0}";
},
{
name = center;
position = "{174, 349}";
},
{
name = top;
position = "{187, 697}";
},
{
name = topright;
position = "{446, 493}";
}
);
layerId = m003;
paths = (
{
closed = 1;
nodes = (
"444 0 LINE",
"455 79 LINE",
"143 79 LINE",
"230 697 LINE",
"142 697 LINE",
"44 0 LINE"
);
}
);
width = 495;
}
);
leftKerningGroup = H;
leftMetricsKey = H;
note = L;
rightKerningGroup = L;
unicode = 004C;
},
{
color = 1;
glyphname = M;
lastChange = "2021-11-14 10:14:53 +0000";
layers = (
{
anchors = (
{
name = bottom;
position = "{369, 0}";
},
{
name = top;
position = "{467, 697}";
}
);
layerId = "F91D9E91-C1BC-4259-B0D8-112C0CBA2B8E";
paths = (
{
closed = 1;
nodes = (
"82 0 LINE",
"178 675 LINE",
"178 675 LINE",
"366 55 LINE",
"387 55 LINE",
"749 675 LINE",
"750 675 LINE",
"655 0 LINE",
"675 0 LINE",
"773 697 LINE",
"740 697 LINE",
"377 72 LINE",
"382 72 LINE",
"193 697 LINE",
"160 697 LINE",
"62 0 LINE"
);
}
);
width = 807;
},
{
anchors = (
{
name = bottom;
position = "{399, 0}";
},
{
name = top;
position = "{497, 697}";
}
);
layerId = "957254E3-B7AD-4837-9092-D4428001DE8E";
paths = (
{
closed = 1;
nodes = (
"181 0 LINE",
"253 513 LINE",
"239 510 LINE",
"333 63 LINE",
"485 63 LINE",
"705 510 LINE",
"689 513 LINE",
"617 0 LINE",
"774 0 LINE",
"872 697 LINE",
"642 697 LINE",
"415 221 LINE",
"443 221 LINE",
"350 697 LINE",
"122 697 LINE",
"24 0 LINE"
);
}
);
width = 868;
},
{
anchors = (
{
name = bottom;
position = "{385, 0}";
},
{
name = top;
position = "{483, 697}";
}
);
layerId = m003;
paths = (
{
closed = 1;
nodes = (
"132 0 LINE",
"216 595 LINE",
"209 594 LINE",
"351 59 LINE",
"437 59 LINE",
"728 594 LINE",
"721 595 LINE",
"637 0 LINE",
"725 0 LINE",
"823 697 LINE",
"693 697 LINE",
"397 146 LINE",
"413 146 LINE",
"271 697 LINE",
"142 697 LINE",
"44 0 LINE"
);
}
);
width = 839;
}
);
leftKerningGroup = H;
leftMetricsKey = H;
note = M;
rightKerningGroup = H;
rightMetricsKey = H;
unicode = 004D;
},
{
color = 1;
glyphname = N;
lastChange = "2021-11-14 10:14:53 +0000";
layers = (
{
anchors = (
{
name = bottom;
position = "{282, 0}";
},
{
name = top;
position = "{380, 697}";
}
);
layerId = "F91D9E91-C1BC-4259-B0D8-112C0CBA2B8E";
paths = (
{
closed = 1;
nodes = (
"82 0 LINE",
"177 673 LINE",
"177 673 LINE",
"489 0 LINE",
"518 0 LINE",
"616 697 LINE",
"596 697 LINE",
"502 24 LINE",
"502 24 LINE",
"188 697 LINE",
"160 697 LINE",
"62 0 LINE"
);
}
);
width = 650;
},
{
anchors = (
{
name = bottom;
position = "{315, 0}";
},
{
name = top;
position = "{413, 697}";
}
);
layerId = "957254E3-B7AD-4837-9092-D4428001DE8E";
paths = (
{
closed = 1;
nodes = (
"181 0 LINE",
"251 492 LINE",
"212 492 LINE",
"445 0 LINE",
"604 0 LINE",
"702 697 LINE",
"545 697 LINE",
"476 206 LINE",
"516 206 LINE",
"281 697 LINE",
"122 697 LINE",
"24 0 LINE"
);
}
);
width = 698;
},
{
anchors = (
{
name = bottom;
position = "{299, 0}";
},
{
name = top;
position = "{397, 697}";
}
);
layerId = m003;
paths = (
{
closed = 1;
nodes = (
"132 0 LINE",
"214 584 LINE",
"195 584 LINE",
"468 0 LINE",
"562 0 LINE",
"660 697 LINE",
"572 697 LINE",
"490 114 LINE",
"509 114 LINE",
"234 697 LINE",
"142 697 LINE",
"44 0 LINE"
);
}
);
width = 676;
}
);
leftKerningGroup = H;
leftMetricsKey = H;
note = N;
rightKerningGroup = H;
rightMetricsKey = H;
unicode = 004E;
},
{
color = 1;
glyphname = Eng;
lastChange = "2021-11-14 10:14:53 +0000";
layers = (
{
layerId = "F91D9E91-C1BC-4259-B0D8-112C0CBA2B8E";
paths = (
{
closed = 1;
nodes = (
"460 -160 OFFCURVE",
"504 -105 OFFCURVE",
"515 -26 CURVE SMOOTH",
"616 697 LINE",
"596 697 LINE",
"502 25 LINE",
"502 25 LINE",
"188 697 LINE",
"160 697 LINE",
"62 0 LINE",
"82 0 LINE",
"177 672 LINE",
"177 672 LINE",
"491 0 LINE SMOOTH",
"494 -6 OFFCURVE",
"495 -14 OFFCURVE",
"495 -22 CURVE SMOOTH",
"495 -25 OFFCURVE",
"495 -31 OFFCURVE",
"494 -35 CURVE SMOOTH",
"486 -91 OFFCURVE",
"450 -143 OFFCURVE",
"372 -143 CURVE SMOOTH",
"354 -143 OFFCURVE",
"328 -137 OFFCURVE",
"309 -129 CURVE",
"304 -145 LINE",
"325 -154 OFFCURVE",
"355 -160 OFFCURVE",
"375 -160 CURVE SMOOTH"
);
}
);
width = 650;
},
{
layerId = "957254E3-B7AD-4837-9092-D4428001DE8E";
paths = (
{
closed = 1;
nodes = (
"536 -189 OFFCURVE",
"591 -93 OFFCURVE",
"605 4 CURVE SMOOTH",
"702 697 LINE",
"545 697 LINE",
"479 225 LINE",
"513 225 LINE",
"281 697 LINE",
"122 697 LINE",
"24 0 LINE",
"181 0 LINE",
"248 475 LINE",
"214 475 LINE",
"447 4 LINE SMOOTH",
"450 -4 OFFCURVE",
"451 -11 OFFCURVE",
"451 -19 CURVE SMOOTH",
"451 -24 OFFCURVE",
"450 -31 OFFCURVE",
"450 -30 CURVE SMOOTH",
"446 -61 OFFCURVE",
"411 -87 OFFCURVE",
"355 -87 CURVE SMOOTH",
"350 -87 OFFCURVE",
"341 -87 OFFCURVE",
"332 -87 CURVE",
"326 -186 LINE",
"354 -189 OFFCURVE",
"374 -189 OFFCURVE",
"400 -189 CURVE SMOOTH"
);
}
);
width = 698;
},
{
layerId = m003;
paths = (
{
closed = 1;
nodes = (
"490 -175 OFFCURVE",
"546 -109 OFFCURVE",
"560 -11 CURVE SMOOTH",
"660 697 LINE",
"572 697 LINE",
"491 124 LINE",
"508 124 LINE",
"234 697 LINE",
"142 697 LINE",
"44 0 LINE",
"132 0 LINE",
"213 575 LINE",
"196 575 LINE",
"470 2 LINE SMOOTH",
"473 -5 OFFCURVE",
"474 -11 OFFCURVE",
"474 -21 CURVE SMOOTH",
"474 -25 OFFCURVE",
"473 -28 OFFCURVE",
"473 -32 CURVE SMOOTH",
"467 -76 OFFCURVE",
"431 -116 OFFCURVE",
"365 -116 CURVE SMOOTH",
"354 -116 OFFCURVE",
"335 -113 OFFCURVE",
"320 -109 CURVE",
"315 -165 LINE",
"340 -171 OFFCURVE",
"364 -175 OFFCURVE",
"388 -175 CURVE SMOOTH"
);
}
);
width = 676;
}
);
leftKerningGroup = H;
leftMetricsKey = "=I";
note = Eng;
rightKerningGroup = H;
rightMetricsKey = "=I";
unicode = 014A;
},
{
glyphname = Nhookleft;
lastChange = "2021-11-14 10:14:53 +0000";
layers = (
{
anchors = (
{
name = bottom;
position = "{283, 0}";
},
{
name = top;
position = "{381, 697}";
}
);
layerId = "F91D9E91-C1BC-4259-B0D8-112C0CBA2B8E";
paths = (
{
closed = 1;
nodes = (
"83 0 LINE",
"177 672 LINE",
"177 672 LINE",
"490 0 LINE",
"519 0 LINE",
"617 697 LINE",
"596 697 LINE",
"502 25 LINE",
"502 25 LINE",
"188 697 LINE",
"160 697 LINE",
"62 0 LINE"
);
},
{
closed = 1;
nodes = (
"21 -160 OFFCURVE",
"67 -109 OFFCURVE",
"79 -28 CURVE SMOOTH",
"83 0 LINE",
"62 0 LINE",
"62 -2 OFFCURVE",
"62 -6 OFFCURVE",
"58 -33 CURVE SMOOTH",
"50 -90 OFFCURVE",
"15 -143 OFFCURVE",
"-64 -143 CURVE",
"-65 -160 LINE"
);
}
);
width = 651;
},
{
anchors = (
{
name = bottom;
position = "{314, 0}";
},
{
name = top;
position = "{412, 697}";
}
);
layerId = "957254E3-B7AD-4837-9092-D4428001DE8E";
paths = (
{
closed = 1;
nodes = (
"181 0 LINE",
"248 475 LINE",
"214 475 LINE",
"445 0 LINE",
"604 0 LINE",
"702 697 LINE",
"545 697 LINE",
"479 225 LINE",
"513 225 LINE",
"281 697 LINE",
"122 697 LINE",
"24 0 LINE"
);
},
{
closed = 1;
nodes = (
"99 -189 OFFCURVE",
"166 -111 OFFCURVE",
"177 -30 CURVE SMOOTH",
"181 0 LINE",
"25 4 LINE",
"23 -10 OFFCURVE",
"23 -13 OFFCURVE",
"21 -23 CURVE SMOOTH",
"17 -50 OFFCURVE",
"-9 -87 OFFCURVE",
"-60 -87 CURVE",
"-66 -189 LINE"
);
}
);
width = 698;
},
{
anchors = (
{
name = bottom;
position = "{299, 0}";
},
{
name = top;
position = "{397, 697}";
}
);
layerId = m003;
paths = (
{
closed = 1;
nodes = (
"132 0 LINE",
"213 575 LINE",
"196 575 LINE",
"468 0 LINE",
"562 0 LINE",
"660 697 LINE",
"572 697 LINE",
"491 124 LINE",
"508 124 LINE",
"234 697 LINE",
"142 697 LINE",
"44 0 LINE"
);
},
{
closed = 1;
nodes = (
"57 -175 OFFCURVE",
"116 -113 OFFCURVE",
"128 -29 CURVE SMOOTH",
"132 0 LINE",
"45 2 LINE",
"43 -9 OFFCURVE",
"40 -27 OFFCURVE",
"40 -29 CURVE SMOOTH",
"35 -70 OFFCURVE",
"3 -116 OFFCURVE",
"-61 -116 CURVE",
"-65 -175 LINE"
);
}
);
width = 676;
}
);
leftKerningGroup = H;
leftMetricsKey = "=I@200";
rightKerningGroup = H;
rightMetricsKey = "=I";
unicode = 019D;
},
{
color = 1;
glyphname = O;
lastChange = "2021-11-14 10:14:53 +0000";
layers = (
{
anchors = (
{
name = bottom;
position = "{340, 0}";
},
{
name = center;
position = "{389, 349}";
},
{
name = ogonek;
position = "{400, 0}";
},
{
name = top;
position = "{438, 697}";
},
{
name = topleft;
position = "{69, 697}";
},
{
name = topright;
position = "{683, 697}";
}
);
layerId = "F91D9E91-C1BC-4259-B0D8-112C0CBA2B8E";
paths = (
{
closed = 1;
nodes = (
"568 -6 OFFCURVE",
"699 200 OFFCURVE",
"699 419 CURVE SMOOTH",
"699 592 OFFCURVE",
"601 703 OFFCURVE",
"436 703 CURVE SMOOTH",
"210 703 OFFCURVE",
"77 490 OFFCURVE",
"77 277 CURVE SMOOTH",
"77 116 OFFCURVE",
"169 -6 OFFCURVE",
"339 -6 CURVE SMOOTH"
);
},
{
closed = 1;
nodes = (
"175 14 OFFCURVE",
"97 133 OFFCURVE",
"97 281 CURVE SMOOTH",
"97 475 OFFCURVE",
"220 683 OFFCURVE",
"436 683 CURVE SMOOTH",
"589 683 OFFCURVE",
"679 581 OFFCURVE",
"679 422 CURVE SMOOTH",
"679 213 OFFCURVE",
"559 14 OFFCURVE",
"340 14 CURVE SMOOTH"
);
}
);
width = 748;
},
{
anchors = (
{
name = bottom;
position = "{339, 0}";
},
{
name = center;
position = "{388, 349}";
},
{
name = ogonek;
position = "{426, 0}";
},
{
name = top;
position = "{436, 697}";
},
{
name = topleft;
position = "{86, 697}";
},
{
name = topright;
position = "{639, 697}";
}
);
background = {
paths = (
{
closed = 1;
nodes = (
"493 -18 OFFCURVE",
"618 60 OFFCURVE",
"684 194 CURVE",
"542 255 LINE",
"505 180 OFFCURVE",
"445 132 OFFCURVE",
"358 132 CURVE SMOOTH",
"253 132 OFFCURVE",
"196 201 OFFCURVE",
"196 308 CURVE SMOOTH",
"196 432 OFFCURVE",
"273 565 OFFCURVE",
"416 565 CURVE SMOOTH",
"494 565 OFFCURVE",
"556 525 OFFCURVE",
"572 450 CURVE",
"724 495 LINE",
"695 629 OFFCURVE",
"588 715 OFFCURVE",
"431 715 CURVE SMOOTH",
"182 715 OFFCURVE",
"42 494 OFFCURVE",
"42 295 CURVE SMOOTH",
"42 131 OFFCURVE",
"137 -18 OFFCURVE",
"344 -18 CURVE SMOOTH"
);
}
);
};
layerId = "957254E3-B7AD-4837-9092-D4428001DE8E";
paths = (
{
closed = 1;
nodes = (
"581 -18 OFFCURVE",
"733 183 OFFCURVE",
"733 402 CURVE SMOOTH",
"733 595 OFFCURVE",
"616 715 OFFCURVE",
"432 715 CURVE SMOOTH",
"193 715 OFFCURVE",
"42 513 OFFCURVE",
"42 294 CURVE SMOOTH",
"42 101 OFFCURVE",
"159 -18 OFFCURVE",
"343 -18 CURVE SMOOTH"
);
},
{
closed = 1;
nodes = (
"254 132 OFFCURVE",
"198 200 OFFCURVE",
"198 308 CURVE SMOOTH",
"198 437 OFFCURVE",
"278 565 OFFCURVE",
"418 565 CURVE SMOOTH",
"521 565 OFFCURVE",
"575 495 OFFCURVE",
"575 387 CURVE SMOOTH",
"575 252 OFFCURVE",
"492 132 OFFCURVE",
"356 132 CURVE SMOOTH"
);
}
);
width = 748;
},
{
anchors = (
{
name = bottom;
position = "{338, 0}";
},
{
name = center;
position = "{387, 349}";
},
{
name = ogonek;
position = "{413, 0}";
},
{
name = top;
position = "{436, 697}";
},
{
name = topleft;
position = "{73, 697}";
},
{
name = topright;
position = "{655, 697}";
}
);
guideLines = (
{
position = "{1717, 1394}";
}
);
layerId = m003;
paths = (
{
closed = 1;
nodes = (
"574 -12 OFFCURVE",
"715 192 OFFCURVE",
"715 413 CURVE SMOOTH",
"715 594 OFFCURVE",
"607 709 OFFCURVE",
"432 709 CURVE SMOOTH",
"198 709 OFFCURVE",
"59 501 OFFCURVE",
"59 284 CURVE SMOOTH",
"59 104 OFFCURVE",
"166 -12 OFFCURVE",
"340 -12 CURVE SMOOTH"
);
},
{
closed = 1;
nodes = (
"219 72 OFFCURVE",
"147 152 OFFCURVE",
"147 285 CURVE SMOOTH",
"147 457 OFFCURVE",
"246 625 OFFCURVE",
"430 625 CURVE SMOOTH",
"554 625 OFFCURVE",
"627 544 OFFCURVE",
"627 412 CURVE SMOOTH",
"627 237 OFFCURVE",
"526 72 OFFCURVE",
"343 72 CURVE SMOOTH"
);
}
);
width = 748;
}
);
leftKerningGroup = O;
note = O;
rightKerningGroup = O;
unicode = 004F;
},
{
color = 1;
glyphname = OE;
lastChange = "2021-11-14 10:14:54 +0000";
layers = (
{
anchors = (
{
name = bottom;
position = "{514, 0}";
},
{
name = top;
position = "{612, 697}";
}
);
layerId = "F91D9E91-C1BC-4259-B0D8-112C0CBA2B8E";
paths = (
{
closed = 1;
nodes = (
"989 0 LINE",
"992 19 LINE",
"563 19 LINE",
"608 342 LINE",
"985 342 LINE",
"987 361 LINE",
"611 361 LINE",
"655 678 LINE",
"1084 678 LINE",
"1087 697 LINE",
"481 697 LINE SMOOTH",
"213 697 OFFCURVE",
"77 507 OFFCURVE",
"77 273 CURVE SMOOTH",
"77 96 OFFCURVE",
"185 0 OFFCURVE",
"385 0 CURVE SMOOTH"
);
},
{
closed = 1;
nodes = (
"198 19 OFFCURVE",
"97 107 OFFCURVE",
"97 273 CURVE SMOOTH",
"97 496 OFFCURVE",
"225 678 OFFCURVE",
"479 678 CURVE SMOOTH",
"635 678 LINE",
"543 19 LINE",
"387 19 LINE SMOOTH"
);
}
);
width = 1067;
},
{
anchors = (
{
name = bottom;
position = "{415, 0}";
},
{
name = top;
position = "{513, 697}";
}
);
layerId = "957254E3-B7AD-4837-9092-D4428001DE8E";
paths = (
{
closed = 1;
nodes = (
"886 0 LINE",
"906 140 LINE",
"595 140 LINE",
"615 289 LINE",
"911 289 LINE",
"931 429 LINE",
"635 429 LINE",
"653 557 LINE",
"964 557 LINE",
"984 697 LINE",
"459 697 LINE SMOOTH",
"192 697 OFFCURVE",
"42 527 OFFCURVE",
"42 282 CURVE SMOOTH",
"42 99 OFFCURVE",
"158 0 OFFCURVE",
"370 0 CURVE SMOOTH"
);
},
{
closed = 1;
nodes = (
"273 144 OFFCURVE",
"200 170 OFFCURVE",
"200 287 CURVE SMOOTH",
"200 413 OFFCURVE",
"242 553 OFFCURVE",
"450 553 CURVE SMOOTH",
"496 553 LINE",
"438 144 LINE",
"398 144 LINE SMOOTH"
);
}
);
width = 967;
},
{
anchors = (
{
name = bottom;
position = "{596, 0}";
},
{
name = top;
position = "{694, 697}";
}
);
layerId = m003;
paths = (
{
closed = 1;
nodes = (
"937 0 LINE",
"948 79 LINE",
"577 79 LINE",
"611 316 LINE",
"947 316 LINE",
"958 395 LINE",
"622 395 LINE",
"653 618 LINE",
"1024 618 LINE",
"1035 697 LINE",
"469 697 LINE SMOOTH",
"203 697 OFFCURVE",
"59 519 OFFCURVE",
"59 277 CURVE SMOOTH",
"59 98 OFFCURVE",
"171 0 OFFCURVE",
"377 0 CURVE SMOOTH"
);
},
{
closed = 1;
nodes = (
"235 81 OFFCURVE",
"147 137 OFFCURVE",
"147 279 CURVE SMOOTH",
"147 445 OFFCURVE",
"226 616 OFFCURVE",
"464 616 CURVE SMOOTH",
"565 616 LINE",
"490 81 LINE",
"392 81 LINE SMOOTH"
);
}
);
width = 1019;
}
);
leftKerningGroup = O;
leftMetricsKey = O;
note = OE;
rightKerningGroup = E;
rightMetricsKey = E;
unicode = 0152;
},
{
color = 1;
glyphname = P;
lastChange = "2021-11-14 10:14:53 +0000";
layers = (
{
anchors = (
{
name = bottom;
position = "{229, 0}";
},
{
name = top;
position = "{327, 697}";
}
);
layerId = "F91D9E91-C1BC-4259-B0D8-112C0CBA2B8E";
paths = (
{
closed = 1;
nodes = (
"82 0 LINE",
"127 318 LINE",
"278 318 LINE SMOOTH",
"428 318 OFFCURVE",
"530 402 OFFCURVE",
"530 537 CURVE SMOOTH",
"530 639 OFFCURVE",
"457 697 OFFCURVE",
"330 697 CURVE SMOOTH",
"160 697 LINE",
"62 0 LINE"
);
},
{
closed = 1;
nodes = (
"178 678 LINE",
"327 678 LINE SMOOTH",
"444 678 OFFCURVE",
"510 627 OFFCURVE",
"510 538 CURVE SMOOTH",
"510 412 OFFCURVE",
"417 337 OFFCURVE",
"279 337 CURVE SMOOTH",
"130 337 LINE"
);
}
);
width = 542;
},
{
anchors = (
{
name = bottom;
position = "{233, 0}";
},
{
name = top;
position = "{331, 697}";
}
);
layerId = "957254E3-B7AD-4837-9092-D4428001DE8E";
paths = (
{
closed = 1;
nodes = (
"180 0 LINE",
"220 280 LINE",
"313 280 LINE SMOOTH",
"485 280 OFFCURVE",
"582 367 OFFCURVE",
"582 526 CURVE SMOOTH",
"582 640 OFFCURVE",
"497 697 OFFCURVE",
"353 697 CURVE SMOOTH",
"122 697 LINE",
"24 0 LINE"
);
},
{
closed = 1;
nodes = (
"259 557 LINE",
"336 557 LINE SMOOTH",
"388 557 OFFCURVE",
"425 545 OFFCURVE",
"425 501 CURVE SMOOTH",
"425 442 OFFCURVE",
"387 420 OFFCURVE",
"308 420 CURVE SMOOTH",
"239 420 LINE"
);
}
);
width = 567;
},
{
anchors = (
{
name = bottom;
position = "{232, 0}";
},
{
name = top;
position = "{330, 697}";
}
);
layerId = m003;
paths = (
{
closed = 1;
nodes = (
"131 0 LINE",
"173 300 LINE",
"296 300 LINE SMOOTH",
"457 300 OFFCURVE",
"557 385 OFFCURVE",
"557 532 CURVE SMOOTH",
"557 639 OFFCURVE",
"483 697 OFFCURVE",
"348 697 CURVE SMOOTH",
"142 697 LINE",
"44 0 LINE"
);
},
{
closed = 1;
nodes = (
"218 618 LINE",
"332 618 LINE SMOOTH",
"422 618 OFFCURVE",
"469 589 OFFCURVE",
"469 525 CURVE SMOOTH",
"469 432 OFFCURVE",
"400 378 OFFCURVE",
"294 378 CURVE SMOOTH",
"184 378 LINE"
);
}
);
width = 554;
}
);
leftKerningGroup = H;
leftMetricsKey = H;
note = P;
rightKerningGroup = P;
unicode = 0050;
},
{
color = 1;
glyphname = Thorn;
lastChange = "2021-11-14 10:14:53 +0000";
layers = (
{
anchors = (
{
name = bottom;
position = "{278, 0}";
},
{
name = top;
position = "{376, 697}";
}
);
layerId = "F91D9E91-C1BC-4259-B0D8-112C0CBA2B8E";
paths = (
{
closed = 1;
nodes = (
"130 0 LINE",
"161 214 LINE",
"311 214 LINE SMOOTH",
"452 214 OFFCURVE",
"544 284 OFFCURVE",
"561 401 CURVE SMOOTH",
"563 413 OFFCURVE",
"563 424 OFFCURVE",
"563 435 CURVE SMOOTH",
"563 535 OFFCURVE",
"491 593 OFFCURVE",
"366 593 CURVE SMOOTH",
"214 593 LINE",
"228 697 LINE",
"209 697 LINE",
"111 0 LINE"
);
},
{
closed = 1;
nodes = (
"211 575 LINE",
"362 575 LINE SMOOTH",
"477 575 OFFCURVE",
"544 524 OFFCURVE",
"544 434 CURVE SMOOTH",
"544 432 OFFCURVE",
"544 416 OFFCURVE",
"542 404 CURVE SMOOTH",
"526 295 OFFCURVE",
"442 233 OFFCURVE",
"313 233 CURVE SMOOTH",
"163 233 LINE"
);
}
);
width = 625;
},
{
anchors = (
{
name = bottom;
position = "{265, 0}";
},
{
name = top;
position = "{363, 697}";
}
);
layerId = "957254E3-B7AD-4837-9092-D4428001DE8E";
paths = (
{
closed = 1;
nodes = (
"206 0 LINE",
"233 191 LINE",
"320 191 LINE SMOOTH",
"476 191 OFFCURVE",
"574 266 OFFCURVE",
"592 395 CURVE SMOOTH",
"594 408 OFFCURVE",
"595 421 OFFCURVE",
"595 433 CURVE SMOOTH",
"595 541 OFFCURVE",
"524 603 OFFCURVE",
"405 603 CURVE SMOOTH",
"291 603 LINE",
"304 697 LINE",
"161 697 LINE",
"63 0 LINE"
);
},
{
closed = 1;
nodes = (
"274 481 LINE",
"361 481 LINE SMOOTH",
"419 481 OFFCURVE",
"452 467 OFFCURVE",
"452 423 CURVE SMOOTH",
"452 418 OFFCURVE",
"452 413 OFFCURVE",
"451 408 CURVE SMOOTH",
"442 344 OFFCURVE",
"394 321 OFFCURVE",
"330 321 CURVE SMOOTH",
"251 321 LINE"
);
}
);
width = 606;
},
{
anchors = (
{
name = bottom;
position = "{278, 0}";
},
{
name = top;
position = "{376, 697}";
}
);
layerId = m003;
paths = (
{
closed = 1;
nodes = (
"175 0 LINE",
"203 203 LINE",
"323 203 LINE SMOOTH",
"469 203 OFFCURVE",
"566 275 OFFCURVE",
"583 397 CURVE SMOOTH",
"585 410 OFFCURVE",
"585 425 OFFCURVE",
"585 433 CURVE SMOOTH",
"585 538 OFFCURVE",
"515 598 OFFCURVE",
"392 598 CURVE SMOOTH",
"259 598 LINE",
"273 697 LINE",
"192 697 LINE",
"94 0 LINE"
);
},
{
closed = 1;
nodes = (
"249 529 LINE",
"368 529 LINE SMOOTH",
"456 529 OFFCURVE",
"505 496 OFFCURVE",
"505 429 CURVE SMOOTH",
"505 422 OFFCURVE",
"504 414 OFFCURVE",
"503 406 CURVE SMOOTH",
"491 320 OFFCURVE",
"425 276 OFFCURVE",
"328 276 CURVE SMOOTH",
"214 276 LINE"
);
}
);
width = 631;
}
);
leftKerningGroup = H;
note = Thorn;
rightKerningGroup = Thorn;
unicode = 00DE;
},
{
color = 1;
glyphname = Q;
lastChange = "2021-11-14 10:14:54 +0000";
layers = (
{
anchors = (
{
name = bottom;
position = "{345, 0}";
},
{
name = top;
position = "{443, 697}";
}
);
layerId = "F91D9E91-C1BC-4259-B0D8-112C0CBA2B8E";
paths = (
{
closed = 1;
nodes = (
"568 -6 OFFCURVE",
"699 199 OFFCURVE",
"699 419 CURVE SMOOTH",
"699 593 OFFCURVE",
"601 703 OFFCURVE",
"436 703 CURVE SMOOTH",
"210 703 OFFCURVE",
"78 494 OFFCURVE",
"78 277 CURVE SMOOTH",
"78 103 OFFCURVE",
"177 -6 OFFCURVE",
"339 -6 CURVE SMOOTH"
);
},
{
closed = 1;
nodes = (
"652 -17 LINE",
"437 229 LINE",
"424 215 LINE",
"637 -30 LINE"
);
},
{
closed = 1;
nodes = (
"188 14 OFFCURVE",
"98 114 OFFCURVE",
"98 276 CURVE SMOOTH",
"98 484 OFFCURVE",
"218 683 OFFCURVE",
"436 683 CURVE SMOOTH",
"589 683 OFFCURVE",
"679 584 OFFCURVE",
"679 422 CURVE SMOOTH",
"679 212 OFFCURVE",
"559 14 OFFCURVE",
"340 14 CURVE SMOOTH"
);
}
);
width = 757;
},
{
anchors = (
{
name = bottom;
position = "{355, 0}";
},
{
name = top;
position = "{453, 697}";
}
);
layerId = "957254E3-B7AD-4837-9092-D4428001DE8E";
paths = (
{
closed = 1;
nodes = (
"581 -18 OFFCURVE",
"733 183 OFFCURVE",
"733 402 CURVE SMOOTH",
"733 595 OFFCURVE",
"616 715 OFFCURVE",
"432 715 CURVE SMOOTH",
"193 715 OFFCURVE",
"42 513 OFFCURVE",
"42 294 CURVE SMOOTH",
"42 101 OFFCURVE",
"159 -18 OFFCURVE",
"343 -18 CURVE SMOOTH"
);
},
{
closed = 1;
nodes = (
"727 24 LINE",
"477 308 LINE",
"369 221 LINE",
"626 -62 LINE"
);
},
{
closed = 1;
nodes = (
"254 132 OFFCURVE",
"198 200 OFFCURVE",
"198 308 CURVE SMOOTH",
"198 437 OFFCURVE",
"278 565 OFFCURVE",
"418 565 CURVE SMOOTH",
"521 565 OFFCURVE",
"575 495 OFFCURVE",
"575 387 CURVE SMOOTH",
"575 252 OFFCURVE",
"492 132 OFFCURVE",
"356 132 CURVE SMOOTH"
);
}
);
width = 790;
},
{
anchors = (
{
name = bottom;
position = "{349, 0}";
},
{
name = top;
position = "{447, 697}";
}
);
layerId = m003;
paths = (
{
closed = 1;
nodes = (
"574 -12 OFFCURVE",
"715 192 OFFCURVE",
"715 413 CURVE SMOOTH",
"715 594 OFFCURVE",
"607 709 OFFCURVE",
"432 709 CURVE SMOOTH",
"197 709 OFFCURVE",
"59 499 OFFCURVE",
"59 285 CURVE SMOOTH",
"59 104 OFFCURVE",
"167 -12 OFFCURVE",
"340 -12 CURVE SMOOTH"
);
},
{
closed = 1;
nodes = (
"689 6 LINE",
"453 273 LINE",
"395 218 LINE",
"631 -46 LINE"
);
},
{
closed = 1;
nodes = (
"219 72 OFFCURVE",
"147 152 OFFCURVE",
"147 285 CURVE SMOOTH",
"147 457 OFFCURVE",
"246 625 OFFCURVE",
"430 625 CURVE SMOOTH",
"554 625 OFFCURVE",
"627 544 OFFCURVE",
"627 412 CURVE SMOOTH",
"627 237 OFFCURVE",
"526 72 OFFCURVE",
"343 72 CURVE SMOOTH"
);
}
);
width = 774;
}
);
leftKerningGroup = O;
leftMetricsKey = O;
note = Q;
rightKerningGroup = Q;
rightMetricsKey = O;
unicode = 0051;
},
{
color = 1;
glyphname = R;
lastChange = "2021-11-14 10:14:53 +0000";
layers = (
{
anchors = (
{
name = bottom;
position = "{246, 0}";
},
{
name = top;
position = "{344, 697}";
}
);
layerId = "F91D9E91-C1BC-4259-B0D8-112C0CBA2B8E";
paths = (
{
closed = 1;
nodes = (
"82 0 LINE",
"129 327 LINE",
"274 327 LINE SMOOTH",
"294 327 OFFCURVE",
"314 328 OFFCURVE",
"334 330 CURVE",
"462 349 OFFCURVE",
"530 429 OFFCURVE",
"530 543 CURVE SMOOTH",
"530 642 OFFCURVE",
"460 697 OFFCURVE",
"330 697 CURVE SMOOTH",
"160 697 LINE",
"62 0 LINE"
);
},
{
closed = 1;
nodes = (
"492 0 LINE",
"346 336 LINE",
"326 333 LINE",
"470 0 LINE"
);
},
{
closed = 1;
nodes = (
"178 678 LINE",
"327 678 LINE SMOOTH",
"445 678 OFFCURVE",
"510 630 OFFCURVE",
"510 541 CURVE SMOOTH",
"510 417 OFFCURVE",
"419 346 OFFCURVE",
"280 346 CURVE SMOOTH",
"131 346 LINE"
);
}
);
width = 577;
},
{
anchors = (
{
name = bottom;
position = "{259, 0}";
},
{
name = top;
position = "{357, 697}";
}
);
background = {
paths = (
{
closed = 1;
nodes = (
"181 0 LINE",
"220 277 LINE",
"238 277 LINE SMOOTH",
"258 277 OFFCURVE",
"296 277 OFFCURVE",
"337 277 CURVE",
"513 286 OFFCURVE",
"582 395 OFFCURVE",
"582 525 CURVE SMOOTH",
"582 630 OFFCURVE",
"519 697 OFFCURVE",
"363 697 CURVE SMOOTH",
"122 697 LINE",
"24 0 LINE"
);
},
{
closed = 1;
nodes = (
"260 557 LINE",
"336 557 LINE SMOOTH",
"381 557 OFFCURVE",
"426 548 OFFCURVE",
"426 500 CURVE SMOOTH",
"426 434 OFFCURVE",
"382 417 OFFCURVE",
"308 417 CURVE SMOOTH",
"240 417 LINE"
);
}
);
};
layerId = "957254E3-B7AD-4837-9092-D4428001DE8E";
paths = (
{
closed = 1;
nodes = (
"180 0 LINE",
"220 280 LINE",
"310 280 LINE SMOOTH",
"328 280 OFFCURVE",
"345 280 OFFCURVE",
"363 280 CURVE",
"510 300 OFFCURVE",
"582 389 OFFCURVE",
"582 526 CURVE SMOOTH",
"582 640 OFFCURVE",
"497 697 OFFCURVE",
"353 697 CURVE SMOOTH",
"122 697 LINE",
"24 0 LINE"
);
},
{
closed = 1;
nodes = (
"576 0 LINE",
"428 313 LINE",
"267 294 LINE",
"402 0 LINE"
);
},
{
closed = 1;
nodes = (
"259 557 LINE",
"336 557 LINE SMOOTH",
"390 557 OFFCURVE",
"425 543 OFFCURVE",
"425 499 CURVE SMOOTH",
"425 440 OFFCURVE",
"387 417 OFFCURVE",
"308 417 CURVE SMOOTH",
"239 417 LINE"
);
}
);
width = 621;
},
{
anchors = (
{
name = bottom;
position = "{253, 0}";
},
{
name = top;
position = "{351, 697}";
}
);
layerId = m003;
paths = (
{
closed = 1;
nodes = (
"132 0 LINE",
"175 303 LINE",
"257 303 LINE SMOOTH",
"283 303 OFFCURVE",
"314 303 OFFCURVE",
"337 303 CURVE",
"495 319 OFFCURVE",
"557 422 OFFCURVE",
"557 533 CURVE SMOOTH",
"557 635 OFFCURVE",
"490 697 OFFCURVE",
"348 697 CURVE SMOOTH",
"142 697 LINE",
"44 0 LINE"
);
},
{
closed = 1;
nodes = (
"534 0 LINE",
"385 325 LINE",
"298 314 LINE",
"437 0 LINE"
);
},
{
closed = 1;
nodes = (
"219 618 LINE",
"332 618 LINE SMOOTH",
"414 618 OFFCURVE",
"469 594 OFFCURVE",
"469 526 CURVE SMOOTH",
"469 434 OFFCURVE",
"400 381 OFFCURVE",
"294 381 CURVE SMOOTH",
"186 381 LINE"
);
}
);
width = 598;
}
);
leftKerningGroup = H;
leftMetricsKey = H;
note = R;
rightKerningGroup = R;
unicode = 0052;
},
{
color = 1;
glyphname = S;
lastChange = "2021-11-14 10:14:53 +0000";
layers = (
{
anchors = (
{
name = bottom;
position = "{240, 0}";
},
{
name = top;
position = "{338, 697}";
}
);
layerId = "F91D9E91-C1BC-4259-B0D8-112C0CBA2B8E";
paths = (
{
closed = 1;
nodes = (
"385 -6 OFFCURVE",
"481 67 OFFCURVE",
"481 187 CURVE SMOOTH",
"481 302 OFFCURVE",
"398 340 OFFCURVE",
"305 377 CURVE SMOOTH",
"225 409 OFFCURVE",
"152 438 OFFCURVE",
"152 531 CURVE SMOOTH",
"152 611 OFFCURVE",
"217 684 OFFCURVE",
"323 684 CURVE SMOOTH",
"408 684 OFFCURVE",
"465 648 OFFCURVE",
"491 588 CURVE",
"509 598 LINE",
"479 666 OFFCURVE",
"413 703 OFFCURVE",
"323 703 CURVE SMOOTH",
"204 703 OFFCURVE",
"132 620 OFFCURVE",
"132 531 CURVE SMOOTH",
"132 432 OFFCURVE",
"206 395 OFFCURVE",
"292 361 CURVE SMOOTH",
"386 324 OFFCURVE",
"461 290 OFFCURVE",
"461 186 CURVE SMOOTH",
"461 82 OFFCURVE",
"377 13 OFFCURVE",
"262 13 CURVE SMOOTH",
"148 13 OFFCURVE",
"69 75 OFFCURVE",
"66 180 CURVE",
"46 176 LINE",
"49 64 OFFCURVE",
"135 -6 OFFCURVE",
"260 -6 CURVE SMOOTH"
);
}
);
width = 549;
},
{
anchors = (
{
name = bottom;
position = "{256, 0}";
},
{
name = top;
position = "{354, 697}";
}
);
layerId = "957254E3-B7AD-4837-9092-D4428001DE8E";
paths = (
{
closed = 1;
nodes = (
"441 -15 OFFCURVE",
"548 77 OFFCURVE",
"548 214 CURVE SMOOTH",
"548 318 OFFCURVE",
"486 375 OFFCURVE",
"371 421 CURVE SMOOTH",
"288 454 OFFCURVE",
"265 476 OFFCURVE",
"265 511 CURVE SMOOTH",
"265 544 OFFCURVE",
"287 576 OFFCURVE",
"341 576 CURVE SMOOTH",
"385 576 OFFCURVE",
"413 554 OFFCURVE",
"432 508 CURVE",
"564 576 LINE",
"534 661 OFFCURVE",
"449 715 OFFCURVE",
"341 715 CURVE SMOOTH",
"204 715 OFFCURVE",
"107 627 OFFCURVE",
"107 503 CURVE SMOOTH",
"107 408 OFFCURVE",
"163 344 OFFCURVE",
"288 293 CURVE SMOOTH",
"364 262 OFFCURVE",
"390 239 OFFCURVE",
"390 200 CURVE SMOOTH",
"390 152 OFFCURVE",
"349 124 OFFCURVE",
"290 124 CURVE SMOOTH",
"224 124 OFFCURVE",
"174 159 OFFCURVE",
"172 239 CURVE",
"16 209 LINE",
"18 76 OFFCURVE",
"129 -15 OFFCURVE",
"285 -15 CURVE SMOOTH"
);
}
);
width = 583;
},
{
anchors = (
{
name = bottom;
position = "{247, 0}";
},
{
name = top;
position = "{345, 697}";
}
);
layerId = m003;
paths = (
{
closed = 1;
nodes = (
"410 -11 OFFCURVE",
"513 75 OFFCURVE",
"513 200 CURVE SMOOTH",
"513 293 OFFCURVE",
"455 351 OFFCURVE",
"339 398 CURVE SMOOTH",
"252 433 OFFCURVE",
"206 455 OFFCURVE",
"206 517 CURVE SMOOTH",
"206 584 OFFCURVE",
"259 631 OFFCURVE",
"334 631 CURVE SMOOTH",
"389 631 OFFCURVE",
"438 603 OFFCURVE",
"461 549 CURVE",
"535 587 LINE",
"503 666 OFFCURVE",
"425 709 OFFCURVE",
"335 709 CURVE SMOOTH",
"202 709 OFFCURVE",
"119 617 OFFCURVE",
"119 513 CURVE SMOOTH",
"119 430 OFFCURVE",
"173 374 OFFCURVE",
"290 327 CURVE SMOOTH",
"369 295 OFFCURVE",
"425 267 OFFCURVE",
"425 195 CURVE SMOOTH",
"425 125 OFFCURVE",
"371 68 OFFCURVE",
"275 68 CURVE SMOOTH",
"188 68 OFFCURVE",
"120 114 OFFCURVE",
"118 209 CURVE",
"30 192 LINE",
"33 70 OFFCURVE",
"129 -11 OFFCURVE",
"267 -11 CURVE SMOOTH"
);
}
);
width = 564;
}
);
leftKerningGroup = S;
note = S;
rightKerningGroup = S;
unicode = 0053;
},
{
color = 1;
glyphname = Germandbls;
lastChange = "2021-11-14 10:14:54 +0000";
layers = (
{
anchors = (
{
name = bottom;
position = "{315, 0}";
},
{
name = top;
position = "{413, 697}";
}
);
layerId = "F91D9E91-C1BC-4259-B0D8-112C0CBA2B8E";
paths = (
{
closed = 1;
nodes = (
"82 0 LINE",
"178 678 LINE",
"670 678 LINE",
"672 697 LINE",
"160 697 LINE",
"62 0 LINE"
);
},
{
closed = 1;
nodes = (
"526 -6 OFFCURVE",
"632 86 OFFCURVE",
"632 207 CURVE SMOOTH",
"632 305 OFFCURVE",
"545 341 OFFCURVE",
"458 376 CURVE SMOOTH",
"377 409 OFFCURVE",
"303 438 OFFCURVE",
"303 517 CURVE SMOOTH",
"303 610 OFFCURVE",
"381 679 OFFCURVE",
"487 680 CURVE",
"476 690 LINE",
"364 688 OFFCURVE",
"282 614 OFFCURVE",
"282 517 CURVE SMOOTH",
"282 429 OFFCURVE",
"359 395 OFFCURVE",
"443 361 CURVE SMOOTH",
"528 327 OFFCURVE",
"611 295 OFFCURVE",
"611 205 CURVE SMOOTH",
"611 112 OFFCURVE",
"528 13 OFFCURVE",
"394 13 CURVE SMOOTH",
"292 13 OFFCURVE",
"220 71 OFFCURVE",
"217 180 CURVE",
"197 176 LINE",
"199 69 OFFCURVE",
"271 -6 OFFCURVE",
"392 -6 CURVE SMOOTH"
);
}
);
width = 698;
},
{
anchors = (
{
name = bottom;
position = "{378, 0}";
},
{
name = top;
position = "{476, 697}";
}
);
layerId = "957254E3-B7AD-4837-9092-D4428001DE8E";
paths = (
{
closed = 1;
nodes = (
"181 0 LINE",
"260 557 LINE",
"804 557 LINE",
"823 697 LINE",
"122 697 LINE",
"24 0 LINE"
);
},
{
closed = 1;
nodes = (
"660 -15 OFFCURVE",
"790 84 OFFCURVE",
"790 230 CURVE SMOOTH",
"790 324 OFFCURVE",
"724 367 OFFCURVE",
"615 420 CURVE SMOOTH",
"539 457 OFFCURVE",
"509 476 OFFCURVE",
"509 516 CURVE SMOOTH",
"509 543 OFFCURVE",
"515 569 OFFCURVE",
"557 585 CURVE",
"392 594 LINE",
"367 567 OFFCURVE",
"352 536 OFFCURVE",
"352 492 CURVE SMOOTH",
"352 399 OFFCURVE",
"408 354 OFFCURVE",
"530 298 CURVE SMOOTH",
"616 259 OFFCURVE",
"633 235 OFFCURVE",
"633 201 CURVE SMOOTH",
"633 153 OFFCURVE",
"586 124 OFFCURVE",
"531 124 CURVE SMOOTH",
"465 124 OFFCURVE",
"413 158 OFFCURVE",
"418 240 CURVE",
"258 209 LINE",
"261 76 OFFCURVE",
"365 -15 OFFCURVE",
"514 -15 CURVE SMOOTH"
);
}
);
width = 823;
},
{
anchors = (
{
name = bottom;
position = "{347, 0}";
},
{
name = top;
position = "{445, 697}";
}
);
layerId = m003;
paths = (
{
closed = 1;
nodes = (
"132 0 LINE",
"219 618 LINE",
"737 618 LINE",
"748 697 LINE",
"142 697 LINE",
"44 0 LINE"
);
},
{
closed = 1;
nodes = (
"593 -11 OFFCURVE",
"710 87 OFFCURVE",
"710 219 CURVE SMOOTH",
"710 314 OFFCURVE",
"637 353 OFFCURVE",
"534 399 CURVE SMOOTH",
"451 436 OFFCURVE",
"405 461 OFFCURVE",
"405 517 CURVE SMOOTH",
"405 578 OFFCURVE",
"450 626 OFFCURVE",
"505 635 CURVE",
"418 641 LINE",
"353 630 OFFCURVE",
"317 563 OFFCURVE",
"317 510 CURVE SMOOTH",
"317 418 OFFCURVE",
"377 377 OFFCURVE",
"487 330 CURVE SMOOTH",
"567 295 OFFCURVE",
"622 269 OFFCURVE",
"622 207 CURVE SMOOTH",
"622 127 OFFCURVE",
"547 68 OFFCURVE",
"457 68 CURVE SMOOTH",
"370 68 OFFCURVE",
"316 117 OFFCURVE",
"316 210 CURVE",
"228 192 LINE",
"230 74 OFFCURVE",
"317 -11 OFFCURVE",
"453 -11 CURVE SMOOTH"
);
}
);
width = 758;
}
);
leftMetricsKey = "=I";
rightKerningGroup = S;
rightMetricsKey = S;
unicode = 1E9E;
},
{
glyphname = Schwa;
lastChange = "2021-11-14 10:14:53 +0000";
layers = (
{
anchors = (
{
name = bottom;
position = "{321, 0}";
},
{
name = top;
position = "{419, 697}";
}
);
layerId = "F91D9E91-C1BC-4259-B0D8-112C0CBA2B8E";
paths = (
{
closed = 1;
nodes = (
"520 -6 OFFCURVE",
"647 124 OFFCURVE",
"679 350 CURVE SMOOTH",
"683 378 OFFCURVE",
"685 413 OFFCURVE",
"685 431 CURVE SMOOTH",
"685 606 OFFCURVE",
"593 703 OFFCURVE",
"421 703 CURVE SMOOTH",
"289 703 OFFCURVE",
"193 645 OFFCURVE",
"129 524 CURVE",
"148 516 LINE",
"207 631 OFFCURVE",
"295 683 OFFCURVE",
"420 683 CURVE SMOOTH",
"580 683 OFFCURVE",
"664 595 OFFCURVE",
"664 433 CURVE SMOOTH",
"664 415 OFFCURVE",
"662 374 OFFCURVE",
"659 353 CURVE SMOOTH",
"630 144 OFFCURVE",
"515 14 OFFCURVE",
"333 14 CURVE SMOOTH",
"180 14 OFFCURVE",
"97 105 OFFCURVE",
"97 268 CURVE SMOOTH",
"97 291 OFFCURVE",
"99 319 OFFCURVE",
"103 351 CURVE",
"83 351 LINE",
"79 321 OFFCURVE",
"77 293 OFFCURVE",
"77 267 CURVE SMOOTH",
"77 93 OFFCURVE",
"166 -6 OFFCURVE",
"331 -6 CURVE SMOOTH"
);
},
{
closed = 1;
nodes = (
"672 333 LINE",
"675 351 LINE",
"94 351 LINE",
"91 333 LINE"
);
}
);
width = 732;
},
{
anchors = (
{
name = bottom;
position = "{344, 0}";
},
{
name = top;
position = "{442, 697}";
}
);
layerId = "957254E3-B7AD-4837-9092-D4428001DE8E";
paths = (
{
closed = 1;
nodes = (
"559 -18 OFFCURVE",
"715 123 OFFCURVE",
"746 339 CURVE SMOOTH",
"749 363 OFFCURVE",
"751 386 OFFCURVE",
"751 408 CURVE SMOOTH",
"751 597 OFFCURVE",
"634 717 OFFCURVE",
"443 717 CURVE SMOOTH",
"291 717 OFFCURVE",
"168 641 OFFCURVE",
"98 509 CURVE",
"237 444 LINE",
"275 523 OFFCURVE",
"349 567 OFFCURVE",
"438 567 CURVE SMOOTH",
"539 567 OFFCURVE",
"595 511 OFFCURVE",
"595 408 CURVE SMOOTH",
"595 392 OFFCURVE",
"593 376 OFFCURVE",
"591 359 CURVE SMOOTH",
"571 215 OFFCURVE",
"482 132 OFFCURVE",
"357 132 CURVE SMOOTH",
"255 132 OFFCURVE",
"198 189 OFFCURVE",
"198 296 CURVE SMOOTH",
"198 312 OFFCURVE",
"199 329 OFFCURVE",
"202 347 CURVE",
"46 355 LINE",
"43 331 OFFCURVE",
"41 309 OFFCURVE",
"41 287 CURVE SMOOTH",
"41 101 OFFCURVE",
"160 -18 OFFCURVE",
"352 -18 CURVE SMOOTH"
);
},
{
closed = 1;
nodes = (
"689 231 LINE",
"706 351 LINE",
"125 351 LINE",
"108 231 LINE"
);
}
);
width = 765;
},
{
anchors = (
{
name = bottom;
position = "{331, 0}";
},
{
name = top;
position = "{429, 697}";
}
);
layerId = m003;
paths = (
{
closed = 1;
nodes = (
"538 -12 OFFCURVE",
"679 124 OFFCURVE",
"710 344 CURVE SMOOTH",
"714 371 OFFCURVE",
"716 399 OFFCURVE",
"716 421 CURVE SMOOTH",
"716 602 OFFCURVE",
"611 710 OFFCURVE",
"431 710 CURVE SMOOTH",
"288 710 OFFCURVE",
"179 643 OFFCURVE",
"113 517 CURVE",
"191 480 LINE",
"241 579 OFFCURVE",
"323 626 OFFCURVE",
"428 626 CURVE SMOOTH",
"559 626 OFFCURVE",
"629 554 OFFCURVE",
"629 421 CURVE SMOOTH",
"629 401 OFFCURVE",
"627 379 OFFCURVE",
"624 356 CURVE SMOOTH",
"599 176 OFFCURVE",
"496 72 OFFCURVE",
"344 72 CURVE SMOOTH",
"216 72 OFFCURVE",
"146 147 OFFCURVE",
"146 283 CURVE SMOOTH",
"146 303 OFFCURVE",
"148 325 OFFCURVE",
"151 349 CURVE",
"64 353 LINE",
"60 327 OFFCURVE",
"58 301 OFFCURVE",
"58 277 CURVE SMOOTH",
"58 97 OFFCURVE",
"163 -12 OFFCURVE",
"341 -12 CURVE SMOOTH"
);
},
{
closed = 1;
nodes = (
"680 283 LINE",
"690 351 LINE",
"109 351 LINE",
"99 283 LINE"
);
}
);
width = 747;
}
);
leftKerningGroup = C;
leftMetricsKey = O;
rightKerningGroup = D;
rightMetricsKey = O;
unicode = 018F;
},
{
color = 1;
glyphname = T;
lastChange = "2021-11-14 10:14:53 +0000";
layers = (
{
anchors = (
{
name = bottom;
position = "{264, 0}";
},
{
name = center;
position = "{313, 349}";
},
{
name = top;
position = "{362, 697}";
}
);
layerId = "F91D9E91-C1BC-4259-B0D8-112C0CBA2B8E";
paths = (
{
closed = 1;
nodes = (
"274 0 LINE",
"370 678 LINE",
"633 678 LINE",
"636 697 LINE",
"88 697 LINE",
"86 678 LINE",
"349 678 LINE",
"254 0 LINE"
);
}
);
width = 599;
},
{
anchors = (
{
name = bottom;
position = "{256, 0}";
},
{
name = center;
position = "{305, 349}";
},
{
name = top;
position = "{354, 697}";
}
);
layerId = "957254E3-B7AD-4837-9092-D4428001DE8E";
paths = (
{
closed = 1;
nodes = (
"336 0 LINE",
"414 557 LINE",
"617 557 LINE",
"637 697 LINE",
"71 697 LINE",
"51 557 LINE",
"255 557 LINE",
"177 0 LINE"
);
}
);
width = 582;
},
{
anchors = (
{
name = bottom;
position = "{258, 0}";
},
{
name = center;
position = "{307, 349}";
},
{
name = top;
position = "{356, 697}";
}
);
layerId = m003;
paths = (
{
closed = 1;
nodes = (
"303 0 LINE",
"390 618 LINE",
"623 618 LINE",
"634 697 LINE",
"78 697 LINE",
"67 618 LINE",
"301 618 LINE",
"214 0 LINE"
);
}
);
width = 587;
}
);
leftKerningGroup = T;
note = T;
rightKerningGroup = T;
unicode = 0054;
},
{
color = 1;
glyphname = U;
lastChange = "2021-11-14 10:14:53 +0000";
layers = (
{
anchors = (
{
name = bottom;
position = "{289, 0}";
},
{
name = ogonek;
position = "{345, 0}";
},
{
name = top;
position = "{387, 697}";
},
{
name = topright;
position = "{592, 697}";
}
);
layerId = "F91D9E91-C1BC-4259-B0D8-112C0CBA2B8E";
paths = (
{
closed = 1;
nodes = (
"432 -6 OFFCURVE",
"536 79 OFFCURVE",
"561 257 CURVE SMOOTH",
"623 697 LINE",
"603 697 LINE",
"541 258 LINE SMOOTH",
"519 101 OFFCURVE",
"430 14 OFFCURVE",
"290 14 CURVE SMOOTH",
"169 14 OFFCURVE",
"107 78 OFFCURVE",
"107 194 CURVE SMOOTH",
"107 212 OFFCURVE",
"108 232 OFFCURVE",
"111 253 CURVE SMOOTH",
"172 697 LINE",
"152 697 LINE",
"90 252 LINE SMOOTH",
"87 231 OFFCURVE",
"86 210 OFFCURVE",
"86 194 CURVE SMOOTH",
"86 65 OFFCURVE",
"156 -6 OFFCURVE",
"289 -6 CURVE SMOOTH"
);
}
);
width = 649;
},
{
anchors = (
{
name = bottom;
position = "{295, 0}";
},
{
name = ogonek;
position = "{390, 0}";
},
{
name = top;
position = "{393, 697}";
},
{
name = topright;
position = "{606, 697}";
}
);
layerId = "957254E3-B7AD-4837-9092-D4428001DE8E";
paths = (
{
closed = 1;
nodes = (
"478 -18 OFFCURVE",
"580 68 OFFCURVE",
"606 253 CURVE SMOOTH",
"668 697 LINE",
"511 697 LINE",
"452 272 LINE SMOOTH",
"439 178 OFFCURVE",
"408 126 OFFCURVE",
"304 126 CURVE SMOOTH",
"230 126 OFFCURVE",
"208 151 OFFCURVE",
"208 207 CURVE SMOOTH",
"208 226 OFFCURVE",
"210 243 OFFCURVE",
"213 266 CURVE SMOOTH",
"273 697 LINE",
"116 697 LINE",
"54 256 LINE SMOOTH",
"51 235 OFFCURVE",
"50 214 OFFCURVE",
"50 197 CURVE SMOOTH",
"50 54 OFFCURVE",
"135 -18 OFFCURVE",
"300 -18 CURVE SMOOTH"
);
}
);
width = 658;
},
{
anchors = (
{
name = bottom;
position = "{293, 0}";
},
{
name = ogonek;
position = "{368, 0}";
},
{
name = top;
position = "{391, 697}";
},
{
name = topright;
position = "{592, 697}";
}
);
layerId = m003;
paths = (
{
closed = 1;
nodes = (
"460 -12 OFFCURVE",
"559 78 OFFCURVE",
"584 255 CURVE SMOOTH",
"646 697 LINE",
"559 697 LINE",
"498 265 LINE SMOOTH",
"480 139 OFFCURVE",
"420 69 OFFCURVE",
"297 69 CURVE SMOOTH",
"198 69 OFFCURVE",
"158 115 OFFCURVE",
"158 203 CURVE SMOOTH",
"158 216 OFFCURVE",
"159 239 OFFCURVE",
"162 259 CURVE SMOOTH",
"223 697 LINE",
"135 697 LINE",
"73 254 LINE SMOOTH",
"70 234 OFFCURVE",
"69 210 OFFCURVE",
"69 196 CURVE SMOOTH",
"69 60 OFFCURVE",
"147 -12 OFFCURVE",
"295 -12 CURVE SMOOTH"
);
}
);
width = 656;
}
);
leftKerningGroup = U;
note = U;
rightKerningGroup = J;
unicode = 0055;
},
{
color = 1;
glyphname = V;
lastChange = "2021-11-14 10:14:53 +0000";
layers = (
{
anchors = (
{
name = bottom;
position = "{284, 0}";
},
{
name = top;
position = "{382, 697}";
}
);
layerId = "F91D9E91-C1BC-4259-B0D8-112C0CBA2B8E";
paths = (
{
closed = 1;
nodes = (
"296 0 LINE",
"667 697 LINE",
"644 697 LINE",
"288 23 LINE",
"288 23 LINE",
"119 697 LINE",
"97 697 LINE",
"273 0 LINE"
);
}
);
width = 638;
},
{
anchors = (
{
name = bottom;
position = "{307, 0}";
},
{
name = top;
position = "{405, 697}";
}
);
layerId = "957254E3-B7AD-4837-9092-D4428001DE8E";
paths = (
{
closed = 1;
nodes = (
"366 0 LINE",
"744 697 LINE",
"567 697 LINE",
"308 193 LINE",
"359 193 LINE",
"238 697 LINE",
"68 697 LINE",
"251 0 LINE"
);
}
);
width = 682;
},
{
anchors = (
{
name = bottom;
position = "{294, 0}";
},
{
name = top;
position = "{392, 697}";
}
);
layerId = m003;
paths = (
{
closed = 1;
nodes = (
"329 0 LINE",
"703 697 LINE",
"605 697 LINE",
"296 107 LINE",
"321 107 LINE",
"176 697 LINE",
"81 697 LINE",
"261 0 LINE"
);
}
);
width = 656;
}
);
leftKerningGroup = V;
note = V;
rightKerningGroup = V;
unicode = 0056;
},
{
color = 1;
glyphname = W;
lastChange = "2021-11-14 10:14:53 +0000";
layers = (
{
anchors = (
{
name = bottom;
position = "{428, 0}";
},
{
name = top;
position = "{526, 697}";
}
);
layerId = "F91D9E91-C1BC-4259-B0D8-112C0CBA2B8E";
paths = (
{
closed = 1;
nodes = (
"226 0 LINE",
"520 638 LINE",
"516 638 LINE",
"629 0 LINE",
"655 0 LINE",
"947 697 LINE",
"925 697 LINE",
"645 26 LINE",
"532 662 LINE",
"509 662 LINE",
"217 26 LINE",
"126 697 LINE",
"104 697 LINE",
"200 0 LINE"
);
}
);
width = 925;
},
{
anchors = (
{
name = bottom;
position = "{462, 0}";
},
{
name = top;
position = "{560, 697}";
}
);
layerId = "957254E3-B7AD-4837-9092-D4428001DE8E";
paths = (
{
closed = 1;
nodes = (
"337 0 LINE",
"542 468 LINE",
"516 468 LINE",
"589 0 LINE",
"740 0 LINE",
"1051 697 LINE",
"885 697 LINE",
"686 242 LINE",
"630 655 LINE",
"476 655 LINE",
"302 242 LINE",
"233 697 LINE",
"71 697 LINE",
"186 0 LINE"
);
}
);
width = 994;
},
{
anchors = (
{
name = bottom;
position = "{444, 0}";
},
{
name = top;
position = "{542, 697}";
}
);
layerId = m003;
paths = (
{
closed = 1;
nodes = (
"280 0 LINE",
"530 554 LINE",
"515 554 LINE",
"608 0 LINE",
"696 0 LINE",
"998 697 LINE",
"905 697 LINE",
"664 133 LINE",
"580 659 LINE",
"492 659 LINE",
"258 133 LINE",
"178 697 LINE",
"87 697 LINE",
"192 0 LINE"
);
}
);
width = 957;
}
);
leftKerningGroup = W;
note = W;
rightKerningGroup = W;
unicode = 0057;
},
{
color = 1;
glyphname = X;
lastChange = "2021-11-14 10:14:53 +0000";
layers = (
{
anchors = (
{
name = bottom;
position = "{266, 0}";
},
{
name = top;
position = "{364, 697}";
}
);
layerId = "F91D9E91-C1BC-4259-B0D8-112C0CBA2B8E";
paths = (
{
closed = 1;
nodes = (
"26 0 LINE",
"314 337 LINE",
"507 0 LINE",
"531 0 LINE",
"329 354 LINE",
"622 697 LINE",
"597 697 LINE",
"317 370 LINE",
"131 697 LINE",
"107 697 LINE",
"302 354 LINE",
"1 0 LINE"
);
}
);
width = 603;
},
{
anchors = (
{
name = bottom;
position = "{310, 0}";
},
{
name = top;
position = "{408, 697}";
}
);
layerId = "957254E3-B7AD-4837-9092-D4428001DE8E";
paths = (
{
closed = 1;
nodes = (
"163 0 LINE",
"345 233 LINE",
"459 0 LINE",
"644 0 LINE",
"466 346 LINE",
"745 697 LINE",
"555 697 LINE",
"371 455 LINE",
"257 697 LINE",
"72 697 LINE",
"249 346 LINE",
"-28 0 LINE"
);
}
);
width = 689;
},
{
anchors = (
{
name = bottom;
position = "{286, 0}";
},
{
name = top;
position = "{384, 697}";
}
);
layerId = m003;
paths = (
{
closed = 1;
nodes = (
"91 0 LINE",
"327 286 LINE",
"482 0 LINE",
"585 0 LINE",
"395 350 LINE",
"681 697 LINE",
"574 697 LINE",
"342 412 LINE",
"191 697 LINE",
"88 697 LINE",
"275 350 LINE",
"-15 0 LINE"
);
}
);
width = 641;
}
);
leftKerningGroup = X;
note = X;
rightKerningGroup = X;
unicode = 0058;
},
{
color = 1;
glyphname = Y;
lastChange = "2021-11-14 10:14:53 +0000";
layers = (
{
anchors = (
{
name = bottom;
position = "{252, 0}";
},
{
name = top;
position = "{350, 697}";
},
{
name = topleft;
position = "{90, 697}";
}
);
layerId = "F91D9E91-C1BC-4259-B0D8-112C0CBA2B8E";
paths = (
{
closed = 1;
nodes = (
"262 0 LINE",
"299 262 LINE",
"608 697 LINE",
"584 697 LINE",
"292 284 LINE",
"115 697 LINE",
"92 697 LINE",
"279 262 LINE",
"242 0 LINE"
);
}
);
width = 574;
},
{
anchors = (
{
name = bottom;
position = "{286, 0}";
},
{
name = top;
position = "{384, 697}";
},
{
name = topleft;
position = "{85, 697}";
}
);
layerId = "957254E3-B7AD-4837-9092-D4428001DE8E";
paths = (
{
closed = 1;
nodes = (
"365 0 LINE",
"405 275 LINE",
"705 697 LINE",
"524 697 LINE",
"340 431 LINE",
"239 697 LINE",
"63 697 LINE",
"248 275 LINE",
"208 0 LINE"
);
}
);
width = 640;
},
{
anchors = (
{
name = bottom;
position = "{267, 0}";
},
{
name = top;
position = "{365, 697}";
},
{
name = topleft;
position = "{85, 697}";
}
);
layerId = m003;
paths = (
{
closed = 1;
nodes = (
"311 0 LINE",
"349 269 LINE",
"654 697 LINE",
"552 697 LINE",
"313 357 LINE",
"174 697 LINE",
"76 697 LINE",
"261 269 LINE",
"223 0 LINE"
);
}
);
width = 602;
}
);
leftKerningGroup = Y;
note = Y;
rightKerningGroup = Y;
unicode = 0059;
},
{
color = 1;
glyphname = Z;
lastChange = "2021-11-14 10:14:53 +0000";
layers = (
{
anchors = (
{
name = bottom;
position = "{238, 0}";
},
{
name = center;
position = "{287, 349}";
},
{
name = top;
position = "{336, 697}";
}
);
layerId = "F91D9E91-C1BC-4259-B0D8-112C0CBA2B8E";
paths = (
{
closed = 1;
nodes = (
"470 0 LINE",
"473 19 LINE",
"26 19 LINE",
"28 19 LINE",
"556 674 LINE",
"558 697 LINE",
"126 697 LINE",
"124 678 LINE",
"538 678 LINE",
"537 681 LINE",
"7 24 LINE",
"4 0 LINE"
);
}
);
width = 543;
},
{
anchors = (
{
name = bottom;
position = "{279, 0}";
},
{
name = center;
position = "{328, 349}";
},
{
name = top;
position = "{377, 697}";
}
);
layerId = "957254E3-B7AD-4837-9092-D4428001DE8E";
paths = (
{
closed = 1;
nodes = (
"560 0 LINE",
"580 140 LINE",
"162 140 LINE",
"181 108 LINE",
"627 569 LINE",
"644 697 LINE",
"111 697 LINE",
"91 557 LINE",
"488 557 LINE",
"469 607 LINE",
"6 127 LINE",
"-10 0 LINE"
);
}
);
width = 621;
},
{
anchors = (
{
name = bottom;
position = "{258, 0}";
},
{
name = center;
position = "{307, 349}";
},
{
name = top;
position = "{356, 697}";
}
);
layerId = m003;
paths = (
{
closed = 1;
nodes = (
"514 0 LINE",
"525 79 LINE",
"93 79 LINE",
"103 63 LINE",
"591 623 LINE",
"600 697 LINE",
"119 697 LINE",
"108 618 LINE",
"512 618 LINE",
"503 645 LINE",
"6 75 LINE",
"-3 0 LINE"
);
}
);
width = 582;
}
);
leftKerningGroup = Z;
note = Z;
rightKerningGroup = Z;
unicode = 005A;
},
{
color = 1;
glyphname = a;
lastChange = "2021-11-14 10:14:53 +0000";
layers = (
{
anchors = (
{
name = bottom;
position = "{269, 0}";
},
{
name = ogonek;
position = "{482, 0}";
},
{
name = top;
position = "{339, 493}";
}
);
layerId = "F91D9E91-C1BC-4259-B0D8-112C0CBA2B8E";
paths = (
{
closed = 1;
nodes = (
"361 -5 OFFCURVE",
"450 63 OFFCURVE",
"491 166 CURVE",
"487 170 LINE",
"462 0 LINE",
"482 0 LINE",
"551 493 LINE",
"532 493 LINE",
"509 324 LINE",
"513 328 LINE",
"501 431 OFFCURVE",
"427 498 OFFCURVE",
"326 498 CURVE SMOOTH",
"179 498 OFFCURVE",
"63 359 OFFCURVE",
"63 206 CURVE SMOOTH",
"63 83 OFFCURVE",
"141 -5 OFFCURVE",
"257 -5 CURVE SMOOTH"
);
},
{
closed = 1;
nodes = (
"153 14 OFFCURVE",
"83 95 OFFCURVE",
"83 206 CURVE SMOOTH",
"83 343 OFFCURVE",
"185 479 OFFCURVE",
"327 479 CURVE SMOOTH",
"431 479 OFFCURVE",
"501 401 OFFCURVE",
"501 289 CURVE SMOOTH",
"501 147 OFFCURVE",
"398 14 OFFCURVE",
"260 14 CURVE SMOOTH"
);
}
);
width = 607;
},
{
anchors = (
{
name = bottom;
position = "{250, 0}";
},
{
name = ogonek;
position = "{481, 0}";
},
{
name = top;
position = "{320, 493}";
}
);
layerId = "957254E3-B7AD-4837-9092-D4428001DE8E";
paths = (
{
closed = 1;
nodes = (
"264 -11 OFFCURVE",
"339 9 OFFCURVE",
"383 148 CURVE",
"347 122 LINE",
"341 0 LINE",
"481 0 LINE",
"550 493 LINE",
"411 493 LINE",
"384 369 LINE",
"407 343 LINE",
"416 460 OFFCURVE",
"347 504 OFFCURVE",
"274 504 CURVE SMOOTH",
"129 504 OFFCURVE",
"32 353 OFFCURVE",
"32 199 CURVE SMOOTH",
"32 75 OFFCURVE",
"93 -11 OFFCURVE",
"208 -11 CURVE SMOOTH"
);
},
{
closed = 1;
nodes = (
"209 127 OFFCURVE",
"183 157 OFFCURVE",
"183 210 CURVE SMOOTH",
"183 283 OFFCURVE",
"222 366 OFFCURVE",
"308 366 CURVE SMOOTH",
"357 366 OFFCURVE",
"383 336 OFFCURVE",
"383 283 CURVE SMOOTH",
"383 212 OFFCURVE",
"344 127 OFFCURVE",
"258 127 CURVE SMOOTH"
);
}
);
width = 570;
},
{
anchors = (
{
name = bottom;
position = "{259, 0}";
},
{
name = ogonek;
position = "{480, 0}";
},
{
name = top;
position = "{329, 493}";
}
);
layerId = m003;
paths = (
{
closed = 1;
nodes = (
"334 -8 OFFCURVE",
"403 39 OFFCURVE",
"441 125 CURVE",
"416 147 LINE",
"396 0 LINE",
"480 0 LINE",
"549 493 LINE",
"466 493 LINE",
"445 346 LINE",
"472 367 LINE",
"461 444 OFFCURVE",
"400 501 OFFCURVE",
"304 501 CURVE SMOOTH",
"152 501 OFFCURVE",
"47 360 OFFCURVE",
"47 205 CURVE SMOOTH",
"47 81 OFFCURVE",
"121 -8 OFFCURVE",
"242 -8 CURVE SMOOTH"
);
},
{
closed = 1;
nodes = (
"179 70 OFFCURVE",
"131 125 OFFCURVE",
"131 209 CURVE SMOOTH",
"131 316 OFFCURVE",
"203 424 OFFCURVE",
"316 424 CURVE SMOOTH",
"393 424 OFFCURVE",
"441 368 OFFCURVE",
"441 285 CURVE SMOOTH",
"441 179 OFFCURVE",
"371 70 OFFCURVE",
"258 70 CURVE SMOOTH"
);
}
);
width = 587;
}
);
leftKerningGroup = c;
leftMetricsKey = "=d";
note = a;
rightKerningGroup = a;
rightMetricsKey = "=d";
unicode = 0061;
},
{
color = 1;
glyphname = ae;
lastChange = "2021-11-14 10:14:53 +0000";
layers = (
{
anchors = (
{
name = bottom;
position = "{415, 0}";
},
{
name = top;
position = "{485, 493}";
}
);
layerId = "F91D9E91-C1BC-4259-B0D8-112C0CBA2B8E";
paths = (
{
closed = 1;
nodes = (
"282 -5 OFFCURVE",
"371 35 OFFCURVE",
"425 183 CURVE",
"428 183 LINE",
"431 62 OFFCURVE",
"500 -5 OFFCURVE",
"607 -5 CURVE SMOOTH",
"686 -5 OFFCURVE",
"734 16 OFFCURVE",
"797 71 CURVE",
"783 85 LINE",
"724 32 OFFCURVE",
"680 14 OFFCURVE",
"608 14 CURVE SMOOTH",
"504 14 OFFCURVE",
"445 79 OFFCURVE",
"445 195 CURVE SMOOTH",
"445 207 OFFCURVE",
"446 228 OFFCURVE",
"449 247 CURVE",
"831 247 LINE",
"837 265 OFFCURVE",
"842 299 OFFCURVE",
"842 322 CURVE SMOOTH",
"842 405 OFFCURVE",
"799 498 OFFCURVE",
"669 498 CURVE SMOOTH",
"576 498 OFFCURVE",
"499 437 OFFCURVE",
"457 337 CURVE",
"463 441 OFFCURVE",
"410 498 OFFCURVE",
"302 498 CURVE SMOOTH",
"224 498 OFFCURVE",
"166 472 OFFCURVE",
"107 404 CURVE",
"121 391 LINE",
"175 455 OFFCURVE",
"229 480 OFFCURVE",
"300 480 CURVE SMOOTH",
"417 480 OFFCURVE",
"453 406 OFFCURVE",
"438 304 CURVE SMOOTH",
"432 264 LINE",
"287 264 LINE SMOOTH",
"149 264 OFFCURVE",
"49 230 OFFCURVE",
"49 115 CURVE SMOOTH",
"49 39 OFFCURVE",
"106 -5 OFFCURVE",
"196 -5 CURVE SMOOTH"
);
},
{
closed = 1;
nodes = (
"117 13 OFFCURVE",
"69 52 OFFCURVE",
"69 115 CURVE SMOOTH",
"69 220 OFFCURVE",
"163 248 OFFCURVE",
"286 248 CURVE SMOOTH",
"439 248 LINE",
"432 256 LINE",
"429 240 LINE",
"387 69 OFFCURVE",
"289 13 OFFCURVE",
"198 13 CURVE SMOOTH"
);
},
{
closed = 1;
nodes = (
"821 264 LINE",
"451 264 LINE",
"474 391 OFFCURVE",
"561 480 OFFCURVE",
"667 480 CURVE SMOOTH",
"785 480 OFFCURVE",
"823 398 OFFCURVE",
"823 324 CURVE SMOOTH",
"823 299 OFFCURVE",
"821 283 OFFCURVE",
"815 260 CURVE"
);
}
);
width = 900;
},
{
anchors = (
{
name = bottom;
position = "{398, 0}";
},
{
name = top;
position = "{468, 493}";
}
);
layerId = "957254E3-B7AD-4837-9092-D4428001DE8E";
paths = (
{
closed = 1;
nodes = (
"276 -11 OFFCURVE",
"336 2 OFFCURVE",
"399 66 CURVE",
"411 66 LINE",
"447 15 OFFCURVE",
"505 -11 OFFCURVE",
"577 -11 CURVE SMOOTH",
"659 -11 OFFCURVE",
"731 18 OFFCURVE",
"791 76 CURVE",
"684 163 LINE",
"654 138 OFFCURVE",
"617 125 OFFCURVE",
"581 125 CURVE SMOOTH",
"536 125 OFFCURVE",
"512 139 OFFCURVE",
"502 162 CURVE SMOOTH",
"499 170 OFFCURVE",
"497 180 OFFCURVE",
"497 190 CURVE",
"822 190 LINE",
"830 223 OFFCURVE",
"835 250 OFFCURVE",
"835 288 CURVE SMOOTH",
"835 416 OFFCURVE",
"765 504 OFFCURVE",
"626 504 CURVE SMOOTH",
"571 504 OFFCURVE",
"505 485 OFFCURVE",
"467 449 CURVE",
"431 490 OFFCURVE",
"378 504 OFFCURVE",
"318 504 CURVE SMOOTH",
"227 504 OFFCURVE",
"147 481 OFFCURVE",
"67 414 CURVE",
"169 317 LINE",
"212 360 OFFCURVE",
"263 373 OFFCURVE",
"299 373 CURVE SMOOTH",
"339 373 OFFCURVE",
"363 356 OFFCURVE",
"363 318 CURVE SMOOTH",
"363 299 LINE",
"238 299 LINE SMOOTH",
"110 299 OFFCURVE",
"21 249 OFFCURVE",
"21 135 CURVE SMOOTH",
"21 40 OFFCURVE",
"110 -11 OFFCURVE",
"208 -11 CURVE SMOOTH"
);
},
{
closed = 1;
nodes = (
"196 107 OFFCURVE",
"175 129 OFFCURVE",
"175 149 CURVE SMOOTH",
"175 172 OFFCURVE",
"191 191 OFFCURVE",
"234 191 CURVE SMOOTH",
"362 191 LINE",
"353 218 LINE",
"348 186 LINE",
"342 146 OFFCURVE",
"301 107 OFFCURVE",
"243 107 CURVE SMOOTH"
);
},
{
closed = 1;
nodes = (
"718 301 LINE",
"512 301 LINE",
"522 333 OFFCURVE",
"556 379 OFFCURVE",
"627 379 CURVE SMOOTH",
"671 379 OFFCURVE",
"700 351 OFFCURVE",
"700 318 CURVE SMOOTH",
"700 304 OFFCURVE",
"698 297 OFFCURVE",
"694 286 CURVE"
);
}
);
width = 866;
},
{
anchors = (
{
name = bottom;
position = "{401, 0}";
},
{
name = top;
position = "{471, 493}";
}
);
background = {
paths = (
{
closed = 1;
nodes = (
"282 -8 OFFCURVE",
"344 29 OFFCURVE",
"396 122 CURVE",
"406 122 LINE",
"423 42 OFFCURVE",
"483 -8 OFFCURVE",
"577 -8 CURVE SMOOTH",
"657 -8 OFFCURVE",
"712 8 OFFCURVE",
"783 74 CURVE",
"727 130 LINE",
"684 89 OFFCURVE",
"641 70 OFFCURVE",
"580 70 CURVE SMOOTH",
"503 70 OFFCURVE",
"466 115 OFFCURVE",
"466 193 CURVE SMOOTH",
"466 201 OFFCURVE",
"466 209 OFFCURVE",
"467 218 CURVE",
"813 218 LINE",
"821 248 OFFCURVE",
"826 283 OFFCURVE",
"826 314 CURVE SMOOTH",
"826 415 OFFCURVE",
"776 498 OFFCURVE",
"639 498 CURVE SMOOTH",
"568 498 OFFCURVE",
"509 462 OFFCURVE",
"467 401 CURVE",
"455 463 OFFCURVE",
"400 501 OFFCURVE",
"310 501 CURVE SMOOTH",
"228 501 OFFCURVE",
"159 479 OFFCURVE",
"87 409 CURVE",
"145 354 LINE",
"192 407 OFFCURVE",
"244 428 OFFCURVE",
"300 428 CURVE SMOOTH",
"376 428 OFFCURVE",
"415 389 OFFCURVE",
"402 311 CURVE SMOOTH",
"398 287 LINE",
"277 287 LINE SMOOTH",
"221 287 OFFCURVE",
"35 289 OFFCURVE",
"35 124 CURVE SMOOTH",
"35 46 OFFCURVE",
"93 -8 OFFCURVE",
"197 -8 CURVE SMOOTH"
);
},
{
closed = 1;
nodes = (
"151 65 OFFCURVE",
"121 89 OFFCURVE",
"121 127 CURVE SMOOTH",
"121 185 OFFCURVE",
"169 226 OFFCURVE",
"279 226 CURVE SMOOTH",
"390 226 LINE",
"389 220 LINE",
"366 116 OFFCURVE",
"292 65 OFFCURVE",
"208 65 CURVE SMOOTH"
);
},
{
closed = 1;
nodes = (
"489 357 OFFCURVE",
"546 428 OFFCURVE",
"638 428 CURVE SMOOTH",
"722 428 OFFCURVE",
"749 366 OFFCURVE",
"749 302 CURVE SMOOTH",
"749 289 OFFCURVE",
"747 273 OFFCURVE",
"741 251 CURVE",
"787 286 LINE",
"475 281 LINE"
);
}
);
};
layerId = m003;
paths = (
{
closed = 1;
nodes = (
"281 -8 OFFCURVE",
"351 29 OFFCURVE",
"403 122 CURVE",
"413 122 LINE",
"433 36 OFFCURVE",
"482 -8 OFFCURVE",
"586 -8 CURVE SMOOTH",
"665 -8 OFFCURVE",
"722 17 OFFCURVE",
"783 74 CURVE",
"727 130 LINE",
"684 89 OFFCURVE",
"640 70 OFFCURVE",
"584 70 CURVE SMOOTH",
"497 70 OFFCURVE",
"466 115 OFFCURVE",
"466 205 CURVE SMOOTH",
"466 209 OFFCURVE",
"466 207 OFFCURVE",
"467 218 CURVE",
"813 218 LINE",
"821 248 OFFCURVE",
"826 283 OFFCURVE",
"826 314 CURVE SMOOTH",
"826 415 OFFCURVE",
"773 498 OFFCURVE",
"646 498 CURVE SMOOTH",
"567 498 OFFCURVE",
"513 466 OFFCURVE",
"467 401 CURVE",
"454 464 OFFCURVE",
"402 501 OFFCURVE",
"305 501 CURVE SMOOTH",
"230 501 OFFCURVE",
"159 479 OFFCURVE",
"87 409 CURVE",
"145 354 LINE",
"192 407 OFFCURVE",
"244 428 OFFCURVE",
"300 428 CURVE SMOOTH",
"376 428 OFFCURVE",
"415 389 OFFCURVE",
"402 311 CURVE SMOOTH",
"398 287 LINE",
"277 287 LINE SMOOTH",
"115 287 OFFCURVE",
"35 235 OFFCURVE",
"35 134 CURVE SMOOTH",
"35 41 OFFCURVE",
"104 -8 OFFCURVE",
"199 -8 CURVE SMOOTH"
);
},
{
closed = 1;
nodes = (
"158 65 OFFCURVE",
"121 88 OFFCURVE",
"121 137 CURVE SMOOTH",
"121 195 OFFCURVE",
"171 226 OFFCURVE",
"279 226 CURVE SMOOTH",
"430 226 LINE",
"397 265 LINE",
"389 220 LINE",
"371 114 OFFCURVE",
"289 65 OFFCURVE",
"211 65 CURVE SMOOTH"
);
},
{
closed = 1;
nodes = (
"759 286 LINE",
"475 281 LINE",
"489 357 OFFCURVE",
"546 428 OFFCURVE",
"638 428 CURVE SMOOTH",
"718 428 OFFCURVE",
"749 370 OFFCURVE",
"749 308 CURVE SMOOTH",
"749 297 OFFCURVE",
"748 286 OFFCURVE",
"746 275 CURVE"
);
}
);
width = 870;
}
);
leftKerningGroup = a;
leftMetricsKey = "=a";
note = ae;
rightKerningGroup = e;
rightMetricsKey = "=e";
unicode = 00E6;
},
{
color = 1;
glyphname = b;
lastChange = "2021-11-14 10:14:53 +0000";
layers = (
{
anchors = (
{
name = bottom;
position = "{261, 0}";
},
{
name = center;
position = "{188, 608}";
},
{
name = top;
position = "{163, 697}";
},
{
name = topleft;
position = "{17, 493}";
}
);
layerId = "F91D9E91-C1BC-4259-B0D8-112C0CBA2B8E";
paths = (
{
closed = 1;
nodes = (
"430 -5 OFFCURVE",
"544 138 OFFCURVE",
"544 288 CURVE SMOOTH",
"544 411 OFFCURVE",
"465 498 OFFCURVE",
"350 498 CURVE SMOOTH",
"246 498 OFFCURVE",
"156 428 OFFCURVE",
"118 329 CURVE",
"121 324 LINE",
"173 697 LINE",
"153 697 LINE",
"55 0 LINE",
"75 0 LINE",
"99 170 LINE",
"95 166 LINE",
"106 64 OFFCURVE",
"178 -5 OFFCURVE",
"281 -5 CURVE SMOOTH"
);
},
{
closed = 1;
nodes = (
"176 14 OFFCURVE",
"106 94 OFFCURVE",
"106 206 CURVE SMOOTH",
"106 345 OFFCURVE",
"208 479 OFFCURVE",
"347 479 CURVE SMOOTH",
"453 479 OFFCURVE",
"524 399 OFFCURVE",
"524 287 CURVE SMOOTH",
"524 149 OFFCURVE",
"419 14 OFFCURVE",
"280 14 CURVE SMOOTH"
);
}
);
width = 606;
},
{
anchors = (
{
name = bottom;
position = "{240, 0}";
},
{
name = center;
position = "{202, 589}";
},
{
name = top;
position = "{192, 697}";
},
{
name = topleft;
position = "{-48, 493}";
}
);
layerId = "957254E3-B7AD-4837-9092-D4428001DE8E";
paths = (
{
closed = 1;
nodes = (
"458 -11 OFFCURVE",
"538 146 OFFCURVE",
"538 296 CURVE SMOOTH",
"538 430 OFFCURVE",
"463 504 OFFCURVE",
"362 504 CURVE SMOOTH",
"297 504 OFFCURVE",
"224 468 OFFCURVE",
"191 351 CURVE",
"222 369 LINE",
"267 697 LINE",
"117 697 LINE",
"19 0 LINE",
"159 0 LINE",
"185 122 LINE",
"160 156 LINE",
"167 17 OFFCURVE",
"242 -11 OFFCURVE",
"306 -11 CURVE SMOOTH"
);
},
{
closed = 1;
nodes = (
"218 127 OFFCURVE",
"188 162 OFFCURVE",
"188 223 CURVE SMOOTH",
"188 311 OFFCURVE",
"234 366 OFFCURVE",
"303 366 CURVE SMOOTH",
"356 366 OFFCURVE",
"386 332 OFFCURVE",
"386 271 CURVE SMOOTH",
"386 181 OFFCURVE",
"340 127 OFFCURVE",
"271 127 CURVE SMOOTH"
);
}
);
width = 570;
},
{
anchors = (
{
name = bottom;
position = "{259, 0}";
},
{
name = center;
position = "{200, 608}";
},
{
name = top;
position = "{177, 697}";
},
{
name = topleft;
position = "{-15, 493}";
}
);
layerId = m003;
paths = (
{
closed = 1;
nodes = (
"440 -8 OFFCURVE",
"541 143 OFFCURVE",
"541 290 CURVE SMOOTH",
"541 420 OFFCURVE",
"458 501 OFFCURVE",
"345 501 CURVE SMOOTH",
"253 501 OFFCURVE",
"181 448 OFFCURVE",
"149 371 CURVE",
"171 346 LINE",
"219 697 LINE",
"135 697 LINE",
"37 0 LINE",
"121 0 LINE",
"141 147 LINE",
"113 130 LINE",
"127 44 OFFCURVE",
"187 -8 OFFCURVE",
"283 -8 CURVE SMOOTH"
);
},
{
closed = 1;
nodes = (
"194 70 OFFCURVE",
"146 126 OFFCURVE",
"146 209 CURVE SMOOTH",
"146 317 OFFCURVE",
"217 424 OFFCURVE",
"330 424 CURVE SMOOTH",
"407 424 OFFCURVE",
"456 368 OFFCURVE",
"456 284 CURVE SMOOTH",
"456 177 OFFCURVE",
"383 70 OFFCURVE",
"271 70 CURVE SMOOTH"
);
}
);
width = 587;
}
);
leftKerningGroup = b;
note = b;
rightKerningGroup = b;
unicode = 0062;
},
{
color = 1;
glyphname = c;
lastChange = "2021-11-14 10:14:53 +0000";
layers = (
{
anchors = (
{
name = bottom;
position = "{252, 0}";
},
{
name = top;
position = "{310, 493}";
}
);
layerId = "F91D9E91-C1BC-4259-B0D8-112C0CBA2B8E";
paths = (
{
closed = 1;
nodes = (
"326 -5 OFFCURVE",
"398 39 OFFCURVE",
"439 121 CURVE",
"421 129 LINE",
"385 56 OFFCURVE",
"321 13 OFFCURVE",
"242 13 CURVE SMOOTH",
"134 13 OFFCURVE",
"84 94 OFFCURVE",
"84 197 CURVE SMOOTH",
"84 329 OFFCURVE",
"162 480 OFFCURVE",
"309 480 CURVE SMOOTH",
"387 480 OFFCURVE",
"439 438 OFFCURVE",
"454 365 CURVE",
"474 371 LINE",
"456 453 OFFCURVE",
"396 498 OFFCURVE",
"310 498 CURVE SMOOTH",
"156 498 OFFCURVE",
"64 344 OFFCURVE",
"64 197 CURVE SMOOTH",
"64 76 OFFCURVE",
"131 -5 OFFCURVE",
"241 -5 CURVE SMOOTH"
);
}
);
width = 514;
},
{
anchors = (
{
name = bottom;
position = "{255, 0}";
},
{
name = top;
position = "{296, 493}";
}
);
layerId = "957254E3-B7AD-4837-9092-D4428001DE8E";
paths = (
{
closed = 1;
nodes = (
"351 -11 OFFCURVE",
"434 34 OFFCURVE",
"485 135 CURVE",
"360 195 LINE",
"342 152 OFFCURVE",
"317 120 OFFCURVE",
"263 120 CURVE SMOOTH",
"207 120 OFFCURVE",
"179 162 OFFCURVE",
"179 210 CURVE SMOOTH",
"179 285 OFFCURVE",
"221 373 OFFCURVE",
"305 373 CURVE SMOOTH",
"351 373 OFFCURVE",
"370 347 OFFCURVE",
"378 306 CURVE",
"513 350 LINE",
"490 451 OFFCURVE",
"416 504 OFFCURVE",
"308 504 CURVE SMOOTH",
"136 504 OFFCURVE",
"30 363 OFFCURVE",
"30 211 CURVE SMOOTH",
"30 94 OFFCURVE",
"98 -11 OFFCURVE",
"261 -11 CURVE SMOOTH"
);
}
);
width = 526;
},
{
anchors = (
{
name = bottom;
position = "{252, 0}";
},
{
name = top;
position = "{302, 493}";
}
);
layerId = m003;
paths = (
{
closed = 1;
nodes = (
"336 -8 OFFCURVE",
"414 35 OFFCURVE",
"461 128 CURVE",
"389 162 LINE",
"362 105 OFFCURVE",
"314 66 OFFCURVE",
"246 66 CURVE SMOOTH",
"163 66 OFFCURVE",
"129 129 OFFCURVE",
"129 205 CURVE SMOOTH",
"129 308 OFFCURVE",
"192 428 OFFCURVE",
"307 428 CURVE SMOOTH",
"369 428 OFFCURVE",
"404 392 OFFCURVE",
"415 336 CURVE",
"492 360 LINE",
"471 453 OFFCURVE",
"403 501 OFFCURVE",
"308 501 CURVE SMOOTH",
"147 501 OFFCURVE",
"46 357 OFFCURVE",
"46 206 CURVE SMOOTH",
"46 86 OFFCURVE",
"113 -8 OFFCURVE",
"245 -8 CURVE SMOOTH"
);
}
);
width = 518;
}
);
leftKerningGroup = c;
note = c;
rightKerningGroup = c;
unicode = 0063;
},
{
color = 1;
glyphname = d;
lastChange = "2021-11-14 10:14:53 +0000";
layers = (
{
anchors = (
{
name = bottom;
position = "{276, 0}";
},
{
name = center;
position = "{521, 608}";
},
{
name = top;
position = "{570, 697}";
},
{
name = topright;
position = "{660, 493}";
}
);
layerId = "F91D9E91-C1BC-4259-B0D8-112C0CBA2B8E";
paths = (
{
closed = 1;
nodes = (
"361 -5 OFFCURVE",
"450 63 OFFCURVE",
"491 166 CURVE",
"487 170 LINE",
"462 0 LINE",
"482 0 LINE",
"580 697 LINE",
"560 697 LINE",
"509 324 LINE",
"513 328 LINE",
"501 431 OFFCURVE",
"427 498 OFFCURVE",
"326 498 CURVE SMOOTH",
"179 498 OFFCURVE",
"63 359 OFFCURVE",
"63 206 CURVE SMOOTH",
"63 83 OFFCURVE",
"141 -5 OFFCURVE",
"257 -5 CURVE SMOOTH"
);
},
{
closed = 1;
nodes = (
"153 14 OFFCURVE",
"83 95 OFFCURVE",
"83 206 CURVE SMOOTH",
"83 343 OFFCURVE",
"185 479 OFFCURVE",
"327 479 CURVE SMOOTH",
"431 479 OFFCURVE",
"501 401 OFFCURVE",
"501 289 CURVE SMOOTH",
"501 147 OFFCURVE",
"398 14 OFFCURVE",
"260 14 CURVE SMOOTH"
);
}
);
width = 607;
},
{
anchors = (
{
name = bottom;
position = "{260, 0}";
},
{
name = center;
position = "{464, 589}";
},
{
name = top;
position = "{504, 697}";
},
{
name = topright;
position = "{688, 493}";
}
);
layerId = "957254E3-B7AD-4837-9092-D4428001DE8E";
paths = (
{
closed = 1;
nodes = (
"264 -11 OFFCURVE",
"339 9 OFFCURVE",
"383 148 CURVE",
"347 122 LINE",
"341 0 LINE",
"481 0 LINE",
"579 697 LINE",
"429 697 LINE",
"384 369 LINE",
"407 343 LINE",
"416 460 OFFCURVE",
"347 504 OFFCURVE",
"274 504 CURVE SMOOTH",
"129 504 OFFCURVE",
"32 353 OFFCURVE",
"32 199 CURVE SMOOTH",
"32 75 OFFCURVE",
"93 -11 OFFCURVE",
"208 -11 CURVE SMOOTH"
);
},
{
closed = 1;
nodes = (
"214 127 OFFCURVE",
"184 161 OFFCURVE",
"184 223 CURVE SMOOTH",
"184 312 OFFCURVE",
"230 366 OFFCURVE",
"299 366 CURVE SMOOTH",
"352 366 OFFCURVE",
"382 331 OFFCURVE",
"382 270 CURVE SMOOTH",
"382 182 OFFCURVE",
"336 127 OFFCURVE",
"267 127 CURVE SMOOTH"
);
}
);
width = 570;
},
{
anchors = (
{
name = bottom;
position = "{259, 0}";
},
{
name = center;
position = "{489, 608}";
},
{
name = top;
position = "{536, 697}";
},
{
name = topright;
position = "{672, 493}";
}
);
layerId = m003;
paths = (
{
closed = 1;
nodes = (
"334 -8 OFFCURVE",
"403 39 OFFCURVE",
"441 125 CURVE",
"416 147 LINE",
"396 0 LINE",
"480 0 LINE",
"578 697 LINE",
"494 697 LINE",
"445 346 LINE",
"472 367 LINE",
"461 444 OFFCURVE",
"400 501 OFFCURVE",
"304 501 CURVE SMOOTH",
"152 501 OFFCURVE",
"47 360 OFFCURVE",
"47 205 CURVE SMOOTH",
"47 81 OFFCURVE",
"121 -8 OFFCURVE",
"242 -8 CURVE SMOOTH"
);
},
{
closed = 1;
nodes = (
"179 70 OFFCURVE",
"131 125 OFFCURVE",
"131 209 CURVE SMOOTH",
"131 316 OFFCURVE",
"203 424 OFFCURVE",
"316 424 CURVE SMOOTH",
"393 424 OFFCURVE",
"441 368 OFFCURVE",
"441 285 CURVE SMOOTH",
"441 179 OFFCURVE",
"371 70 OFFCURVE",
"258 70 CURVE SMOOTH"
);
}
);
width = 587;
}
);
note = d;
rightKerningGroup = d;
unicode = 0064;
},
{
color = 1;
glyphname = eth;
lastChange = "2021-11-14 10:14:53 +0000";
layers = (
{
layerId = "F91D9E91-C1BC-4259-B0D8-112C0CBA2B8E";
paths = (
{
closed = 1;
nodes = (
"477 -5 OFFCURVE",
"589 239 OFFCURVE",
"589 457 CURVE SMOOTH",
"589 620 OFFCURVE",
"505 704 OFFCURVE",
"241 709 CURVE",
"239 693 LINE",
"466 689 OFFCURVE",
"571 625 OFFCURVE",
"571 455 CURVE SMOOTH",
"571 409 OFFCURVE",
"564 359 OFFCURVE",
"550 300 CURVE",
"551 306 OFFCURVE",
"551 313 OFFCURVE",
"551 320 CURVE SMOOTH",
"551 421 OFFCURVE",
"503 508 OFFCURVE",
"393 508 CURVE SMOOTH",
"203 508 OFFCURVE",
"73 340 OFFCURVE",
"73 173 CURVE SMOOTH",
"73 66 OFFCURVE",
"141 -5 OFFCURVE",
"250 -5 CURVE SMOOTH"
);
},
{
closed = 1;
nodes = (
"154 13 OFFCURVE",
"92 76 OFFCURVE",
"92 174 CURVE SMOOTH",
"92 330 OFFCURVE",
"213 490 OFFCURVE",
"394 490 CURVE SMOOTH",
"502 490 OFFCURVE",
"541 404 OFFCURVE",
"541 320 CURVE SMOOTH",
"541 191 OFFCURVE",
"429 13 OFFCURVE",
"252 13 CURVE SMOOTH"
);
},
{
closed = 1;
nodes = (
"674 667 LINE",
"672 679 LINE",
"354 572 LINE",
"356 560 LINE"
);
}
);
width = 651;
},
{
layerId = "957254E3-B7AD-4837-9092-D4428001DE8E";
paths = (
{
closed = 1;
nodes = (
"481 -11 OFFCURVE",
"593 233 OFFCURVE",
"593 455 CURVE SMOOTH",
"593 616 OFFCURVE",
"515 719 OFFCURVE",
"313 738 CURVE",
"295 638 LINE",
"422 633 OFFCURVE",
"470 557 OFFCURVE",
"470 470 CURVE SMOOTH",
"470 456 OFFCURVE",
"468 442 OFFCURVE",
"466 427 CURVE",
"460 437 OFFCURVE",
"452 446 OFFCURVE",
"442 454 CURVE SMOOTH",
"412 477 OFFCURVE",
"368 487 OFFCURVE",
"327 487 CURVE SMOOTH",
"174 487 OFFCURVE",
"29 354 OFFCURVE",
"29 187 CURVE SMOOTH",
"29 71 OFFCURVE",
"105 -11 OFFCURVE",
"245 -11 CURVE SMOOTH"
);
},
{
closed = 1;
nodes = (
"209 118 OFFCURVE",
"170 141 OFFCURVE",
"170 194 CURVE SMOOTH",
"170 257 OFFCURVE",
"222 364 OFFCURVE",
"342 364 CURVE SMOOTH",
"406 364 OFFCURVE",
"434 330 OFFCURVE",
"432 290 CURVE SMOOTH",
"429 213 OFFCURVE",
"353 118 OFFCURVE",
"256 118 CURVE SMOOTH"
);
},
{
closed = 1;
nodes = (
"623 607 LINE",
"617 667 LINE",
"242 581 LINE",
"249 521 LINE"
);
}
);
width = 591;
},
{
layerId = m003;
paths = (
{
closed = 1;
nodes = (
"484 -8 OFFCURVE",
"596 235 OFFCURVE",
"596 456 CURVE SMOOTH",
"596 618 OFFCURVE",
"516 711 OFFCURVE",
"282 723 CURVE",
"272 666 LINE",
"449 662 OFFCURVE",
"526 594 OFFCURVE",
"526 461 CURVE SMOOTH",
"526 432 OFFCURVE",
"523 398 OFFCURVE",
"515 362 CURVE",
"515 381 OFFCURVE",
"511 399 OFFCURVE",
"503 417 CURVE SMOOTH",
"481 463 OFFCURVE",
"433 498 OFFCURVE",
"366 498 CURVE SMOOTH",
"184 498 OFFCURVE",
"57 334 OFFCURVE",
"57 180 CURVE SMOOTH",
"57 69 OFFCURVE",
"129 -8 OFFCURVE",
"253 -8 CURVE SMOOTH"
);
},
{
closed = 1;
nodes = (
"187 65 OFFCURVE",
"136 108 OFFCURVE",
"136 184 CURVE SMOOTH",
"136 300 OFFCURVE",
"228 428 OFFCURVE",
"374 428 CURVE SMOOTH",
"459 428 OFFCURVE",
"491 366 OFFCURVE",
"491 304 CURVE SMOOTH",
"491 189 OFFCURVE",
"388 65 OFFCURVE",
"259 65 CURVE SMOOTH"
);
},
{
closed = 1;
nodes = (
"655 638 LINE",
"650 674 LINE",
"304 577 LINE",
"309 541 LINE"
);
}
);
width = 619;
}
);
leftKerningGroup = c;
note = eth;
rightKerningGroup = d;
unicode = 00F0;
},
{
color = 1;
glyphname = e;
lastChange = "2021-11-14 10:16:10 +0000";
layers = (
{
anchors = (
{
name = bottom;
position = "{246, 0}";
},
{
name = ogonek;
position = "{300, 0}";
},
{
name = top;
position = "{308, 493}";
}
);
layerId = "F91D9E91-C1BC-4259-B0D8-112C0CBA2B8E";
paths = (
{
closed = 1;
nodes = (
"326 -5 OFFCURVE",
"373 16 OFFCURVE",
"437 71 CURVE",
"423 85 LINE",
"361 29 OFFCURVE",
"315 14 OFFCURVE",
"247 14 CURVE SMOOTH",
"145 14 OFFCURVE",
"85 79 OFFCURVE",
"85 194 CURVE SMOOTH",
"85 211 OFFCURVE",
"85 228 OFFCURVE",
"88 247 CURVE",
"473 247 LINE",
"477 263 OFFCURVE",
"482 294 OFFCURVE",
"482 321 CURVE SMOOTH",
"482 404 OFFCURVE",
"439 498 OFFCURVE",
"307 498 CURVE SMOOTH",
"154 498 OFFCURVE",
"64 339 OFFCURVE",
"64 192 CURVE SMOOTH",
"64 72 OFFCURVE",
"132 -5 OFFCURVE",
"246 -5 CURVE SMOOTH"
);
},
{
closed = 1;
nodes = (
"463 263 LINE",
"90 263 LINE",
"115 390 OFFCURVE",
"201 480 OFFCURVE",
"307 480 CURVE SMOOTH",
"426 480 OFFCURVE",
"463 397 OFFCURVE",
"463 324 CURVE SMOOTH",
"463 302 OFFCURVE",
"460 277 OFFCURVE",
"456 258 CURVE"
);
}
);
width = 540;
},
{
anchors = (
{
name = bottom;
position = "{249, 0}";
},
{
name = ogonek;
position = "{328, 0}";
},
{
name = top;
position = "{311, 493}";
}
);
layerId = "957254E3-B7AD-4837-9092-D4428001DE8E";
paths = (
{
closed = 1;
nodes = (
"337 -11 OFFCURVE",
"409 18 OFFCURVE",
"462 51 CURVE",
"399 154 LINE",
"358 132 OFFCURVE",
"309 118 OFFCURVE",
"267 118 CURVE SMOOTH",
"223 118 OFFCURVE",
"186 133 OFFCURVE",
"177 171 CURVE SMOOTH",
"176 177 OFFCURVE",
"175 183 OFFCURVE",
"175 190 CURVE",
"500 190 LINE",
"508 225 OFFCURVE",
"513 251 OFFCURVE",
"513 288 CURVE SMOOTH",
"513 416 OFFCURVE",
"443 504 OFFCURVE",
"304 504 CURVE SMOOTH",
"123 504 OFFCURVE",
"30 353 OFFCURVE",
"30 206 CURVE SMOOTH",
"30 91 OFFCURVE",
"91 -11 OFFCURVE",
"255 -11 CURVE SMOOTH"
);
},
{
closed = 1;
nodes = (
"422 301 LINE",
"190 301 LINE",
"200 333 OFFCURVE",
"234 384 OFFCURVE",
"303 384 CURVE SMOOTH",
"358 384 OFFCURVE",
"377 349 OFFCURVE",
"377 312 CURVE SMOOTH",
"377 300 OFFCURVE",
"375 286 OFFCURVE",
"371 273 CURVE"
);
}
);
width = 544;
},
{
anchors = (
{
name = bottom;
position = "{246, 0}";
},
{
name = ogonek;
position = "{313, 0}";
},
{
name = top;
position = "{308, 493}";
}
);
layerId = m003;
paths = (
{
closed = 1;
nodes = (
"329 -8 OFFCURVE",
"390 16 OFFCURVE",
"453 74 CURVE",
"398 130 LINE",
"355 88 OFFCURVE",
"312 69 OFFCURVE",
"252 69 CURVE SMOOTH",
"173 69 OFFCURVE",
"129 114 OFFCURVE",
"129 193 CURVE SMOOTH",
"129 201 OFFCURVE",
"129 209 OFFCURVE",
"130 218 CURVE",
"485 218 LINE",
"492 242 OFFCURVE",
"496 280 OFFCURVE",
"496 305 CURVE SMOOTH",
"496 410 OFFCURVE",
"439 501 OFFCURVE",
"304 501 CURVE SMOOTH",
"140 501 OFFCURVE",
"46 348 OFFCURVE",
"46 199 CURVE SMOOTH",
"46 82 OFFCURVE",
"111 -8 OFFCURVE",
"250 -8 CURVE SMOOTH"
);
},
{
closed = 1;
nodes = (
"442 282 LINE",
"138 282 LINE",
"155 361 OFFCURVE",
"216 430 OFFCURVE",
"305 430 CURVE SMOOTH",
"386 430 OFFCURVE",
"420 375 OFFCURVE",
"420 319 CURVE SMOOTH",
"420 297 OFFCURVE",
"419 288 OFFCURVE",
"416 266 CURVE"
);
}
);
width = 541;
}
);
leftKerningGroup = c;
note = e;
rightKerningGroup = e;
unicode = 0065;
},
{
color = 1;
glyphname = f;
lastChange = "2022-02-25 20:13:41 +0000";
layers = (
{
anchors = (
{
name = bottom;
position = "{132, 0}";
},
{
name = top;
position = "{257, 697}";
}
);
layerId = "F91D9E91-C1BC-4259-B0D8-112C0CBA2B8E";
paths = (
{
closed = 1;
nodes = (
"142 0 LINE",
"209 476 LINE",
"339 476 LINE",
"342 493 LINE",
"212 493 LINE",
"223 577 LINE SMOOTH",
"233 649 OFFCURVE",
"274 684 OFFCURVE",
"334 684 CURVE SMOOTH",
"359 684 OFFCURVE",
"377 679 OFFCURVE",
"395 670 CURVE",
"403 685 LINE",
"385 696 OFFCURVE",
"363 702 OFFCURVE",
"332 702 CURVE SMOOTH",
"262 702 OFFCURVE",
"215 663 OFFCURVE",
"203 577 CURVE SMOOTH",
"192 493 LINE",
"69 493 LINE",
"66 476 LINE",
"189 476 LINE",
"122 0 LINE"
);
}
);
width = 342;
},
{
anchors = (
{
name = bottom;
position = "{141, 0}";
},
{
name = top;
position = "{237, 697}";
}
);
layerId = "957254E3-B7AD-4837-9092-D4428001DE8E";
paths = (
{
closed = 1;
nodes = (
"217 0 LINE",
"270 376 LINE",
"368 376 LINE",
"385 493 LINE",
"287 493 LINE",
"292 532 LINE SMOOTH",
"296 560 OFFCURVE",
"310 583 OFFCURVE",
"338 583 CURVE SMOOTH",
"347 583 OFFCURVE",
"359 579 OFFCURVE",
"370 573 CURVE",
"428 684 LINE",
"399 697 OFFCURVE",
"371 708 OFFCURVE",
"323 708 CURVE SMOOTH",
"234 708 OFFCURVE",
"163 673 OFFCURVE",
"144 541 CURVE SMOOTH",
"137 493 LINE",
"55 493 LINE",
"38 376 LINE",
"119 376 LINE",
"66 0 LINE"
);
}
);
width = 367;
},
{
anchors = (
{
name = bottom;
position = "{132, 0}";
},
{
name = top;
position = "{243, 697}";
}
);
layerId = m003;
paths = (
{
closed = 1;
nodes = (
"175 0 LINE",
"235 427 LINE",
"350 427 LINE",
"359 493 LINE",
"245 493 LINE",
"253 554 LINE SMOOTH",
"259 600 OFFCURVE",
"284 634 OFFCURVE",
"332 634 CURVE SMOOTH",
"347 634 OFFCURVE",
"364 630 OFFCURVE",
"379 622 CURVE",
"412 684 LINE",
"388 696 OFFCURVE",
"362 705 OFFCURVE",
"324 705 CURVE SMOOTH",
"251 705 OFFCURVE",
"185 674 OFFCURVE",
"169 559 CURVE SMOOTH",
"160 493 LINE",
"58 493 LINE",
"48 427 LINE",
"150 427 LINE",
"90 0 LINE"
);
}
);
width = 348;
}
);
leftKerningGroup = f;
note = f;
rightKerningGroup = f;
unicode = 0066;
},
{
color = 1;
glyphname = g;
lastChange = "2021-11-14 10:14:53 +0000";
layers = (
{
anchors = (
{
name = bottom;
position = "{226, -209}";
},
{
name = top;
position = "{346, 493}";
}
);
layerId = "F91D9E91-C1BC-4259-B0D8-112C0CBA2B8E";
paths = (
{
closed = 1;
nodes = (
"355 -209 OFFCURVE",
"461 -153 OFFCURVE",
"484 10 CURVE SMOOTH",
"552 493 LINE",
"532 493 LINE",
"509 327 LINE",
"511 329 LINE",
"498 432 OFFCURVE",
"425 498 OFFCURVE",
"325 498 CURVE SMOOTH",
"179 498 OFFCURVE",
"64 360 OFFCURVE",
"64 212 CURVE SMOOTH",
"64 94 OFFCURVE",
"142 5 OFFCURVE",
"258 5 CURVE SMOOTH",
"359 5 OFFCURVE",
"449 74 OFFCURVE",
"490 175 CURVE",
"487 178 LINE",
"464 11 LINE SMOOTH",
"443 -141 OFFCURVE",
"345 -191 OFFCURVE",
"227 -191 CURVE SMOOTH",
"138 -191 OFFCURVE",
"76 -138 OFFCURVE",
"55 -61 CURVE",
"39 -73 LINE",
"63 -157 OFFCURVE",
"133 -209 OFFCURVE",
"227 -209 CURVE SMOOTH"
);
},
{
closed = 1;
nodes = (
"154 25 OFFCURVE",
"84 106 OFFCURVE",
"84 213 CURVE SMOOTH",
"84 350 OFFCURVE",
"191 479 OFFCURVE",
"327 479 CURVE SMOOTH",
"432 479 OFFCURVE",
"502 400 OFFCURVE",
"502 291 CURVE SMOOTH",
"502 158 OFFCURVE",
"399 25 OFFCURVE",
"261 25 CURVE SMOOTH"
);
}
);
width = 606;
},
{
anchors = (
{
name = bottom;
position = "{208, -215}";
},
{
name = top;
position = "{322, 493}";
}
);
layerId = "957254E3-B7AD-4837-9092-D4428001DE8E";
paths = (
{
closed = 1;
nodes = (
"356 -215 OFFCURVE",
"461 -148 OFFCURVE",
"483 11 CURVE SMOOTH",
"551 493 LINE",
"411 493 LINE",
"389 402 LINE",
"405 418 LINE",
"395 471 OFFCURVE",
"352 504 OFFCURVE",
"277 504 CURVE SMOOTH",
"133 504 OFFCURVE",
"34 357 OFFCURVE",
"34 216 CURVE SMOOTH",
"34 97 OFFCURVE",
"99 9 OFFCURVE",
"214 9 CURVE SMOOTH",
"274 9 OFFCURVE",
"321 23 OFFCURVE",
"365 89 CURVE",
"345 108 LINE",
"334 19 LINE SMOOTH",
"323 -68 OFFCURVE",
"262 -86 OFFCURVE",
"217 -86 CURVE SMOOTH",
"163 -86 OFFCURVE",
"141 -52 OFFCURVE",
"124 -22 CURVE",
"-1 -107 LINE",
"34 -160 OFFCURVE",
"91 -215 OFFCURVE",
"216 -215 CURVE SMOOTH"
);
},
{
closed = 1;
nodes = (
"220 142 OFFCURVE",
"187 180 OFFCURVE",
"187 235 CURVE SMOOTH",
"187 313 OFFCURVE",
"232 366 OFFCURVE",
"300 366 CURVE SMOOTH",
"354 366 OFFCURVE",
"382 330 OFFCURVE",
"382 275 CURVE SMOOTH",
"382 201 OFFCURVE",
"344 142 OFFCURVE",
"275 142 CURVE SMOOTH"
);
}
);
width = 571;
},
{
anchors = (
{
name = bottom;
position = "{216, -212}";
},
{
name = top;
position = "{333, 493}";
}
);
layerId = m003;
paths = (
{
closed = 1;
nodes = (
"366 -212 OFFCURVE",
"461 -140 OFFCURVE",
"482 10 CURVE SMOOTH",
"550 493 LINE",
"465 493 LINE",
"448 364 LINE",
"457 373 LINE",
"441 449 OFFCURVE",
"384 501 OFFCURVE",
"294 501 CURVE SMOOTH",
"153 501 OFFCURVE",
"48 365 OFFCURVE",
"48 214 CURVE SMOOTH",
"48 96 OFFCURVE",
"119 7 OFFCURVE",
"234 7 CURVE SMOOTH",
"314 7 OFFCURVE",
"384 48 OFFCURVE",
"426 133 CURVE",
"415 144 LINE",
"398 15 LINE SMOOTH",
"381 -109 OFFCURVE",
"297 -140 OFFCURVE",
"221 -140 CURVE SMOOTH",
"151 -140 OFFCURVE",
"107 -98 OFFCURVE",
"87 -42 CURVE",
"17 -89 LINE",
"48 -162 OFFCURVE",
"115 -212 OFFCURVE",
"220 -212 CURVE SMOOTH"
);
},
{
closed = 1;
nodes = (
"180 87 OFFCURVE",
"132 141 OFFCURVE",
"132 220 CURVE SMOOTH",
"132 325 OFFCURVE",
"209 424 OFFCURVE",
"316 424 CURVE SMOOTH",
"394 424 OFFCURVE",
"442 367 OFFCURVE",
"442 287 CURVE SMOOTH",
"442 175 OFFCURVE",
"361 87 OFFCURVE",
"259 87 CURVE SMOOTH"
);
}
);
width = 588;
}
);
leftKerningGroup = c;
note = g;
rightKerningGroup = g;
unicode = 0067;
},
{
color = 1;
glyphname = h;
lastChange = "2021-11-14 10:14:53 +0000";
layers = (
{
anchors = (
{
name = bottom;
position = "{226, 0}";
},
{
name = center;
position = "{189, 607}";
},
{
name = top;
position = "{161, 697}";
}
);
layerId = "F91D9E91-C1BC-4259-B0D8-112C0CBA2B8E";
paths = (
{
closed = 1;
nodes = (
"73 0 LINE",
"110 260 LINE SMOOTH",
"130 401 OFFCURVE",
"195 480 OFFCURVE",
"303 480 CURVE SMOOTH",
"385 480 OFFCURVE",
"424 435 OFFCURVE",
"424 346 CURVE SMOOTH",
"424 333 OFFCURVE",
"423 311 OFFCURVE",
"420 292 CURVE SMOOTH",
"379 0 LINE",
"399 0 LINE",
"441 297 LINE SMOOTH",
"444 318 OFFCURVE",
"445 336 OFFCURVE",
"445 350 CURVE SMOOTH",
"445 448 OFFCURVE",
"396 498 OFFCURVE",
"305 498 CURVE SMOOTH",
"218 498 OFFCURVE",
"154 452 OFFCURVE",
"120 360 CURVE",
"124 359 LINE",
"171 697 LINE",
"151 697 LINE",
"53 0 LINE"
);
}
);
width = 516;
},
{
anchors = (
{
name = bottom;
position = "{261, 0}";
},
{
name = center;
position = "{233, 589}";
},
{
name = top;
position = "{194, 697}";
}
);
layerId = "957254E3-B7AD-4837-9092-D4428001DE8E";
paths = (
{
closed = 1;
nodes = (
"170 0 LINE",
"202 226 LINE SMOOTH",
"216 325 OFFCURVE",
"256 373 OFFCURVE",
"324 373 CURVE SMOOTH",
"365 373 OFFCURVE",
"383 355 OFFCURVE",
"383 311 CURVE SMOOTH",
"383 302 OFFCURVE",
"382 290 OFFCURVE",
"380 276 CURVE SMOOTH",
"341 0 LINE",
"492 0 LINE",
"538 324 LINE SMOOTH",
"539 335 OFFCURVE",
"540 345 OFFCURVE",
"540 355 CURVE SMOOTH",
"540 446 OFFCURVE",
"479 504 OFFCURVE",
"373 504 CURVE SMOOTH",
"315 504 OFFCURVE",
"240 481 OFFCURVE",
"203 381 CURVE",
"223 377 LINE",
"268 697 LINE",
"117 697 LINE",
"19 0 LINE"
);
}
);
width = 576;
},
{
anchors = (
{
name = bottom;
position = "{245, 0}";
},
{
name = center;
position = "{211, 598}";
},
{
name = top;
position = "{178, 697}";
}
);
layerId = m003;
paths = (
{
closed = 1;
nodes = (
"122 0 LINE",
"156 243 LINE SMOOTH",
"174 369 OFFCURVE",
"230 428 OFFCURVE",
"315 428 CURVE SMOOTH",
"374 428 OFFCURVE",
"404 397 OFFCURVE",
"404 329 CURVE SMOOTH",
"404 311 OFFCURVE",
"403 300 OFFCURVE",
"401 284 CURVE SMOOTH",
"361 0 LINE",
"446 0 LINE",
"489 310 LINE SMOOTH",
"491 325 OFFCURVE",
"492 337 OFFCURVE",
"492 352 CURVE SMOOTH",
"492 449 OFFCURVE",
"436 501 OFFCURVE",
"339 501 CURVE SMOOTH",
"261 501 OFFCURVE",
"193 465 OFFCURVE",
"155 390 CURVE",
"176 388 LINE",
"220 697 LINE",
"135 697 LINE",
"37 0 LINE"
);
}
);
width = 547;
}
);
leftKerningGroup = h;
note = h;
rightKerningGroup = h;
unicode = 0068;
},
{
color = 1;
glyphname = idotless;
lastChange = "2021-11-14 10:14:53 +0000";
layers = (
{
anchors = (
{
name = bottom;
position = "{65, 0}";
},
{
name = ogonek;
position = "{75, 0}";
},
{
name = top;
position = "{135, 493}";
}
);
layerId = "F91D9E91-C1BC-4259-B0D8-112C0CBA2B8E";
paths = (
{
closed = 1;
nodes = (
"75 0 LINE",
"145 493 LINE",
"125 493 LINE",
"55 0 LINE"
);
}
);
width = 200;
},
{
anchors = (
{
name = bottom;
position = "{94, 0}";
},
{
name = ogonek;
position = "{169, 0}";
},
{
name = top;
position = "{163, 493}";
}
);
layerId = "957254E3-B7AD-4837-9092-D4428001DE8E";
paths = (
{
closed = 1;
nodes = (
"169 0 LINE",
"238 493 LINE",
"87 493 LINE",
"18 0 LINE"
);
}
);
width = 258;
},
{
anchors = (
{
name = bottom;
position = "{78, 0}";
},
{
name = ogonek;
position = "{120, 0}";
},
{
name = top;
position = "{148, 493}";
}
);
layerId = m003;
paths = (
{
closed = 1;
nodes = (
"120 0 LINE",
"190 493 LINE",
"105 493 LINE",
"36 0 LINE"
);
}
);
width = 226;
}
);
note = dotlessi;
unicode = 0131;
},
{
color = 1;
glyphname = jdotless;
lastChange = "2021-11-19 16:23:12 +0000";
layers = (
{
anchors = (
{
name = bottom;
position = "{30, -254}";
},
{
name = top;
position = "{135, 493}";
}
);
guideLines = (
{
position = "{384, -204}";
}
);
layerId = "F91D9E91-C1BC-4259-B0D8-112C0CBA2B8E";
paths = (
{
closed = 1;
nodes = (
"20 -209 OFFCURVE",
"50 -180 OFFCURVE",
"59 -112 CURVE SMOOTH",
"145 493 LINE",
"125 493 LINE",
"40 -108 LINE SMOOTH",
"32 -166 OFFCURVE",
"8 -191 OFFCURVE",
"-30 -191 CURVE SMOOTH",
"-43 -191 OFFCURVE",
"-62 -188 OFFCURVE",
"-82 -180 CURVE",
"-84 -198 LINE",
"-63 -205 OFFCURVE",
"-44 -209 OFFCURVE",
"-27 -209 CURVE SMOOTH"
);
}
);
width = 200;
},
{
anchors = (
{
name = bottom;
position = "{58, -254}";
},
{
name = top;
position = "{163, 493}";
}
);
guideLines = (
{
position = "{266, -204}";
}
);
layerId = "957254E3-B7AD-4837-9092-D4428001DE8E";
paths = (
{
closed = 1;
nodes = (
"88 -215 OFFCURVE",
"144 -176 OFFCURVE",
"157 -82 CURVE SMOOTH",
"238 493 LINE",
"87 493 LINE",
"14 -32 LINE SMOOTH",
"9 -66 OFFCURVE",
"-10 -74 OFFCURVE",
"-38 -74 CURVE SMOOTH",
"-45 -74 OFFCURVE",
"-59 -73 OFFCURVE",
"-74 -70 CURVE",
"-84 -198 LINE",
"-54 -208 OFFCURVE",
"-19 -215 OFFCURVE",
"14 -215 CURVE SMOOTH"
);
}
);
width = 258;
},
{
anchors = (
{
name = bottom;
position = "{43, -254}";
},
{
name = top;
position = "{148, 493}";
}
);
guideLines = (
{
position = "{240, -204}";
}
);
layerId = m003;
paths = (
{
closed = 1;
nodes = (
"52 -212 OFFCURVE",
"96 -178 OFFCURVE",
"107 -97 CURVE SMOOTH",
"190 493 LINE",
"105 493 LINE",
"26 -71 LINE SMOOTH",
"20 -116 OFFCURVE",
"-3 -134 OFFCURVE",
"-36 -134 CURVE SMOOTH",
"-44 -134 OFFCURVE",
"-59 -132 OFFCURVE",
"-79 -126 CURVE",
"-85 -198 LINE",
"-60 -206 OFFCURVE",
"-33 -212 OFFCURVE",
"-8 -212 CURVE SMOOTH"
);
}
);
width = 226;
}
);
leftMetricsKey = "=i@200";
note = uni0237;
rightMetricsKey = "=i@200";
unicode = 0237;
},
{
color = 1;
glyphname = k;
lastChange = "2021-11-14 10:14:53 +0000";
layers = (
{
anchors = (
{
name = bottom;
position = "{210, 0}";
},
{
name = top;
position = "{161, 697}";
}
);
layerId = "F91D9E91-C1BC-4259-B0D8-112C0CBA2B8E";
paths = (
{
closed = 1;
nodes = (
"416 0 LINE",
"251 313 LINE",
"452 493 LINE",
"424 493 LINE",
"92 193 LINE",
"88 167 LINE",
"237 300 LINE",
"394 0 LINE"
);
},
{
closed = 1;
nodes = (
"73 0 LINE",
"171 697 LINE",
"151 697 LINE",
"53 0 LINE"
);
}
);
width = 492;
},
{
anchors = (
{
name = bottom;
position = "{260, 0}";
},
{
name = top;
position = "{193, 697}";
}
);
layerId = "957254E3-B7AD-4837-9092-D4428001DE8E";
paths = (
{
closed = 1;
nodes = (
"529 0 LINE",
"367 305 LINE",
"584 493 LINE",
"380 493 LINE",
"203 318 LINE",
"179 131 LINE",
"256 208 LINE",
"362 0 LINE"
);
},
{
closed = 1;
nodes = (
"170 0 LINE",
"268 697 LINE",
"117 697 LINE",
"19 0 LINE"
);
}
);
width = 578;
},
{
anchors = (
{
name = bottom;
position = "{235, 0}";
},
{
name = top;
position = "{177, 697}";
}
);
layerId = m003;
paths = (
{
closed = 1;
nodes = (
"472 0 LINE",
"307 308 LINE",
"517 493 LINE",
"402 493 LINE",
"146 255 LINE",
"133 150 LINE",
"246 254 LINE",
"377 0 LINE"
);
},
{
closed = 1;
nodes = (
"121 0 LINE",
"219 697 LINE",
"134 697 LINE",
"36 0 LINE"
);
}
);
width = 531;
}
);
leftKerningGroup = k;
note = k;
rightKerningGroup = k;
unicode = 006B;
},
{
color = 1;
glyphname = kgreenlandic;
lastChange = "2021-11-14 10:14:53 +0000";
layers = (
{
anchors = (
{
name = bottom;
position = "{212, 0}";
},
{
name = top;
position = "{282, 493}";
}
);
layerId = "F91D9E91-C1BC-4259-B0D8-112C0CBA2B8E";
paths = (
{
closed = 1;
nodes = (
"238 300 LINE",
"395 0 LINE",
"417 0 LINE",
"252 313 LINE",
"453 493 LINE",
"425 493 LINE",
"93 193 LINE",
"89 167 LINE"
);
},
{
closed = 1;
nodes = (
"74 0 LINE",
"143 493 LINE",
"123 493 LINE",
"54 0 LINE"
);
}
);
width = 493;
},
{
anchors = (
{
name = bottom;
position = "{255, 0}";
},
{
name = top;
position = "{325, 493}";
}
);
layerId = "957254E3-B7AD-4837-9092-D4428001DE8E";
paths = (
{
closed = 1;
nodes = (
"257 208 LINE",
"363 0 LINE",
"530 0 LINE",
"368 305 LINE",
"585 493 LINE",
"381 493 LINE",
"204 318 LINE",
"180 131 LINE"
);
},
{
closed = 1;
nodes = (
"171 0 LINE",
"240 493 LINE",
"89 493 LINE",
"20 0 LINE"
);
}
);
width = 579;
},
{
anchors = (
{
name = bottom;
position = "{233, 0}";
},
{
name = top;
position = "{303, 493}";
}
);
layerId = m003;
paths = (
{
closed = 1;
nodes = (
"248 254 LINE",
"379 0 LINE",
"474 0 LINE",
"309 308 LINE",
"519 493 LINE",
"404 493 LINE",
"148 255 LINE",
"135 150 LINE"
);
},
{
closed = 1;
nodes = (
"123 0 LINE",
"192 493 LINE",
"107 493 LINE",
"38 0 LINE"
);
}
);
width = 533;
}
);
leftKerningGroup = m;
leftMetricsKey = m;
note = kgreenlandic;
rightKerningGroup = k;
unicode = 0138;
},
{
color = 1;
glyphname = l;
lastChange = "2021-11-14 10:14:53 +0000";
layers = (
{
anchors = (
{
name = bottom;
position = "{104, 0}";
},
{
name = center;
position = "{143, 412}";
},
{
name = top;
position = "{162, 697}";
},
{
name = topright;
position = "{259, 493}";
}
);
layerId = "F91D9E91-C1BC-4259-B0D8-112C0CBA2B8E";
paths = (
{
closed = 1;
nodes = (
"149 -5 OFFCURVE",
"162 -3 OFFCURVE",
"184 4 CURVE",
"187 24 LINE",
"166 15 OFFCURVE",
"151 14 OFFCURVE",
"136 14 CURVE SMOOTH",
"95 14 OFFCURVE",
"85 39 OFFCURVE",
"85 67 CURVE SMOOTH",
"85 78 OFFCURVE",
"86 86 OFFCURVE",
"87 94 CURVE SMOOTH",
"171 697 LINE",
"152 697 LINE",
"67 93 LINE SMOOTH",
"65 81 OFFCURVE",
"65 65 OFFCURVE",
"65 63 CURVE SMOOTH",
"65 26 OFFCURVE",
"79 -5 OFFCURVE",
"132 -5 CURVE SMOOTH"
);
}
);
width = 263;
},
{
anchors = (
{
name = bottom;
position = "{104, 0}";
},
{
name = center;
position = "{143, 343}";
},
{
name = top;
position = "{189, 697}";
},
{
name = topright;
position = "{379, 493}";
}
);
background = {
paths = (
{
closed = 1;
nodes = (
"169 -11 OFFCURVE",
"199 -9 OFFCURVE",
"232 3 CURVE",
"250.575 136.34 LINE",
"236.652 132.799 OFFCURVE",
"222.393 128 OFFCURVE",
"210 128 CURVE SMOOTH",
"195 128 OFFCURVE",
"190 136 OFFCURVE",
"190 151 CURVE SMOOTH",
"190 158 OFFCURVE",
"191 168 OFFCURVE",
"193 179 CURVE SMOOTH",
"264 697 LINE",
"114 697 LINE",
"35 129 LINE SMOOTH",
"34 119 OFFCURVE",
"33 109 OFFCURVE",
"33 100 CURVE SMOOTH",
"33 25 OFFCURVE",
"83 -11 OFFCURVE",
"151 -11 CURVE SMOOTH"
);
}
);
};
layerId = "957254E3-B7AD-4837-9092-D4428001DE8E";
paths = (
{
closed = 1;
nodes = (
"169 -11 OFFCURVE",
"199 -9 OFFCURVE",
"232 3 CURVE",
"250 130 LINE",
"240 128 OFFCURVE",
"228 126 OFFCURVE",
"217 126 CURVE SMOOTH",
"202 126 OFFCURVE",
"190 131 OFFCURVE",
"190 151 CURVE SMOOTH",
"190 156 OFFCURVE",
"191 165 OFFCURVE",
"193 179 CURVE SMOOTH",
"264 697 LINE",
"114 697 LINE",
"35 129 LINE SMOOTH",
"34 119 OFFCURVE",
"33 109 OFFCURVE",
"33 100 CURVE SMOOTH",
"33 25 OFFCURVE",
"83 -11 OFFCURVE",
"151 -11 CURVE SMOOTH"
);
}
);
width = 290;
},
{
anchors = (
{
name = bottom;
position = "{104, 0}";
},
{
name = center;
position = "{148, 378}";
},
{
name = top;
position = "{175, 697}";
},
{
name = topright;
position = "{318, 493}";
}
);
layerId = m003;
paths = (
{
closed = 1;
nodes = (
"157 -8 OFFCURVE",
"181 -5 OFFCURVE",
"204 3 CURVE",
"215 79 LINE",
"198 73 OFFCURVE",
"183 70 OFFCURVE",
"169 70 CURVE SMOOTH",
"148 70 OFFCURVE",
"136 80 OFFCURVE",
"136 105 CURVE SMOOTH",
"136 112 OFFCURVE",
"136 117 OFFCURVE",
"137 122 CURVE SMOOTH",
"217 697 LINE",
"133 697 LINE",
"51 111 LINE SMOOTH",
"50 101 OFFCURVE",
"49 92 OFFCURVE",
"49 84 CURVE SMOOTH",
"49 22 OFFCURVE",
"84 -8 OFFCURVE",
"139 -8 CURVE SMOOTH"
);
}
);
width = 269;
}
);
leftKerningGroup = l;
note = l;
rightKerningGroup = l;
unicode = 006C;
},
{
color = 1;
glyphname = m;
lastChange = "2021-11-14 10:14:53 +0000";
layers = (
{
anchors = (
{
name = bottom;
position = "{364, 0}";
},
{
name = top;
position = "{434, 493}";
}
);
layerId = "F91D9E91-C1BC-4259-B0D8-112C0CBA2B8E";
paths = (
{
closed = 1;
nodes = (
"74 0 LINE",
"114 289 LINE SMOOTH",
"131 410 OFFCURVE",
"199 480 OFFCURVE",
"290 480 CURVE SMOOTH",
"366 480 OFFCURVE",
"404 438 OFFCURVE",
"404 348 CURVE SMOOTH",
"404 334 OFFCURVE",
"403 313 OFFCURVE",
"400 292 CURVE SMOOTH",
"359 0 LINE",
"379 0 LINE",
"420 289 LINE SMOOTH",
"438 415 OFFCURVE",
"508 480 OFFCURVE",
"596 480 CURVE SMOOTH",
"681 480 OFFCURVE",
"710 428 OFFCURVE",
"710 346 CURVE SMOOTH",
"710 323 OFFCURVE",
"708 302 OFFCURVE",
"705 280 CURVE SMOOTH",
"665 0 LINE",
"686 0 LINE",
"726 282 LINE SMOOTH",
"729 305 OFFCURVE",
"731 323 OFFCURVE",
"731 347 CURVE SMOOTH",
"731 439 OFFCURVE",
"695 498 OFFCURVE",
"600 498 CURVE SMOOTH",
"520 498 OFFCURVE",
"453 451 OFFCURVE",
"418 350 CURVE",
"425 349 LINE",
"426 452 OFFCURVE",
"379 498 OFFCURVE",
"295 498 CURVE SMOOTH",
"220 498 OFFCURVE",
"155 457 OFFCURVE",
"122 368 CURVE",
"125 367 LINE",
"143 493 LINE",
"123 493 LINE",
"53 0 LINE"
);
}
);
width = 803;
},
{
anchors = (
{
name = bottom;
position = "{392, 0}";
},
{
name = top;
position = "{462, 493}";
}
);
layerId = "957254E3-B7AD-4837-9092-D4428001DE8E";
paths = (
{
closed = 1;
nodes = (
"170 0 LINE",
"203 235 LINE SMOOTH",
"216 326 OFFCURVE",
"253 373 OFFCURVE",
"314 373 CURVE SMOOTH",
"352 373 OFFCURVE",
"362 347 OFFCURVE",
"362 316 CURVE SMOOTH",
"362 307 OFFCURVE",
"361 299 OFFCURVE",
"359 285 CURVE SMOOTH",
"319 0 LINE",
"469 0 LINE",
"502 235 LINE SMOOTH",
"515 327 OFFCURVE",
"551 373 OFFCURVE",
"609 373 CURVE SMOOTH",
"642 373 OFFCURVE",
"660 356 OFFCURVE",
"660 314 CURVE SMOOTH",
"660 306 OFFCURVE",
"660 296 OFFCURVE",
"658 285 CURVE SMOOTH",
"618 0 LINE",
"769 0 LINE",
"813 314 LINE SMOOTH",
"814 324 OFFCURVE",
"815 333 OFFCURVE",
"815 343 CURVE SMOOTH",
"815 424 OFFCURVE",
"766 504 OFFCURVE",
"647 504 CURVE SMOOTH",
"577 504 OFFCURVE",
"483 468 OFFCURVE",
"430 303 CURVE",
"527 337 LINE",
"522 471 OFFCURVE",
"440 504 OFFCURVE",
"368 504 CURVE SMOOTH",
"309 504 OFFCURVE",
"221 480 OFFCURVE",
"183 333 CURVE",
"223 364 LINE",
"230 493 LINE",
"89 493 LINE",
"19 0 LINE"
);
}
);
width = 852;
},
{
anchors = (
{
name = bottom;
position = "{379, 0}";
},
{
name = top;
position = "{448, 493}";
}
);
layerId = m003;
paths = (
{
closed = 1;
nodes = (
"122 0 LINE",
"159 262 LINE SMOOTH",
"174 370 OFFCURVE",
"229 428 OFFCURVE",
"303 428 CURVE SMOOTH",
"356 428 OFFCURVE",
"384 397 OFFCURVE",
"384 331 CURVE SMOOTH",
"384 316 OFFCURVE",
"383 304 OFFCURVE",
"381 289 CURVE SMOOTH",
"340 0 LINE",
"425 0 LINE",
"462 262 LINE SMOOTH",
"477 370 OFFCURVE",
"529 428 OFFCURVE",
"604 428 CURVE SMOOTH",
"663 428 OFFCURVE",
"686 392 OFFCURVE",
"686 328 CURVE SMOOTH",
"686 309 OFFCURVE",
"685 297 OFFCURVE",
"683 282 CURVE SMOOTH",
"643 0 LINE",
"727 0 LINE",
"769 298 LINE SMOOTH",
"771 313 OFFCURVE",
"772 326 OFFCURVE",
"772 343 CURVE SMOOTH",
"772 431 OFFCURVE",
"731 501 OFFCURVE",
"624 501 CURVE SMOOTH",
"536 501 OFFCURVE",
"471 453 OFFCURVE",
"428 352 CURVE",
"476 343 LINE",
"474 447 OFFCURVE",
"421 501 OFFCURVE",
"329 501 CURVE SMOOTH",
"265 501 OFFCURVE",
"194 470 OFFCURVE",
"156 376 CURVE",
"174 366 LINE",
"191 493 LINE",
"107 493 LINE",
"37 0 LINE"
);
}
);
width = 828;
}
);
leftKerningGroup = m;
note = m;
rightKerningGroup = h;
unicode = 006D;
},
{
color = 1;
glyphname = n;
lastChange = "2021-11-14 10:14:53 +0000";
layers = (
{
anchors = (
{
name = bottom;
position = "{225, 0}";
},
{
name = top;
position = "{290, 493}";
}
);
layerId = "F91D9E91-C1BC-4259-B0D8-112C0CBA2B8E";
paths = (
{
closed = 1;
nodes = (
"73 0 LINE",
"110 260 LINE SMOOTH",
"132 415 OFFCURVE",
"205 480 OFFCURVE",
"303 480 CURVE SMOOTH",
"383 480 OFFCURVE",
"424 437 OFFCURVE",
"424 345 CURVE SMOOTH",
"424 332 OFFCURVE",
"423 311 OFFCURVE",
"420 292 CURVE SMOOTH",
"379 0 LINE",
"399 0 LINE",
"441 297 LINE SMOOTH",
"444 318 OFFCURVE",
"445 337 OFFCURVE",
"445 350 CURVE SMOOTH",
"445 453 OFFCURVE",
"393 498 OFFCURVE",
"305 498 CURVE SMOOTH",
"223 498 OFFCURVE",
"155 453 OFFCURVE",
"120 360 CURVE",
"124 359 LINE",
"143 493 LINE",
"123 493 LINE",
"53 0 LINE"
);
}
);
width = 517;
},
{
anchors = (
{
name = bottom;
position = "{245, 0}";
},
{
name = top;
position = "{315, 493}";
}
);
layerId = "957254E3-B7AD-4837-9092-D4428001DE8E";
paths = (
{
closed = 1;
nodes = (
"170 0 LINE",
"202 226 LINE SMOOTH",
"216 325 OFFCURVE",
"256 373 OFFCURVE",
"324 373 CURVE SMOOTH",
"365 373 OFFCURVE",
"383 355 OFFCURVE",
"383 311 CURVE SMOOTH",
"383 302 OFFCURVE",
"382 290 OFFCURVE",
"380 276 CURVE SMOOTH",
"341 0 LINE",
"492 0 LINE",
"538 324 LINE SMOOTH",
"540 335 OFFCURVE",
"540 345 OFFCURVE",
"540 355 CURVE SMOOTH",
"540 446 OFFCURVE",
"479 504 OFFCURVE",
"373 504 CURVE SMOOTH",
"315 504 OFFCURVE",
"240 481 OFFCURVE",
"203 381 CURVE",
"223 377 LINE",
"230 493 LINE",
"89 493 LINE",
"19 0 LINE"
);
}
);
width = 576;
},
{
anchors = (
{
name = bottom;
position = "{236, 0}";
},
{
name = top;
position = "{303, 493}";
}
);
layerId = m003;
paths = (
{
closed = 1;
nodes = (
"122 0 LINE",
"156 243 LINE SMOOTH",
"174 369 OFFCURVE",
"230 428 OFFCURVE",
"315 428 CURVE SMOOTH",
"374 428 OFFCURVE",
"404 397 OFFCURVE",
"404 329 CURVE SMOOTH",
"404 311 OFFCURVE",
"403 300 OFFCURVE",
"401 284 CURVE SMOOTH",
"361 0 LINE",
"446 0 LINE",
"489 310 LINE SMOOTH",
"491 325 OFFCURVE",
"492 337 OFFCURVE",
"492 352 CURVE SMOOTH",
"492 449 OFFCURVE",
"436 501 OFFCURVE",
"339 501 CURVE SMOOTH",
"261 501 OFFCURVE",
"193 465 OFFCURVE",
"155 390 CURVE",
"176 388 LINE",
"191 493 LINE",
"107 493 LINE",
"37 0 LINE"
);
}
);
width = 547;
}
);
leftKerningGroup = m;
note = n;
rightKerningGroup = h;
unicode = 006E;
},
{
color = 1;
glyphname = eng;
lastChange = "2021-11-14 10:14:53 +0000";
layers = (
{
guideLines = (
{
position = "{414, -204}";
}
);
layerId = "F91D9E91-C1BC-4259-B0D8-112C0CBA2B8E";
paths = (
{
closed = 1;
nodes = (
"373 -209 OFFCURVE",
"405 -184 OFFCURVE",
"415 -112 CURVE SMOOTH",
"477 328 LINE SMOOTH",
"479 342 OFFCURVE",
"480 354 OFFCURVE",
"480 364 CURVE SMOOTH",
"480 450 OFFCURVE",
"427 498 OFFCURVE",
"337 498 CURVE SMOOTH",
"255 498 OFFCURVE",
"188 456 OFFCURVE",
"156 381 CURVE",
"159 378 LINE",
"175 493 LINE",
"155 493 LINE",
"85 0 LINE",
"105 0 LINE",
"148 303 LINE SMOOTH",
"163 406 OFFCURVE",
"231 480 OFFCURVE",
"332 480 CURVE SMOOTH",
"417 480 OFFCURVE",
"458 435 OFFCURVE",
"458 355 CURVE SMOOTH",
"458 340 OFFCURVE",
"457 327 OFFCURVE",
"455 312 CURVE SMOOTH",
"395 -110 LINE SMOOTH",
"387 -167 OFFCURVE",
"364 -192 OFFCURVE",
"326 -192 CURVE SMOOTH",
"311 -192 OFFCURVE",
"294 -188 OFFCURVE",
"274 -180 CURVE",
"273 -198 LINE",
"293 -205 OFFCURVE",
"312 -209 OFFCURVE",
"330 -209 CURVE SMOOTH"
);
}
);
width = 576;
},
{
guideLines = (
{
position = "{317, -204}";
}
);
layerId = "957254E3-B7AD-4837-9092-D4428001DE8E";
paths = (
{
closed = 1;
nodes = (
"435 -215 OFFCURVE",
"492 -177 OFFCURVE",
"505 -82 CURVE SMOOTH",
"562 324 LINE SMOOTH",
"564 335 OFFCURVE",
"564 346 OFFCURVE",
"564 355 CURVE SMOOTH",
"564 446 OFFCURVE",
"503 504 OFFCURVE",
"397 504 CURVE SMOOTH",
"336 504 OFFCURVE",
"257 479 OFFCURVE",
"222 367 CURVE",
"246 357 LINE",
"254 493 LINE",
"113 493 LINE",
"43 0 LINE",
"194 0 LINE",
"226 226 LINE SMOOTH",
"240 325 OFFCURVE",
"280 373 OFFCURVE",
"348 373 CURVE SMOOTH",
"389 373 OFFCURVE",
"407 355 OFFCURVE",
"407 311 CURVE SMOOTH",
"407 304 OFFCURVE",
"406 289 OFFCURVE",
"404 276 CURVE SMOOTH",
"358 -53 LINE SMOOTH",
"355 -77 OFFCURVE",
"339 -84 OFFCURVE",
"318 -84 CURVE SMOOTH",
"314 -84 OFFCURVE",
"305 -84 OFFCURVE",
"289 -80 CURVE",
"281 -197 LINE",
"309 -208 OFFCURVE",
"336 -215 OFFCURVE",
"367 -215 CURVE SMOOTH"
);
}
);
width = 619;
},
{
guideLines = (
{
position = "{279, -204}";
}
);
layerId = m003;
paths = (
{
closed = 1;
nodes = (
"410 -212 OFFCURVE",
"451 -179 OFFCURVE",
"463 -97 CURVE SMOOTH",
"523 326 LINE SMOOTH",
"525 337 OFFCURVE",
"525 348 OFFCURVE",
"525 358 CURVE SMOOTH",
"525 449 OFFCURVE",
"467 501 OFFCURVE",
"370 501 CURVE SMOOTH",
"295 501 OFFCURVE",
"228 469 OFFCURVE",
"190 389 CURVE",
"205 369 LINE",
"222 493 LINE",
"138 493 LINE",
"68 0 LINE",
"153 0 LINE",
"187 240 LINE SMOOTH",
"204 366 OFFCURVE",
"256 428 OFFCURVE",
"343 428 CURVE SMOOTH",
"418 428 OFFCURVE",
"437 382 OFFCURVE",
"437 334 CURVE SMOOTH",
"437 324 OFFCURVE",
"436 313 OFFCURVE",
"435 303 CURVE SMOOTH",
"381 -81 LINE SMOOTH",
"375 -121 OFFCURVE",
"356 -139 OFFCURVE",
"325 -139 CURVE SMOOTH",
"318 -139 OFFCURVE",
"303 -137 OFFCURVE",
"285 -131 CURVE",
"280 -198 LINE",
"305 -207 OFFCURVE",
"327 -212 OFFCURVE",
"352 -212 CURVE SMOOTH"
);
}
);
width = 605;
}
);
leftKerningGroup = m;
note = eng;
rightKerningGroup = h;
unicode = 014B;
},
{
glyphname = nhookleft;
lastChange = "2021-11-14 10:14:53 +0000";
layers = (
{
layerId = "F91D9E91-C1BC-4259-B0D8-112C0CBA2B8E";
paths = (
{
closed = 1;
nodes = (
"102 0 LINE",
"145 303 LINE SMOOTH",
"160 406 OFFCURVE",
"228 480 OFFCURVE",
"329 480 CURVE SMOOTH",
"414 480 OFFCURVE",
"455 435 OFFCURVE",
"455 355 CURVE SMOOTH",
"455 341 OFFCURVE",
"453 327 OFFCURVE",
"451 312 CURVE SMOOTH",
"408 0 LINE",
"428 0 LINE",
"474 328 LINE SMOOTH",
"476 342 OFFCURVE",
"477 354 OFFCURVE",
"477 364 CURVE SMOOTH",
"477 451 OFFCURVE",
"423 498 OFFCURVE",
"334 498 CURVE SMOOTH",
"253 498 OFFCURVE",
"185 457 OFFCURVE",
"153 381 CURVE",
"156 378 LINE",
"172 493 LINE",
"152 493 LINE",
"82 0 LINE"
);
},
{
closed = 1;
nodes = (
"45 -209 OFFCURVE",
"76 -183 OFFCURVE",
"86 -112 CURVE SMOOTH",
"102 0 LINE",
"82 0 LINE",
"67 -110 LINE SMOOTH",
"59 -167 OFFCURVE",
"36 -192 OFFCURVE",
"-3 -192 CURVE SMOOTH",
"-17 -192 OFFCURVE",
"-35 -188 OFFCURVE",
"-54 -180 CURVE",
"-56 -198 LINE",
"-36 -205 OFFCURVE",
"-17 -209 OFFCURVE",
"1 -209 CURVE SMOOTH"
);
}
);
width = 545;
},
{
layerId = "957254E3-B7AD-4837-9092-D4428001DE8E";
paths = (
{
closed = 1;
nodes = (
"170 0 LINE",
"202 226 LINE SMOOTH",
"216 325 OFFCURVE",
"256 373 OFFCURVE",
"324 373 CURVE SMOOTH",
"365 373 OFFCURVE",
"383 355 OFFCURVE",
"383 311 CURVE SMOOTH",
"383 302 OFFCURVE",
"382 290 OFFCURVE",
"380 276 CURVE SMOOTH",
"341 0 LINE",
"492 0 LINE",
"538 324 LINE SMOOTH",
"540 335 OFFCURVE",
"540 345 OFFCURVE",
"540 355 CURVE SMOOTH",
"540 446 OFFCURVE",
"479 504 OFFCURVE",
"373 504 CURVE SMOOTH",
"315 504 OFFCURVE",
"240 481 OFFCURVE",
"203 381 CURVE",
"223 377 LINE",
"230 493 LINE",
"89 493 LINE",
"19 0 LINE"
);
},
{
closed = 1;
nodes = (
"89 -215 OFFCURVE",
"144 -176 OFFCURVE",
"158 -82 CURVE SMOOTH",
"170 0 LINE",
"19 0 LINE",
"10 -53 LINE SMOOTH",
"6 -76 OFFCURVE",
"-7 -84 OFFCURVE",
"-29 -84 CURVE SMOOTH",
"-33 -84 OFFCURVE",
"-42 -84 OFFCURVE",
"-58 -80 CURVE",
"-66 -197 LINE",
"-38 -208 OFFCURVE",
"-11 -215 OFFCURVE",
"20 -215 CURVE SMOOTH"
);
}
);
width = 576;
},
{
layerId = m003;
paths = (
{
closed = 1;
nodes = (
"124 0 LINE",
"158 240 LINE SMOOTH",
"170 322 OFFCURVE",
"201 428 OFFCURVE",
"315 428 CURVE SMOOTH",
"390 428 OFFCURVE",
"408 382 OFFCURVE",
"408 335 CURVE SMOOTH",
"408 324 OFFCURVE",
"407 313 OFFCURVE",
"406 303 CURVE SMOOTH",
"363 0 LINE",
"448 0 LINE",
"494 326 LINE SMOOTH",
"496 340 OFFCURVE",
"497 351 OFFCURVE",
"497 360 CURVE SMOOTH",
"497 450 OFFCURVE",
"438 501 OFFCURVE",
"341 501 CURVE SMOOTH",
"265 501 OFFCURVE",
"198 467 OFFCURVE",
"162 389 CURVE",
"177 369 LINE",
"194 493 LINE",
"109 493 LINE",
"40 0 LINE"
);
},
{
closed = 1;
nodes = (
"53 -212 OFFCURVE",
"99 -182 OFFCURVE",
"111 -97 CURVE SMOOTH",
"124 0 LINE",
"40 0 LINE",
"28 -81 LINE SMOOTH",
"23 -119 OFFCURVE",
"5 -139 OFFCURVE",
"-28 -139 CURVE SMOOTH",
"-34 -139 OFFCURVE",
"-50 -137 OFFCURVE",
"-67 -131 CURVE",
"-72 -198 LINE",
"-48 -207 OFFCURVE",
"-25 -212 OFFCURVE",
"-1 -212 CURVE SMOOTH"
);
}
);
width = 549;
}
);
leftKerningGroup = m;
rightKerningGroup = h;
rightMetricsKey = h;
unicode = 0272;
},
{
color = 1;
glyphname = o;
lastChange = "2021-11-14 10:14:53 +0000";
layers = (
{
anchors = (
{
name = bottom;
position = "{257, 0}";
},
{
name = center;
position = "{292, 247}";
},
{
name = ogonek;
position = "{307, 0}";
},
{
name = top;
position = "{327, 493}";
},
{
name = topright;
position = "{515, 493}";
}
);
layerId = "F91D9E91-C1BC-4259-B0D8-112C0CBA2B8E";
paths = (
{
closed = 1;
nodes = (
"418 -5 OFFCURVE",
"521 139 OFFCURVE",
"521 292 CURVE SMOOTH",
"521 415 OFFCURVE",
"446 498 OFFCURVE",
"327 498 CURVE SMOOTH",
"167 498 OFFCURVE",
"63 356 OFFCURVE",
"63 201 CURVE SMOOTH",
"63 78 OFFCURVE",
"138 -5 OFFCURVE",
"258 -5 CURVE SMOOTH"
);
},
{
closed = 1;
nodes = (
"150 13 OFFCURVE",
"83 88 OFFCURVE",
"83 202 CURVE SMOOTH",
"83 346 OFFCURVE",
"178 480 OFFCURVE",
"325 480 CURVE SMOOTH",
"434 480 OFFCURVE",
"501 405 OFFCURVE",
"501 292 CURVE SMOOTH",
"501 147 OFFCURVE",
"405 13 OFFCURVE",
"259 13 CURVE SMOOTH"
);
}
);
width = 584;
},
{
anchors = (
{
name = bottom;
position = "{250, 0}";
},
{
name = center;
position = "{285, 247}";
},
{
name = ogonek;
position = "{326, 0}";
},
{
name = top;
position = "{319, 493}";
},
{
name = topright;
position = "{467, 493}";
}
);
layerId = "957254E3-B7AD-4837-9092-D4428001DE8E";
paths = (
{
closed = 1;
nodes = (
"414 -11 OFFCURVE",
"539 121 OFFCURVE",
"539 279 CURVE SMOOTH",
"539 413 OFFCURVE",
"449 504 OFFCURVE",
"314 504 CURVE SMOOTH",
"152 504 OFFCURVE",
"29 373 OFFCURVE",
"29 216 CURVE SMOOTH",
"29 81 OFFCURVE",
"120 -11 OFFCURVE",
"254 -11 CURVE SMOOTH"
);
},
{
closed = 1;
nodes = (
"206 121 OFFCURVE",
"179 172 OFFCURVE",
"179 227 CURVE SMOOTH",
"179 296 OFFCURVE",
"221 372 OFFCURVE",
"301 372 CURVE SMOOTH",
"363 372 OFFCURVE",
"389 323 OFFCURVE",
"389 268 CURVE SMOOTH",
"389 199 OFFCURVE",
"346 121 OFFCURVE",
"268 121 CURVE SMOOTH"
);
}
);
width = 569;
},
{
anchors = (
{
name = bottom;
position = "{253, 0}";
},
{
name = center;
position = "{288, 247}";
},
{
name = ogonek;
position = "{316, 0}";
},
{
name = top;
position = "{322, 493}";
},
{
name = topright;
position = "{461, 493}";
}
);
layerId = m003;
paths = (
{
closed = 1;
nodes = (
"415 -8 OFFCURVE",
"529 129 OFFCURVE",
"529 287 CURVE SMOOTH",
"529 414 OFFCURVE",
"446 501 OFFCURVE",
"319 501 CURVE SMOOTH",
"157 501 OFFCURVE",
"45 362 OFFCURVE",
"45 208 CURVE SMOOTH",
"45 80 OFFCURVE",
"129 -8 OFFCURVE",
"256 -8 CURVE SMOOTH"
);
},
{
closed = 1;
nodes = (
"176 67 OFFCURVE",
"128 120 OFFCURVE",
"128 205 CURVE SMOOTH",
"128 311 OFFCURVE",
"193 427 OFFCURVE",
"317 427 CURVE SMOOTH",
"398 427 OFFCURVE",
"446 374 OFFCURVE",
"446 289 CURVE SMOOTH",
"446 178 OFFCURVE",
"377 67 OFFCURVE",
"258 67 CURVE SMOOTH"
);
}
);
width = 576;
}
);
leftKerningGroup = c;
note = o;
rightKerningGroup = o;
unicode = 006F;
},
{
color = 1;
glyphname = p;
lastChange = "2021-11-14 10:14:53 +0000";
layers = (
{
anchors = (
{
name = bottom;
position = "{37, -204}";
},
{
name = bottomleft;
position = "{-53, 0}";
},
{
name = center;
position = "{86, -115}";
},
{
name = top;
position = "{331, 493}";
}
);
guideLines = (
{
position = "{223, -204}";
}
);
layerId = "F91D9E91-C1BC-4259-B0D8-112C0CBA2B8E";
paths = (
{
closed = 1;
nodes = (
"47 -204 LINE",
"98 169 LINE",
"94 165 LINE",
"106 65 OFFCURVE",
"177 -5 OFFCURVE",
"281 -5 CURVE SMOOTH",
"429 -5 OFFCURVE",
"544 135 OFFCURVE",
"544 287 CURVE SMOOTH",
"544 410 OFFCURVE",
"466 498 OFFCURVE",
"350 498 CURVE SMOOTH",
"247 498 OFFCURVE",
"157 430 OFFCURVE",
"116 327 CURVE",
"121 323 LINE",
"145 493 LINE",
"125 493 LINE",
"27 -204 LINE"
);
},
{
closed = 1;
nodes = (
"176 14 OFFCURVE",
"106 92 OFFCURVE",
"106 204 CURVE SMOOTH",
"106 346 OFFCURVE",
"209 479 OFFCURVE",
"347 479 CURVE SMOOTH",
"453 479 OFFCURVE",
"524 398 OFFCURVE",
"524 286 CURVE SMOOTH",
"524 149 OFFCURVE",
"421 14 OFFCURVE",
"280 14 CURVE SMOOTH"
);
}
);
width = 607;
},
{
anchors = (
{
name = bottom;
position = "{66, -204}";
},
{
name = bottomleft;
position = "{-118, 0}";
},
{
name = center;
position = "{106, -96}";
},
{
name = top;
position = "{310, 493}";
}
);
guideLines = (
{
position = "{284, -204}";
}
);
layerId = "957254E3-B7AD-4837-9092-D4428001DE8E";
paths = (
{
closed = 1;
nodes = (
"141 -204 LINE",
"186 124 LINE",
"163 150 LINE",
"164 33 OFFCURVE",
"233 -11 OFFCURVE",
"306 -11 CURVE SMOOTH",
"451 -11 OFFCURVE",
"538 140 OFFCURVE",
"538 294 CURVE SMOOTH",
"538 418 OFFCURVE",
"477 504 OFFCURVE",
"362 504 CURVE SMOOTH",
"306 504 OFFCURVE",
"231 484 OFFCURVE",
"186 345 CURVE",
"223 371 LINE",
"229 493 LINE",
"89 493 LINE",
"-9 -204 LINE"
);
},
{
closed = 1;
nodes = (
"218 127 OFFCURVE",
"188 162 OFFCURVE",
"188 223 CURVE SMOOTH",
"188 311 OFFCURVE",
"234 366 OFFCURVE",
"303 366 CURVE SMOOTH",
"356 366 OFFCURVE",
"386 332 OFFCURVE",
"386 270 CURVE SMOOTH",
"386 181 OFFCURVE",
"340 127 OFFCURVE",
"271 127 CURVE SMOOTH"
);
}
);
width = 570;
},
{
anchors = (
{
name = bottom;
position = "{51, -204}";
},
{
name = bottomleft;
position = "{-85, 0}";
},
{
name = center;
position = "{98, -115}";
},
{
name = top;
position = "{328, 493}";
}
);
guideLines = (
{
position = "{240, -204}";
}
);
layerId = m003;
paths = (
{
closed = 1;
nodes = (
"93 -204 LINE",
"141 147 LINE",
"115 126 LINE",
"126 49 OFFCURVE",
"187 -8 OFFCURVE",
"283 -8 CURVE SMOOTH",
"435 -8 OFFCURVE",
"540 133 OFFCURVE",
"540 288 CURVE SMOOTH",
"540 412 OFFCURVE",
"466 501 OFFCURVE",
"345 501 CURVE SMOOTH",
"253 501 OFFCURVE",
"183 453 OFFCURVE",
"145 367 CURVE",
"171 346 LINE",
"191 493 LINE",
"107 493 LINE",
"9 -204 LINE"
);
},
{
closed = 1;
nodes = (
"194 69 OFFCURVE",
"146 125 OFFCURVE",
"146 208 CURVE SMOOTH",
"146 314 OFFCURVE",
"216 423 OFFCURVE",
"329 423 CURVE SMOOTH",
"407 423 OFFCURVE",
"456 367 OFFCURVE",
"456 283 CURVE SMOOTH",
"456 175 OFFCURVE",
"382 69 OFFCURVE",
"270 69 CURVE SMOOTH"
);
}
);
width = 587;
}
);
leftKerningGroup = m;
note = p;
rightKerningGroup = p;
unicode = 0070;
},
{
color = 1;
glyphname = thorn;
lastChange = "2021-11-14 10:14:53 +0000";
layers = (
{
anchors = (
{
name = bottom;
position = "{284, 0}";
},
{
name = top;
position = "{354, 493}";
}
);
guideLines = (
{
position = "{414, -204}";
}
);
layerId = "F91D9E91-C1BC-4259-B0D8-112C0CBA2B8E";
paths = (
{
closed = 1;
nodes = (
"78 -204 LINE",
"129 169 LINE",
"126 165 LINE",
"138 64 OFFCURVE",
"212 -5 OFFCURVE",
"314 -5 CURVE SMOOTH",
"468 -5 OFFCURVE",
"558 150 OFFCURVE",
"558 296 CURVE SMOOTH",
"558 413 OFFCURVE",
"496 498 OFFCURVE",
"383 498 CURVE SMOOTH",
"282 498 OFFCURVE",
"189 430 OFFCURVE",
"149 327 CURVE",
"152 324 LINE",
"204 697 LINE",
"184 697 LINE",
"58 -204 LINE"
);
},
{
closed = 1;
nodes = (
"206 13 OFFCURVE",
"137 93 OFFCURVE",
"137 203 CURVE SMOOTH",
"137 345 OFFCURVE",
"239 480 OFFCURVE",
"379 480 CURVE SMOOTH",
"482 480 OFFCURVE",
"538 404 OFFCURVE",
"538 296 CURVE SMOOTH",
"538 161 OFFCURVE",
"458 13 OFFCURVE",
"312 13 CURVE SMOOTH"
);
}
);
width = 637;
},
{
anchors = (
{
name = bottom;
position = "{263, 0}";
},
{
name = top;
position = "{333, 493}";
}
);
guideLines = (
{
position = "{317, -204}";
}
);
layerId = "957254E3-B7AD-4837-9092-D4428001DE8E";
paths = (
{
closed = 1;
nodes = (
"167 -204 LINE",
"211 124 LINE",
"181 86 LINE",
"190 31 OFFCURVE",
"261 -11 OFFCURVE",
"331 -11 CURVE SMOOTH",
"476 -11 OFFCURVE",
"563 139 OFFCURVE",
"563 295 CURVE SMOOTH",
"563 416 OFFCURVE",
"505 504 OFFCURVE",
"387 504 CURVE SMOOTH",
"331 504 OFFCURVE",
"255 483 OFFCURVE",
"221 409 CURVE",
"249 371 LINE",
"293 697 LINE",
"142 697 LINE",
"16 -204 LINE"
);
},
{
closed = 1;
nodes = (
"232 120 OFFCURVE",
"213 156 OFFCURVE",
"213 205 CURVE SMOOTH",
"213 291 OFFCURVE",
"256 372 OFFCURVE",
"342 372 CURVE SMOOTH",
"392 372 OFFCURVE",
"415 339 OFFCURVE",
"415 280 CURVE SMOOTH",
"415 231 OFFCURVE",
"390 120 OFFCURVE",
"291 120 CURVE SMOOTH"
);
}
);
width = 601;
},
{
anchors = (
{
name = bottom;
position = "{277, 0}";
},
{
name = top;
position = "{347, 493}";
}
);
guideLines = (
{
position = "{279, -204}";
}
);
layerId = m003;
paths = (
{
closed = 1;
nodes = (
"125 -204 LINE",
"174 147 LINE",
"157 126 LINE",
"168 47 OFFCURVE",
"241 -8 OFFCURVE",
"326 -8 CURVE SMOOTH",
"476 -8 OFFCURVE",
"564 145 OFFCURVE",
"564 294 CURVE SMOOTH",
"564 414 OFFCURVE",
"504 501 OFFCURVE",
"389 501 CURVE SMOOTH",
"309 501 OFFCURVE",
"226 456 OFFCURVE",
"188 368 CURVE",
"203 347 LINE",
"252 697 LINE",
"167 697 LINE",
"41 -204 LINE"
);
},
{
closed = 1;
nodes = (
"222 66 OFFCURVE",
"177 125 OFFCURVE",
"177 206 CURVE SMOOTH",
"177 310 OFFCURVE",
"244 427 OFFCURVE",
"365 427 CURVE SMOOTH",
"444 427 OFFCURVE",
"480 377 OFFCURVE",
"480 296 CURVE SMOOTH",
"480 185 OFFCURVE",
"426 66 OFFCURVE",
"305 66 CURVE SMOOTH"
);
}
);
width = 627;
}
);
leftKerningGroup = b;
note = thorn;
rightKerningGroup = o;
unicode = 00FE;
},
{
color = 1;
glyphname = q;
lastChange = "2021-11-14 10:14:53 +0000";
layers = (
{
anchors = (
{
name = bottom;
position = "{443, -204}";
},
{
name = bottomright;
position = "{589, 0}";
},
{
name = center;
position = "{419, -115}";
},
{
name = top;
position = "{345, 493}";
}
);
guideLines = (
{
position = "{239, -204}";
}
);
layerId = "F91D9E91-C1BC-4259-B0D8-112C0CBA2B8E";
paths = (
{
closed = 1;
nodes = (
"453 -204 LINE",
"551 493 LINE",
"531 493 LINE",
"507 323 LINE",
"512 327 LINE",
"500 429 OFFCURVE",
"429 498 OFFCURVE",
"325 498 CURVE SMOOTH",
"176 498 OFFCURVE",
"62 355 OFFCURVE",
"62 205 CURVE SMOOTH",
"62 82 OFFCURVE",
"142 -5 OFFCURVE",
"256 -5 CURVE SMOOTH",
"359 -5 OFFCURVE",
"450 64 OFFCURVE",
"489 164 CURVE",
"485 169 LINE",
"433 -204 LINE"
);
},
{
closed = 1;
nodes = (
"153 14 OFFCURVE",
"82 94 OFFCURVE",
"82 206 CURVE SMOOTH",
"82 344 OFFCURVE",
"187 479 OFFCURVE",
"326 479 CURVE SMOOTH",
"430 479 OFFCURVE",
"500 399 OFFCURVE",
"500 287 CURVE SMOOTH",
"500 148 OFFCURVE",
"398 14 OFFCURVE",
"259 14 CURVE SMOOTH"
);
}
);
width = 606;
},
{
anchors = (
{
name = bottom;
position = "{378, -204}";
},
{
name = bottomright;
position = "{618, 0}";
},
{
name = center;
position = "{368, -96}";
},
{
name = top;
position = "{330, 493}";
}
);
guideLines = (
{
position = "{304, -204}";
}
);
layerId = "957254E3-B7AD-4837-9092-D4428001DE8E";
paths = (
{
closed = 1;
nodes = (
"453 -204 LINE",
"551 493 LINE",
"411 493 LINE",
"385 371 LINE",
"410 337 LINE",
"403 476 OFFCURVE",
"328 504 OFFCURVE",
"264 504 CURVE SMOOTH",
"112 504 OFFCURVE",
"32 347 OFFCURVE",
"32 197 CURVE SMOOTH",
"32 63 OFFCURVE",
"107 -11 OFFCURVE",
"208 -11 CURVE SMOOTH",
"273 -11 OFFCURVE",
"346 25 OFFCURVE",
"379 142 CURVE",
"348 124 LINE",
"303 -204 LINE"
);
},
{
closed = 1;
nodes = (
"214 127 OFFCURVE",
"184 161 OFFCURVE",
"184 222 CURVE SMOOTH",
"184 312 OFFCURVE",
"230 366 OFFCURVE",
"299 366 CURVE SMOOTH",
"352 366 OFFCURVE",
"382 331 OFFCURVE",
"382 270 CURVE SMOOTH",
"382 182 OFFCURVE",
"336 127 OFFCURVE",
"267 127 CURVE SMOOTH"
);
}
);
width = 570;
},
{
anchors = (
{
name = bottom;
position = "{410, -204}";
},
{
name = bottomright;
position = "{602, 0}";
},
{
name = center;
position = "{387, -115}";
},
{
name = top;
position = "{328, 493}";
}
);
guideLines = (
{
position = "{256, -204}";
}
);
layerId = m003;
paths = (
{
closed = 1;
nodes = (
"452 -204 LINE",
"550 493 LINE",
"466 493 LINE",
"446 346 LINE",
"474 363 LINE",
"460 449 OFFCURVE",
"400 501 OFFCURVE",
"304 501 CURVE SMOOTH",
"147 501 OFFCURVE",
"46 350 OFFCURVE",
"46 203 CURVE SMOOTH",
"46 73 OFFCURVE",
"129 -8 OFFCURVE",
"242 -8 CURVE SMOOTH",
"334 -8 OFFCURVE",
"406 45 OFFCURVE",
"438 122 CURVE",
"416 147 LINE",
"368 -204 LINE"
);
},
{
closed = 1;
nodes = (
"180 69 OFFCURVE",
"131 125 OFFCURVE",
"131 209 CURVE SMOOTH",
"131 316 OFFCURVE",
"204 423 OFFCURVE",
"316 423 CURVE SMOOTH",
"393 423 OFFCURVE",
"441 367 OFFCURVE",
"441 284 CURVE SMOOTH",
"441 176 OFFCURVE",
"370 69 OFFCURVE",
"257 69 CURVE SMOOTH"
);
}
);
width = 587;
}
);
leftKerningGroup = c;
note = q;
rightKerningGroup = i;
unicode = 0071;
},
{
color = 1;
glyphname = r;
lastChange = "2021-11-14 10:14:53 +0000";
layers = (
{
anchors = (
{
name = bottom;
position = "{143, 0}";
},
{
name = top;
position = "{213, 493}";
}
);
layerId = "F91D9E91-C1BC-4259-B0D8-112C0CBA2B8E";
paths = (
{
closed = 1;
nodes = (
"73 0 LINE",
"115 303 LINE SMOOTH",
"126 383 OFFCURVE",
"199 479 OFFCURVE",
"307 479 CURVE SMOOTH",
"327 479 OFFCURVE",
"349 474 OFFCURVE",
"364 467 CURVE",
"376 485 LINE",
"357 494 OFFCURVE",
"333 498 OFFCURVE",
"311 498 CURVE SMOOTH",
"247 498 OFFCURVE",
"159 460 OFFCURVE",
"121 365 CURVE",
"125 364 LINE",
"143 493 LINE",
"123 493 LINE",
"53 0 LINE"
);
}
);
width = 376;
},
{
anchors = (
{
name = bottom;
position = "{165, 0}";
},
{
name = top;
position = "{235, 493}";
}
);
layerId = "957254E3-B7AD-4837-9092-D4428001DE8E";
paths = (
{
closed = 1;
nodes = (
"170 0 LINE",
"198 195 LINE SMOOTH",
"210 278 OFFCURVE",
"237 354 OFFCURVE",
"316 354 CURVE SMOOTH",
"336 354 OFFCURVE",
"361 347 OFFCURVE",
"373 338 CURVE",
"458 470 LINE",
"425 493 OFFCURVE",
"396 504 OFFCURVE",
"358 504 CURVE SMOOTH",
"291 504 OFFCURVE",
"218 446 OFFCURVE",
"204 362 CURVE",
"222 358 LINE",
"231 493 LINE",
"89 493 LINE",
"19 0 LINE"
);
}
);
width = 439;
},
{
anchors = (
{
name = bottom;
position = "{154, 0}";
},
{
name = top;
position = "{223, 493}";
}
);
layerId = m003;
paths = (
{
closed = 1;
nodes = (
"121 0 LINE",
"153 228 LINE SMOOTH",
"168 332 OFFCURVE",
"208 417 OFFCURVE",
"312 417 CURVE SMOOTH",
"330 417 OFFCURVE",
"353 412 OFFCURVE",
"368 404 CURVE",
"417 477 LINE",
"389 494 OFFCURVE",
"363 501 OFFCURVE",
"334 501 CURVE SMOOTH",
"266 501 OFFCURVE",
"173 451 OFFCURVE",
"147 363 CURVE",
"172 361 LINE",
"191 493 LINE",
"106 493 LINE",
"36 0 LINE"
);
}
);
width = 406;
}
);
leftKerningGroup = m;
note = r;
rightKerningGroup = r;
unicode = 0072;
},
{
color = 1;
glyphname = s;
lastChange = "2021-11-14 10:14:53 +0000";
layers = (
{
anchors = (
{
name = bottom;
position = "{191, 0}";
},
{
name = top;
position = "{261, 493}";
}
);
layerId = "F91D9E91-C1BC-4259-B0D8-112C0CBA2B8E";
paths = (
{
closed = 1;
nodes = (
"313 -5 OFFCURVE",
"387 56 OFFCURVE",
"387 150 CURVE SMOOTH",
"387 235 OFFCURVE",
"306 255 OFFCURVE",
"230 273 CURVE SMOOTH",
"162 290 OFFCURVE",
"111 307 OFFCURVE",
"111 363 CURVE SMOOTH",
"111 431 OFFCURVE",
"174 481 OFFCURVE",
"257 481 CURVE SMOOTH",
"321 481 OFFCURVE",
"368 453 OFFCURVE",
"390 392 CURVE",
"406 400 LINE",
"385 465 OFFCURVE",
"328 498 OFFCURVE",
"258 498 CURVE SMOOTH",
"162 498 OFFCURVE",
"92 440 OFFCURVE",
"92 362 CURVE SMOOTH",
"92 295 OFFCURVE",
"150 274 OFFCURVE",
"224 255 CURVE SMOOTH",
"295 237 OFFCURVE",
"366 220 OFFCURVE",
"366 147 CURVE SMOOTH",
"366 62 OFFCURVE",
"295 13 OFFCURVE",
"206 13 CURVE SMOOTH",
"119 13 OFFCURVE",
"59 57 OFFCURVE",
"44 124 CURVE",
"28 114 LINE",
"45 40 OFFCURVE",
"113 -5 OFFCURVE",
"205 -5 CURVE SMOOTH"
);
}
);
width = 467;
},
{
anchors = (
{
name = bottom;
position = "{207, 0}";
},
{
name = top;
position = "{277, 493}";
}
);
layerId = "957254E3-B7AD-4837-9092-D4428001DE8E";
paths = (
{
closed = 1;
nodes = (
"346 -11 OFFCURVE",
"435 61 OFFCURVE",
"435 166 CURVE SMOOTH",
"435 268 OFFCURVE",
"345 298 OFFCURVE",
"263 319 CURVE SMOOTH",
"216 331 OFFCURVE",
"200 339 OFFCURVE",
"200 355 CURVE SMOOTH",
"200 377 OFFCURVE",
"230 388 OFFCURVE",
"260 388 CURVE SMOOTH",
"294 388 OFFCURVE",
"327 374 OFFCURVE",
"347 344 CURVE",
"448 411 LINE",
"416 468 OFFCURVE",
"351 504 OFFCURVE",
"263 504 CURVE SMOOTH",
"141 504 OFFCURVE",
"56 435 OFFCURVE",
"56 340 CURVE SMOOTH",
"56 236 OFFCURVE",
"156 209 OFFCURVE",
"217 190 CURVE SMOOTH",
"252 179 OFFCURVE",
"285 169 OFFCURVE",
"285 143 CURVE SMOOTH",
"285 122 OFFCURVE",
"265 104 OFFCURVE",
"220 104 CURVE SMOOTH",
"177 104 OFFCURVE",
"133 130 OFFCURVE",
"105 171 CURVE",
"-2 89 LINE",
"30 53 OFFCURVE",
"94 -11 OFFCURVE",
"213 -11 CURVE SMOOTH"
);
}
);
width = 478;
},
{
anchors = (
{
name = bottom;
position = "{202, 0}";
},
{
name = top;
position = "{272, 493}";
}
);
layerId = m003;
paths = (
{
closed = 1;
nodes = (
"328 -8 OFFCURVE",
"414 61 OFFCURVE",
"414 164 CURVE SMOOTH",
"414 257 OFFCURVE",
"326 279 OFFCURVE",
"249 298 CURVE SMOOTH",
"184 314 OFFCURVE",
"156 328 OFFCURVE",
"156 360 CURVE SMOOTH",
"156 405 OFFCURVE",
"204 433 OFFCURVE",
"262 433 CURVE SMOOTH",
"312 433 OFFCURVE",
"353 415 OFFCURVE",
"373 369 CURVE",
"430 405 LINE",
"403 467 OFFCURVE",
"341 501 OFFCURVE",
"265 501 CURVE SMOOTH",
"155 501 OFFCURVE",
"77 438 OFFCURVE",
"77 349 CURVE SMOOTH",
"77 269 OFFCURVE",
"151 245 OFFCURVE",
"221 226 CURVE SMOOTH",
"292 207 OFFCURVE",
"330 192 OFFCURVE",
"330 150 CURVE SMOOTH",
"330 97 OFFCURVE",
"275 63 OFFCURVE",
"210 63 CURVE SMOOTH",
"143 63 OFFCURVE",
"98 96 OFFCURVE",
"80 147 CURVE",
"16 102 LINE",
"42 45 OFFCURVE",
"105 -8 OFFCURVE",
"209 -8 CURVE SMOOTH"
);
}
);
width = 475;
}
);
leftKerningGroup = s;
note = s;
rightKerningGroup = s;
unicode = 0073;
},
{
color = 1;
glyphname = germandbls;
lastChange = "2021-11-14 10:14:53 +0000";
layers = (
{
layerId = "F91D9E91-C1BC-4259-B0D8-112C0CBA2B8E";
paths = (
{
closed = 1;
nodes = (
"465 -5 OFFCURVE",
"541 52 OFFCURVE",
"541 149 CURVE SMOOTH",
"541 231 OFFCURVE",
"469 252 OFFCURVE",
"386 270 CURVE SMOOTH",
"318 285 OFFCURVE",
"255 300 OFFCURVE",
"255 364 CURVE SMOOTH",
"255 438 OFFCURVE",
"303 466 OFFCURVE",
"391 487 CURVE SMOOTH",
"468 505 OFFCURVE",
"514 527 OFFCURVE",
"514 593 CURVE SMOOTH",
"514 657 OFFCURVE",
"448 702 OFFCURVE",
"358 702 CURVE SMOOTH",
"183 702 OFFCURVE",
"138 597 OFFCURVE",
"123 489 CURVE SMOOTH",
"54 0 LINE",
"74 0 LINE",
"144 488 LINE SMOOTH",
"156 579 OFFCURVE",
"190 683 OFFCURVE",
"359 683 CURVE SMOOTH",
"434 683 OFFCURVE",
"495 645 OFFCURVE",
"495 591 CURVE SMOOTH",
"495 535 OFFCURVE",
"443 518 OFFCURVE",
"383 504 CURVE SMOOTH",
"286 481 OFFCURVE",
"236 447 OFFCURVE",
"236 364 CURVE SMOOTH",
"236 287 OFFCURVE",
"309 269 OFFCURVE",
"380 253 CURVE SMOOTH",
"457 236 OFFCURVE",
"521 218 OFFCURVE",
"521 149 CURVE SMOOTH",
"521 65 OFFCURVE",
"456 13 OFFCURVE",
"360 13 CURVE SMOOTH",
"275 13 OFFCURVE",
"214 59 OFFCURVE",
"201 124 CURVE",
"183 117 LINE",
"197 45 OFFCURVE",
"266 -5 OFFCURVE",
"359 -5 CURVE SMOOTH"
);
}
);
width = 609;
},
{
layerId = "957254E3-B7AD-4837-9092-D4428001DE8E";
paths = (
{
closed = 1;
nodes = (
"523 -11 OFFCURVE",
"625 52 OFFCURVE",
"625 171 CURVE SMOOTH",
"625 280 OFFCURVE",
"520 310 OFFCURVE",
"462 321 CURVE SMOOTH",
"435 326 OFFCURVE",
"422 330 OFFCURVE",
"422 337 CURVE SMOOTH",
"422 345 OFFCURVE",
"430 349 OFFCURVE",
"469 364 CURVE SMOOTH",
"531 388 OFFCURVE",
"635 433 OFFCURVE",
"635 556 CURVE SMOOTH",
"635 658 OFFCURVE",
"542 707 OFFCURVE",
"401 707 CURVE SMOOTH",
"169 707 OFFCURVE",
"100 575 OFFCURVE",
"80 431 CURVE SMOOTH",
"19 0 LINE",
"176 0 LINE",
"236 423 LINE SMOOTH",
"243 473 OFFCURVE",
"255 566 OFFCURVE",
"409 566 CURVE SMOOTH",
"444 566 OFFCURVE",
"486 559 OFFCURVE",
"486 531 CURVE SMOOTH",
"486 515 OFFCURVE",
"474 501 OFFCURVE",
"421 481 CURVE SMOOTH",
"319 443 OFFCURVE",
"275 396 OFFCURVE",
"275 328 CURVE SMOOTH",
"275 239 OFFCURVE",
"354 215 OFFCURVE",
"413 197 CURVE SMOOTH",
"448 186 OFFCURVE",
"475 176 OFFCURVE",
"475 153 CURVE SMOOTH",
"475 134 OFFCURVE",
"457 114 OFFCURVE",
"419 114 CURVE SMOOTH",
"354 114 OFFCURVE",
"340 154 OFFCURVE",
"333 181 CURVE",
"209 136 LINE",
"222 60 OFFCURVE",
"295 -11 OFFCURVE",
"417 -11 CURVE SMOOTH"
);
}
);
width = 663;
},
{
layerId = m003;
paths = (
{
closed = 1;
nodes = (
"483 -8 OFFCURVE",
"583 48 OFFCURVE",
"583 155 CURVE SMOOTH",
"583 255 OFFCURVE",
"500 276 OFFCURVE",
"431 294 CURVE SMOOTH",
"378 307 OFFCURVE",
"338 312 OFFCURVE",
"338 357 CURVE SMOOTH",
"338 398 OFFCURVE",
"388 414 OFFCURVE",
"436 431 CURVE SMOOTH",
"501 454 OFFCURVE",
"574 480 OFFCURVE",
"574 575 CURVE SMOOTH",
"574 657 OFFCURVE",
"495 705 OFFCURVE",
"379 705 CURVE SMOOTH",
"175 705 OFFCURVE",
"119 583 OFFCURVE",
"102 461 CURVE SMOOTH",
"37 0 LINE",
"125 0 LINE",
"189 456 LINE SMOOTH",
"197 515 OFFCURVE",
"216 626 OFFCURVE",
"384 626 CURVE SMOOTH",
"441 626 OFFCURVE",
"490 603 OFFCURVE",
"490 562 CURVE SMOOTH",
"490 525 OFFCURVE",
"445 512 OFFCURVE",
"400 498 CURVE SMOOTH",
"313 471 OFFCURVE",
"255 433 OFFCURVE",
"255 354 CURVE SMOOTH",
"255 265 OFFCURVE",
"328 245 OFFCURVE",
"395 226 CURVE SMOOTH",
"449 211 OFFCURVE",
"499 197 OFFCURVE",
"499 152 CURVE SMOOTH",
"499 100 OFFCURVE",
"447 63 OFFCURVE",
"383 63 CURVE SMOOTH",
"314 63 OFFCURVE",
"278 101 OFFCURVE",
"266 152 CURVE",
"196 126 LINE",
"210 51 OFFCURVE",
"283 -8 OFFCURVE",
"383 -8 CURVE SMOOTH"
);
}
);
width = 634;
}
);
leftKerningGroup = germandbls;
rightKerningGroup = germandbls;
unicode = 00DF;
},
{
color = 1;
glyphname = t;
lastChange = "2021-11-14 10:14:53 +0000";
layers = (
{
anchors = (
{
name = bottom;
position = "{177, 0}";
},
{
name = center;
position = "{182, 247}";
},
{
name = top;
position = "{226, 493}";
},
{
name = topright;
position = "{372, 571}";
}
);
layerId = "F91D9E91-C1BC-4259-B0D8-112C0CBA2B8E";
paths = (
{
closed = 1;
nodes = (
"229 -5 OFFCURVE",
"247 -3 OFFCURVE",
"267 4 CURVE",
"270 23 LINE",
"249 14 OFFCURVE",
"232 13 OFFCURVE",
"216 13 CURVE SMOOTH",
"171 13 OFFCURVE",
"153 34 OFFCURVE",
"153 73 CURVE SMOOTH",
"153 80 OFFCURVE",
"154 90 OFFCURVE",
"155 97 CURVE SMOOTH",
"235 668 LINE",
"213 653 LINE",
"135 95 LINE SMOOTH",
"134 86 OFFCURVE",
"133 77 OFFCURVE",
"133 69 CURVE SMOOTH",
"133 21 OFFCURVE",
"155 -5 OFFCURVE",
"212 -5 CURVE SMOOTH"
);
},
{
closed = 1;
nodes = (
"333 476 LINE",
"336 493 LINE",
"69 493 LINE",
"66 476 LINE"
);
}
);
width = 345;
},
{
anchors = (
{
name = bottom;
position = "{211, 0}";
},
{
name = center;
position = "{200, 248}";
},
{
name = top;
position = "{247, 493}";
},
{
name = topright;
position = "{430, 562}";
}
);
background = {
paths = (
{
closed = 1;
nodes = (
"306 -11 OFFCURVE",
"335 -6 OFFCURVE",
"364 5 CURVE",
"364 120 LINE",
"340 114 OFFCURVE",
"324 111 OFFCURVE",
"311 111 CURVE SMOOTH",
"274 111 OFFCURVE",
"261 136 OFFCURVE",
"261 211 CURVE SMOOTH",
"261 677 LINE",
"109 596 LINE",
"109 157 LINE SMOOTH",
"109 31 OFFCURVE",
"189 -11 OFFCURVE",
"274 -11 CURVE SMOOTH"
);
},
{
closed = 1;
nodes = (
"364 376 LINE",
"364 493 LINE",
"47 493 LINE",
"47 376 LINE"
);
}
);
};
layerId = "957254E3-B7AD-4837-9092-D4428001DE8E";
paths = (
{
closed = 1;
nodes = (
"266 -11 OFFCURVE",
"294 -8 OFFCURVE",
"323 2 CURVE",
"340 122 LINE",
"319 116 OFFCURVE",
"303 112 OFFCURVE",
"284 112 CURVE SMOOTH",
"253 112 OFFCURVE",
"243 125 OFFCURVE",
"243 151 CURVE SMOOTH",
"243 166 OFFCURVE",
"245 182 OFFCURVE",
"247 196 CURVE SMOOTH",
"314 677 LINE",
"150 596 LINE",
"92 181 LINE SMOOTH",
"88 152 OFFCURVE",
"87 139 OFFCURVE",
"87 126 CURVE SMOOTH",
"87 26 OFFCURVE",
"159 -11 OFFCURVE",
"239 -11 CURVE SMOOTH"
);
},
{
closed = 1;
nodes = (
"376 376 LINE",
"392 493 LINE",
"55 493 LINE",
"38 376 LINE"
);
}
);
width = 391;
},
{
anchors = (
{
name = bottom;
position = "{174, 0}";
},
{
name = center;
position = "{180, 247}";
},
{
name = top;
position = "{232, 493}";
},
{
name = topright;
position = "{396, 567}";
}
);
layerId = m003;
paths = (
{
closed = 1;
nodes = (
"238 -8 OFFCURVE",
"264 -4 OFFCURVE",
"290 3 CURVE",
"300 73 LINE",
"277 65 OFFCURVE",
"256 62 OFFCURVE",
"240 62 CURVE SMOOTH",
"206 62 OFFCURVE",
"194 80 OFFCURVE",
"194 116 CURVE SMOOTH",
"194 127 OFFCURVE",
"195 136 OFFCURVE",
"196 146 CURVE SMOOTH",
"270 673 LINE",
"178 625 LINE",
"108 128 LINE SMOOTH",
"107 118 OFFCURVE",
"106 108 OFFCURVE",
"106 99 CURVE SMOOTH",
"106 25 OFFCURVE",
"153 -8 OFFCURVE",
"217 -8 CURVE SMOOTH"
);
},
{
closed = 1;
nodes = (
"350 427 LINE",
"359 493 LINE",
"58 493 LINE",
"48 427 LINE"
);
}
);
width = 363;
}
);
leftKerningGroup = t;
leftMetricsKey = "=f";
note = t;
rightKerningGroup = t;
unicode = 0074;
},
{
glyphname = tbar;
lastChange = "2021-11-14 10:14:53 +0000";
layers = (
{
anchors = (
{
name = bottom;
position = "{183, 17}";
},
{
name = center;
position = "{188, 230}";
},
{
name = top;
position = "{230, 493}";
},
{
name = topright;
position = "{376, 571}";
}
);
layerId = "F91D9E91-C1BC-4259-B0D8-112C0CBA2B8E";
paths = (
{
closed = 1;
nodes = (
"227 -5 OFFCURVE",
"249 -1 OFFCURVE",
"272 5 CURVE",
"274 23 LINE",
"250 16 OFFCURVE",
"232 13 OFFCURVE",
"212 13 CURVE SMOOTH",
"175 13 OFFCURVE",
"157 34 OFFCURVE",
"157 73 CURVE SMOOTH",
"157 80 OFFCURVE",
"158 89 OFFCURVE",
"159 97 CURVE SMOOTH",
"239 668 LINE",
"218 653 LINE",
"139 95 LINE SMOOTH",
"138 86 OFFCURVE",
"137 77 OFFCURVE",
"137 69 CURVE SMOOTH",
"137 21 OFFCURVE",
"160 -5 OFFCURVE",
"208 -5 CURVE SMOOTH"
);
},
{
closed = 1;
nodes = (
"304 239 LINE",
"307 255 LINE",
"40 255 LINE",
"37 239 LINE"
);
},
{
closed = 1;
nodes = (
"338 476 LINE",
"341 493 LINE",
"73 493 LINE",
"70 476 LINE"
);
}
);
width = 368;
},
{
anchors = (
{
name = bottom;
position = "{214, 0}";
},
{
name = center;
position = "{203, 248}";
},
{
name = top;
position = "{250, 493}";
},
{
name = topright;
position = "{433, 562}";
}
);
layerId = "957254E3-B7AD-4837-9092-D4428001DE8E";
paths = (
{
closed = 1;
nodes = (
"270 -11 OFFCURVE",
"299 -8 OFFCURVE",
"330 3 CURVE",
"338 121 LINE",
"319 116 OFFCURVE",
"302 112 OFFCURVE",
"285 112 CURVE SMOOTH",
"256 112 OFFCURVE",
"246 125 OFFCURVE",
"246 155 CURVE SMOOTH",
"246 163 OFFCURVE",
"247 175 OFFCURVE",
"250 196 CURVE SMOOTH",
"317 677 LINE",
"153 596 LINE",
"93 161 LINE SMOOTH",
"91 147 OFFCURVE",
"90 135 OFFCURVE",
"90 126 CURVE SMOOTH",
"90 26 OFFCURVE",
"162 -11 OFFCURVE",
"242 -11 CURVE SMOOTH"
);
},
{
closed = 1;
nodes = (
"353 198 LINE",
"367 298 LINE",
"30 298 LINE",
"16 198 LINE"
);
},
{
closed = 1;
nodes = (
"378 376 LINE",
"395 493 LINE",
"58 493 LINE",
"41 376 LINE"
);
}
);
width = 395;
},
{
anchors = (
{
name = bottom;
position = "{183, 131}";
},
{
name = center;
position = "{191, 117}";
},
{
name = top;
position = "{230, 493}";
},
{
name = topright;
position = "{394, 567}";
}
);
layerId = m003;
paths = (
{
closed = 1;
nodes = (
"237 -8 OFFCURVE",
"264 -4 OFFCURVE",
"291 4 CURVE",
"296 72 LINE",
"274 65 OFFCURVE",
"254 62 OFFCURVE",
"238 62 CURVE SMOOTH",
"204 62 OFFCURVE",
"192 80 OFFCURVE",
"192 116 CURVE SMOOTH",
"192 125 OFFCURVE",
"193 135 OFFCURVE",
"194 146 CURVE SMOOTH",
"268 673 LINE",
"176 625 LINE",
"106 128 LINE SMOOTH",
"105 118 OFFCURVE",
"104 108 OFFCURVE",
"104 99 CURVE SMOOTH",
"104 25 OFFCURVE",
"151 -8 OFFCURVE",
"215 -8 CURVE SMOOTH"
);
},
{
closed = 1;
nodes = (
"319 219 LINE",
"327 277 LINE",
"25 277 LINE",
"17 219 LINE"
);
},
{
closed = 1;
nodes = (
"348 427 LINE",
"357 493 LINE",
"56 493 LINE",
"46 427 LINE"
);
}
);
width = 368;
}
);
leftKerningGroup = t;
rightKerningGroup = t;
unicode = 0167;
},
{
color = 1;
glyphname = u;
lastChange = "2021-11-14 10:14:53 +0000";
layers = (
{
anchors = (
{
name = bottom;
position = "{226, 0}";
},
{
name = ogonek;
position = "{393, 0}";
},
{
name = top;
position = "{290, 493}";
},
{
name = topright;
position = "{431, 493}";
}
);
layerId = "F91D9E91-C1BC-4259-B0D8-112C0CBA2B8E";
paths = (
{
closed = 1;
nodes = (
"290 -5 OFFCURVE",
"359 34 OFFCURVE",
"396 133 CURVE",
"392 134 LINE",
"373 0 LINE",
"393 0 LINE",
"463 493 LINE",
"443 493 LINE",
"406 233 LINE SMOOTH",
"384 81 OFFCURVE",
"313 13 OFFCURVE",
"212 13 CURVE SMOOTH",
"133 13 OFFCURVE",
"91 55 OFFCURVE",
"91 148 CURVE SMOOTH",
"91 159 OFFCURVE",
"92 182 OFFCURVE",
"95 201 CURVE SMOOTH",
"137 493 LINE",
"117 493 LINE",
"75 196 LINE SMOOTH",
"72 175 OFFCURVE",
"71 156 OFFCURVE",
"71 143 CURVE SMOOTH",
"71 40 OFFCURVE",
"123 -5 OFFCURVE",
"211 -5 CURVE SMOOTH"
);
}
);
width = 517;
},
{
anchors = (
{
name = bottom;
position = "{255, 0}";
},
{
name = ogonek;
position = "{486, 0}";
},
{
name = top;
position = "{318, 493}";
},
{
name = topright;
position = "{526, 493}";
}
);
background = {
paths = (
{
closed = 1;
nodes = (
"269 -11 OFFCURVE",
"344 9 OFFCURVE",
"388 148 CURVE",
"352 122 LINE",
"346 0 LINE",
"486 0 LINE",
"555 493 LINE",
"416 493 LINE",
"389 369 LINE",
"412 343 LINE",
"421 460 OFFCURVE",
"352 504 OFFCURVE",
"279 504 CURVE SMOOTH",
"134 504 OFFCURVE",
"37 353 OFFCURVE",
"37 199 CURVE SMOOTH",
"37 75 OFFCURVE",
"98 -11 OFFCURVE",
"213 -11 CURVE SMOOTH"
);
},
{
closed = 1;
nodes = (
"214 127 OFFCURVE",
"188 157 OFFCURVE",
"188 210 CURVE SMOOTH",
"188 283 OFFCURVE",
"227 366 OFFCURVE",
"313 366 CURVE SMOOTH",
"362 366 OFFCURVE",
"388 336 OFFCURVE",
"388 283 CURVE SMOOTH",
"388 212 OFFCURVE",
"349 127 OFFCURVE",
"263 127 CURVE SMOOTH"
);
}
);
};
layerId = "957254E3-B7AD-4837-9092-D4428001DE8E";
paths = (
{
closed = 1;
nodes = (
"263 -11 OFFCURVE",
"321 9 OFFCURVE",
"364 87 CURVE",
"349 108 LINE",
"346 0 LINE",
"486 0 LINE",
"555 493 LINE",
"404 493 LINE",
"382 334 LINE SMOOTH",
"366 217 OFFCURVE",
"347 120 OFFCURVE",
"253 120 CURVE SMOOTH",
"202 120 OFFCURVE",
"191 145 OFFCURVE",
"191 178 CURVE SMOOTH",
"191 187 OFFCURVE",
"192 202 OFFCURVE",
"194 215 CURVE SMOOTH",
"233 493 LINE",
"82 493 LINE",
"40 192 LINE SMOOTH",
"38 177 OFFCURVE",
"37 164 OFFCURVE",
"37 149 CURVE SMOOTH",
"37 55 OFFCURVE",
"86 -11 OFFCURVE",
"204 -11 CURVE SMOOTH"
);
}
);
width = 576;
},
{
anchors = (
{
name = bottom;
position = "{240, 0}";
},
{
name = ogonek;
position = "{438, 0}";
},
{
name = top;
position = "{303, 493}";
},
{
name = topright;
position = "{467, 493}";
}
);
layerId = m003;
paths = (
{
closed = 1;
nodes = (
"285 -8 OFFCURVE",
"353 28 OFFCURVE",
"391 103 CURVE",
"370 105 LINE",
"355 0 LINE",
"439 0 LINE",
"509 493 LINE",
"424 493 LINE",
"390 250 LINE SMOOTH",
"372 124 OFFCURVE",
"316 66 OFFCURVE",
"231 66 CURVE SMOOTH",
"172 66 OFFCURVE",
"142 96 OFFCURVE",
"142 165 CURVE SMOOTH",
"142 182 OFFCURVE",
"143 193 OFFCURVE",
"145 209 CURVE SMOOTH",
"185 493 LINE",
"100 493 LINE",
"57 183 LINE SMOOTH",
"55 168 OFFCURVE",
"54 155 OFFCURVE",
"54 141 CURVE SMOOTH",
"54 44 OFFCURVE",
"110 -8 OFFCURVE",
"207 -8 CURVE SMOOTH"
);
}
);
width = 547;
}
);
leftKerningGroup = u;
note = u;
rightKerningGroup = u;
unicode = 0075;
},
{
color = 1;
glyphname = v;
lastChange = "2021-11-14 10:14:53 +0000";
layers = (
{
anchors = (
{
name = bottom;
position = "{218, 0}";
},
{
name = top;
position = "{288, 493}";
}
);
layerId = "F91D9E91-C1BC-4259-B0D8-112C0CBA2B8E";
paths = (
{
closed = 1;
nodes = (
"228 0 LINE",
"500 493 LINE",
"476 493 LINE",
"220 23 LINE",
"98 493 LINE",
"75 493 LINE",
"207 0 LINE"
);
}
);
width = 506;
},
{
anchors = (
{
name = bottom;
position = "{238, 0}";
},
{
name = top;
position = "{308, 493}";
}
);
layerId = "957254E3-B7AD-4837-9092-D4428001DE8E";
paths = (
{
closed = 1;
nodes = (
"301 0 LINE",
"570 493 LINE",
"405 493 LINE",
"263 197 LINE",
"209 493 LINE",
"46 493 LINE",
"178 0 LINE"
);
}
);
width = 544;
},
{
anchors = (
{
name = bottom;
position = "{226, 0}";
},
{
name = top;
position = "{295, 493}";
}
);
layerId = m003;
paths = (
{
closed = 1;
nodes = (
"262 0 LINE",
"532 493 LINE",
"439 493 LINE",
"239 109 LINE",
"150 493 LINE",
"58 493 LINE",
"191 0 LINE"
);
}
);
width = 521;
}
);
leftKerningGroup = v;
note = v;
rightKerningGroup = v;
unicode = 0076;
},
{
color = 1;
glyphname = w;
lastChange = "2021-11-14 10:14:53 +0000";
layers = (
{
anchors = (
{
name = bottom;
position = "{337, 0}";
},
{
name = top;
position = "{407, 493}";
}
);
layerId = "F91D9E91-C1BC-4259-B0D8-112C0CBA2B8E";
paths = (
{
closed = 1;
nodes = (
"172 0 LINE",
"404 469 LINE",
"502 0 LINE",
"527 0 LINE",
"733 493 LINE",
"711 493 LINE",
"518 28 LINE",
"420 493 LINE",
"396 493 LINE",
"165 27 LINE",
"103 493 LINE",
"81 493 LINE",
"148 0 LINE"
);
}
);
width = 744;
},
{
anchors = (
{
name = bottom;
position = "{345, 0}";
},
{
name = top;
position = "{414, 493}";
}
);
layerId = "957254E3-B7AD-4837-9092-D4428001DE8E";
paths = (
{
closed = 1;
nodes = (
"270 0 LINE",
"385 278 LINE",
"422 0 LINE",
"555 0 LINE",
"781 493 LINE",
"618 493 LINE",
"509 234 LINE",
"475 493 LINE",
"348 493 LINE",
"240 232 LINE",
"206 493 LINE",
"48 493 LINE",
"135 0 LINE"
);
}
);
width = 759;
},
{
anchors = (
{
name = bottom;
position = "{339, 0}";
},
{
name = top;
position = "{409, 493}";
}
);
layerId = m003;
paths = (
{
closed = 1;
nodes = (
"218 0 LINE",
"393 375 LINE",
"461 0 LINE",
"539 0 LINE",
"755 493 LINE",
"664 493 LINE",
"511 130 LINE",
"445 493 LINE",
"370 493 LINE",
"200 128 LINE",
"152 493 LINE",
"63 493 LINE",
"140 0 LINE"
);
}
);
width = 748;
}
);
leftKerningGroup = w;
note = w;
rightKerningGroup = w;
unicode = 0077;
},
{
color = 1;
glyphname = x;
lastChange = "2021-11-14 10:14:53 +0000";
layers = (
{
anchors = (
{
name = bottom;
position = "{212, 0}";
},
{
name = top;
position = "{282, 493}";
}
);
layerId = "F91D9E91-C1BC-4259-B0D8-112C0CBA2B8E";
paths = (
{
closed = 1;
nodes = (
"34 0 LINE",
"245 231 LINE",
"391 0 LINE",
"416 0 LINE",
"259 246 LINE",
"485 493 LINE",
"460 493 LINE",
"248 262 LINE",
"103 493 LINE",
"78 493 LINE",
"234 246 LINE",
"8 0 LINE"
);
}
);
width = 493;
},
{
anchors = (
{
name = bottom;
position = "{243, 0}";
},
{
name = top;
position = "{313, 493}";
}
);
layerId = "957254E3-B7AD-4837-9092-D4428001DE8E";
paths = (
{
closed = 1;
nodes = (
"161 0 LINE",
"268 151 LINE",
"334 0 LINE",
"505 0 LINE",
"377 249 LINE",
"577 493 LINE",
"394 493 LINE",
"289 346 LINE",
"223 493 LINE",
"51 493 LINE",
"177 249 LINE",
"-21 0 LINE"
);
}
);
width = 556;
},
{
anchors = (
{
name = bottom;
position = "{225, 0}";
},
{
name = top;
position = "{294, 493}";
}
);
layerId = m003;
paths = (
{
closed = 1;
nodes = (
"95 0 LINE",
"253 189 LINE",
"357 0 LINE",
"457 0 LINE",
"315 248 LINE",
"528 493 LINE",
"424 493 LINE",
"266 306 LINE",
"163 493 LINE",
"63 493 LINE",
"204 248 LINE",
"-9 0 LINE"
);
}
);
width = 520;
}
);
leftKerningGroup = x;
note = x;
rightKerningGroup = x;
unicode = 0078;
},
{
color = 1;
glyphname = y;
lastChange = "2021-11-14 10:14:53 +0000";
layers = (
{
anchors = (
{
name = bottom;
position = "{365, -30}";
},
{
name = top;
position = "{288, 493}";
}
);
guideLines = (
{
position = "{400, -204}";
}
);
layerId = "F91D9E91-C1BC-4259-B0D8-112C0CBA2B8E";
paths = (
{
closed = 1;
nodes = (
"117 -203 LINE",
"500 493 LINE",
"476 493 LINE",
"220 23 LINE",
"98 493 LINE",
"75 493 LINE",
"207 1 LINE",
"95 -203 LINE"
);
}
);
width = 506;
},
{
anchors = (
{
name = bottom;
position = "{398, -31}";
},
{
name = top;
position = "{308, 493}";
}
);
guideLines = (
{
position = "{314, -204}";
}
);
layerId = "957254E3-B7AD-4837-9092-D4428001DE8E";
paths = (
{
closed = 1;
nodes = (
"189 -204 LINE",
"570 493 LINE",
"405 493 LINE",
"263 197 LINE",
"209 493 LINE",
"46 493 LINE",
"164 47 LINE",
"23 -204 LINE"
);
}
);
width = 544;
},
{
anchors = (
{
name = bottom;
position = "{379, -30}";
},
{
name = top;
position = "{295, 493}";
}
);
guideLines = (
{
position = "{255, -204}";
}
);
layerId = m003;
paths = (
{
closed = 1;
nodes = (
"151 -203 LINE",
"532 493 LINE",
"439 493 LINE",
"239 109 LINE",
"150 493 LINE",
"58 493 LINE",
"184 24 LINE",
"57 -203 LINE"
);
}
);
width = 521;
}
);
leftKerningGroup = v;
leftMetricsKey = "=v";
note = y;
rightKerningGroup = v;
rightMetricsKey = "=v";
unicode = 0079;
},
{
color = 1;
glyphname = z;
lastChange = "2021-11-14 10:14:53 +0000";
layers = (
{
anchors = (
{
name = bottom;
position = "{205, 0}";
},
{
name = center;
position = "{240, 247}";
},
{
name = top;
position = "{275, 493}";
}
);
layerId = "F91D9E91-C1BC-4259-B0D8-112C0CBA2B8E";
paths = (
{
closed = 1;
nodes = (
"391 0 LINE",
"395 18 LINE",
"32 18 LINE",
"33 17 LINE",
"462 468 LINE",
"466 493 LINE",
"98 493 LINE",
"95 475 LINE",
"444 475 LINE",
"442 473 LINE",
"12 22 LINE",
"9 0 LINE"
);
}
);
width = 476;
},
{
anchors = (
{
name = bottom;
position = "{201, 0}";
},
{
name = center;
position = "{236, 247}";
},
{
name = top;
position = "{271, 493}";
}
);
layerId = "957254E3-B7AD-4837-9092-D4428001DE8E";
paths = (
{
closed = 1;
nodes = (
"399 0 LINE",
"417 126 LINE",
"159 126 LINE",
"169 76 LINE",
"454 388 LINE",
"468 493 LINE",
"77 493 LINE",
"59 367 LINE",
"311 367 LINE",
"301 409 LINE",
"11 98 LINE",
"-2 0 LINE"
);
}
);
width = 470;
},
{
anchors = (
{
name = bottom;
position = "{202, 0}";
},
{
name = center;
position = "{237, 247}";
},
{
name = top;
position = "{271, 493}";
}
);
layerId = m003;
paths = (
{
closed = 1;
nodes = (
"394 0 LINE",
"404 72 LINE",
"93 72 LINE",
"98 46 LINE",
"457 429 LINE",
"465 493 LINE",
"86 493 LINE",
"76 422 LINE",
"377 422 LINE",
"371 441 LINE",
"10 60 LINE",
"2 0 LINE"
);
}
);
width = 472;
}
);
leftKerningGroup = z;
note = z;
rightKerningGroup = z;
unicode = 007A;
},
{
color = 1;
glyphname = g.ss01;
lastChange = "2021-11-14 10:14:54 +0000";
layers = (
{
anchors = (
{
name = bottom;
position = "{205, -209}";
},
{
name = top;
position = "{302, 493}";
}
);
guideLines = (
{
position = "{405, -204}";
}
);
layerId = "F91D9E91-C1BC-4259-B0D8-112C0CBA2B8E";
paths = (
{
closed = 1;
nodes = (
"349 -209 OFFCURVE",
"440 -146 OFFCURVE",
"440 -43 CURVE SMOOTH",
"440 12 OFFCURVE",
"410 58 OFFCURVE",
"315 58 CURVE SMOOTH",
"201 58 LINE SMOOTH",
"123 58 OFFCURVE",
"89 83 OFFCURVE",
"89 120 CURVE SMOOTH",
"89 158 OFFCURVE",
"109 185 OFFCURVE",
"149 217 CURVE",
"139 232 LINE",
"94 195 OFFCURVE",
"71 163 OFFCURVE",
"71 118 CURVE SMOOTH",
"71 68 OFFCURVE",
"112 41 OFFCURVE",
"189 41 CURVE SMOOTH",
"311 41 LINE SMOOTH",
"397 41 OFFCURVE",
"420 0 OFFCURVE",
"420 -44 CURVE SMOOTH",
"420 -138 OFFCURVE",
"337 -192 OFFCURVE",
"206 -192 CURVE SMOOTH",
"105 -192 OFFCURVE",
"28 -155 OFFCURVE",
"45 -41 CURVE SMOOTH",
"46 -34 LINE",
"138 51 LINE",
"128 59 LINE",
"28 -26 LINE",
"25 -43 OFFCURVE",
"23 -59 OFFCURVE",
"23 -73 CURVE SMOOTH",
"23 -162 OFFCURVE",
"89 -209 OFFCURVE",
"206 -209 CURVE SMOOTH"
);
},
{
closed = 1;
nodes = (
"359 180 OFFCURVE",
"444 254 OFFCURVE",
"444 360 CURVE SMOOTH",
"444 443 OFFCURVE",
"384 498 OFFCURVE",
"296 498 CURVE SMOOTH",
"189 498 OFFCURVE",
"101 420 OFFCURVE",
"101 314 CURVE SMOOTH",
"101 233 OFFCURVE",
"161 180 OFFCURVE",
"253 180 CURVE SMOOTH"
);
},
{
closed = 1;
nodes = (
"171 198 OFFCURVE",
"121 246 OFFCURVE",
"121 314 CURVE SMOOTH",
"121 410 OFFCURVE",
"199 480 OFFCURVE",
"295 480 CURVE SMOOTH",
"373 480 OFFCURVE",
"424 433 OFFCURVE",
"424 361 CURVE SMOOTH",
"424 266 OFFCURVE",
"349 198 OFFCURVE",
"253 198 CURVE SMOOTH"
);
},
{
closed = 1;
nodes = (
"518 498 LINE",
"509 512 LINE",
"412 432 LINE",
"424 421 LINE"
);
}
);
width = 537;
},
{
anchors = (
{
name = bottom;
position = "{221, -205}";
},
{
name = top;
position = "{325, 493}";
}
);
guideLines = (
{
position = "{312, -204}";
}
);
layerId = "957254E3-B7AD-4837-9092-D4428001DE8E";
paths = (
{
closed = 1;
nodes = (
"382 -214 OFFCURVE",
"490 -161 OFFCURVE",
"490 -27 CURVE SMOOTH",
"490 52 OFFCURVE",
"439 93 OFFCURVE",
"338 93 CURVE SMOOTH",
"240 93 LINE SMOOTH",
"190 93 OFFCURVE",
"147 89 OFFCURVE",
"147 122 CURVE SMOOTH",
"147 144 OFFCURVE",
"165 158 OFFCURVE",
"204 174 CURVE",
"143 258 LINE",
"61 210 OFFCURVE",
"21 154 OFFCURVE",
"21 93 CURVE SMOOTH",
"21 1 OFFCURVE",
"120 -32 OFFCURVE",
"130 -32 CURVE SMOOTH",
"307 -32 LINE SMOOTH",
"331 -32 OFFCURVE",
"343 -37 OFFCURVE",
"343 -54 CURVE SMOOTH",
"343 -85 OFFCURVE",
"308 -107 OFFCURVE",
"228 -107 CURVE SMOOTH",
"155 -107 OFFCURVE",
"132 -94 OFFCURVE",
"132 -67 CURVE SMOOTH",
"132 -60 LINE",
"173 -16 LINE",
"114 36 LINE",
"6 -14 LINE",
"-5 -35 OFFCURVE",
"-9 -57 OFFCURVE",
"-9 -80 CURVE SMOOTH",
"-9 -186 OFFCURVE",
"114 -214 OFFCURVE",
"227 -214 CURVE SMOOTH"
);
},
{
closed = 1;
nodes = (
"409 127 OFFCURVE",
"506 207 OFFCURVE",
"506 329 CURVE SMOOTH",
"506 437 OFFCURVE",
"418 504 OFFCURVE",
"311 504 CURVE SMOOTH",
"193 504 OFFCURVE",
"81 421 OFFCURVE",
"81 294 CURVE SMOOTH",
"81 196 OFFCURVE",
"157 127 OFFCURVE",
"279 127 CURVE SMOOTH"
);
},
{
closed = 1;
nodes = (
"245 245 OFFCURVE",
"230 269 OFFCURVE",
"230 296 CURVE SMOOTH",
"230 334 OFFCURVE",
"259 379 OFFCURVE",
"309 379 CURVE SMOOTH",
"343 379 OFFCURVE",
"359 356 OFFCURVE",
"359 329 CURVE SMOOTH",
"359 291 OFFCURVE",
"329 245 OFFCURVE",
"280 245 CURVE SMOOTH"
);
},
{
closed = 1;
nodes = (
"581 452 LINE",
"514 545 LINE",
"382 450 LINE",
"484 381 LINE"
);
}
);
width = 572;
},
{
anchors = (
{
name = bottom;
position = "{207, -207}";
},
{
name = top;
position = "{308, 493}";
}
);
guideLines = (
{
position = "{253, -204}";
}
);
layerId = m003;
paths = (
{
closed = 1;
nodes = (
"368 -212 OFFCURVE",
"459 -150 OFFCURVE",
"459 -35 CURVE SMOOTH",
"459 31 OFFCURVE",
"419 75 OFFCURVE",
"321 75 CURVE SMOOTH",
"215 75 LINE SMOOTH",
"161 75 OFFCURVE",
"120 86 OFFCURVE",
"120 116 CURVE SMOOTH",
"120 147 OFFCURVE",
"147 172 OFFCURVE",
"173 187 CURVE",
"136 245 LINE",
"74 203 OFFCURVE",
"48 169 OFFCURVE",
"41 115 CURVE SMOOTH",
"32 42 OFFCURVE",
"106 5 OFFCURVE",
"154 5 CURVE SMOOTH",
"304 5 LINE SMOOTH",
"360 5 OFFCURVE",
"376 -18 OFFCURVE",
"376 -47 CURVE SMOOTH",
"376 -111 OFFCURVE",
"320 -147 OFFCURVE",
"212 -147 CURVE SMOOTH",
"136 -147 OFFCURVE",
"84 -126 OFFCURVE",
"84 -59 CURVE SMOOTH",
"84 -47 LINE",
"156 14 LINE",
"116 48 LINE",
"12 -20 LINE",
"8 -38 OFFCURVE",
"6 -54 OFFCURVE",
"6 -70 CURVE SMOOTH",
"6 -164 OFFCURVE",
"81 -212 OFFCURVE",
"211 -212 CURVE SMOOTH"
);
},
{
closed = 1;
nodes = (
"378 154 OFFCURVE",
"469 231 OFFCURVE",
"469 344 CURVE SMOOTH",
"469 439 OFFCURVE",
"395 501 OFFCURVE",
"298 501 CURVE SMOOTH",
"187 501 OFFCURVE",
"85 421 OFFCURVE",
"85 305 CURVE SMOOTH",
"85 216 OFFCURVE",
"153 154 OFFCURVE",
"261 154 CURVE SMOOTH"
);
},
{
closed = 1;
nodes = (
"201 221 OFFCURVE",
"170 256 OFFCURVE",
"170 304 CURVE SMOOTH",
"170 376 OFFCURVE",
"225 430 OFFCURVE",
"298 430 CURVE SMOOTH",
"352 430 OFFCURVE",
"385 398 OFFCURVE",
"385 349 CURVE SMOOTH",
"385 278 OFFCURVE",
"335 221 OFFCURVE",
"259 221 CURVE SMOOTH"
);
},
{
closed = 1;
nodes = (
"543 475 LINE",
"506 528 LINE",
"392 442 LINE",
"448 401 LINE"
);
}
);
width = 531;
}
);
leftKerningGroup = c;
leftMetricsKey = g;
note = g.ss02;
rightKerningGroup = g;
},
{
glyphname = f_f;
lastChange = "2021-11-14 10:14:54 +0000";
layers = (
{
anchors = (
{
name = caret_1;
position = "{220, 0}";
}
);
layerId = "F91D9E91-C1BC-4259-B0D8-112C0CBA2B8E";
paths = (
{
closed = 1;
nodes = (
"108 0 LINE",
"175 476 LINE",
"398 476 LINE",
"331 0 LINE",
"351 0 LINE",
"418 476 LINE",
"603 476 LINE",
"606 493 LINE",
"421 493 LINE",
"432 577 LINE SMOOTH",
"442 649 OFFCURVE",
"485 684 OFFCURVE",
"566 684 CURVE SMOOTH",
"582 684 OFFCURVE",
"599 680 OFFCURVE",
"620 670 CURVE",
"629 685 LINE",
"608 696 OFFCURVE",
"588 702 OFFCURVE",
"565 702 CURVE SMOOTH",
"522 702 OFFCURVE",
"486 693 OFFCURVE",
"460 672 CURVE",
"428 694 OFFCURVE",
"394 702 OFFCURVE",
"355 702 CURVE SMOOTH",
"258 702 OFFCURVE",
"179 640 OFFCURVE",
"166 547 CURVE SMOOTH",
"158 493 LINE",
"69 493 LINE",
"66 476 LINE",
"155 476 LINE",
"89 0 LINE"
);
},
{
closed = 1;
nodes = (
"185 547 LINE SMOOTH",
"197 629 OFFCURVE",
"265 685 OFFCURVE",
"355 685 CURVE SMOOTH",
"389 685 OFFCURVE",
"423 677 OFFCURVE",
"449 660 CURVE",
"429 639 OFFCURVE",
"418 612 OFFCURVE",
"413 578 CURVE SMOOTH",
"401 493 LINE",
"178 493 LINE"
);
}
);
width = 572;
},
{
anchors = (
{
name = caret_1;
position = "{292, 0}";
}
);
layerId = "957254E3-B7AD-4837-9092-D4428001DE8E";
paths = (
{
closed = 1;
nodes = (
"217 0 LINE",
"270 376 LINE",
"419 376 LINE",
"366 0 LINE",
"517 0 LINE",
"570 376 LINE",
"668 376 LINE",
"685 493 LINE",
"587 493 LINE",
"592 532 LINE SMOOTH",
"595 555 OFFCURVE",
"607 583 OFFCURVE",
"638 583 CURVE SMOOTH",
"647 583 OFFCURVE",
"659 579 OFFCURVE",
"670 573 CURVE",
"728 684 LINE",
"699 697 OFFCURVE",
"671 708 OFFCURVE",
"623 708 CURVE SMOOTH",
"585 708 OFFCURVE",
"545 703 OFFCURVE",
"508 677 CURVE",
"474 697 OFFCURVE",
"428 708 OFFCURVE",
"379 708 CURVE SMOOTH",
"266 708 OFFCURVE",
"155 644 OFFCURVE",
"141 526 CURVE SMOOTH",
"137 493 LINE",
"55 493 LINE",
"38 376 LINE",
"120 376 LINE",
"67 0 LINE"
);
},
{
closed = 1;
nodes = (
"290 515 LINE SMOOTH",
"295 552 OFFCURVE",
"321 587 OFFCURVE",
"385 587 CURVE SMOOTH",
"413 587 OFFCURVE",
"434 581 OFFCURVE",
"451 574 CURVE",
"449 571 OFFCURVE",
"447 564 OFFCURVE",
"446 557 CURVE SMOOTH",
"437 493 LINE",
"287 493 LINE"
);
}
);
width = 667;
},
{
anchors = (
{
name = caret_1;
position = "{252, 0}";
}
);
layerId = m003;
paths = (
{
closed = 1;
nodes = (
"158 0 LINE",
"218 427 LINE",
"404 427 LINE",
"344 0 LINE",
"429 0 LINE",
"489 427 LINE",
"631 427 LINE",
"641 493 LINE",
"499 493 LINE",
"507 554 LINE SMOOTH",
"514 604 OFFCURVE",
"542 634 OFFCURVE",
"597 634 CURVE SMOOTH",
"609 634 OFFCURVE",
"623 631 OFFCURVE",
"641 622 CURVE",
"674 684 LINE",
"647 697 OFFCURVE",
"623 705 OFFCURVE",
"589 705 CURVE SMOOTH",
"549 705 OFFCURVE",
"511 698 OFFCURVE",
"479 674 CURVE",
"447 695 OFFCURVE",
"408 705 OFFCURVE",
"363 705 CURVE SMOOTH",
"260 705 OFFCURVE",
"164 645 OFFCURVE",
"149 537 CURVE SMOOTH",
"143 493 LINE",
"58 493 LINE",
"48 427 LINE",
"134 427 LINE",
"74 0 LINE"
);
},
{
closed = 1;
nodes = (
"233 531 LINE SMOOTH",
"241 590 OFFCURVE",
"288 636 OFFCURVE",
"366 636 CURVE SMOOTH",
"396 636 OFFCURVE",
"423 630 OFFCURVE",
"445 618 CURVE",
"433 604 OFFCURVE",
"427 588 OFFCURVE",
"425 568 CURVE SMOOTH",
"414 493 LINE",
"228 493 LINE"
);
}
);
width = 610;
}
);
leftKerningGroup = f;
leftMetricsKey = f;
note = f_f;
rightKerningGroup = f;
rightMetricsKey = f;
},
{
glyphname = f_f_i;
lastChange = "2021-11-19 16:23:12 +0000";
layers = (
{
anchors = (
{
name = caret_1;
position = "{220, 0}";
},
{
name = caret_2;
position = "{462, 0}";
}
);
layerId = "F91D9E91-C1BC-4259-B0D8-112C0CBA2B8E";
paths = (
{
closed = 1;
nodes = (
"108 0 LINE",
"175 476 LINE",
"398 476 LINE",
"331 0 LINE",
"351 0 LINE",
"418 476 LINE",
"640 476 LINE",
"573 0 LINE",
"593 0 LINE",
"663 493 LINE",
"421 493 LINE",
"427 537 LINE SMOOTH",
"442 649 OFFCURVE",
"496 685 OFFCURVE",
"573 685 CURVE SMOOTH",
"611 685 OFFCURVE",
"645 672 OFFCURVE",
"671 647 CURVE",
"683 659 LINE",
"655 686 OFFCURVE",
"619 702 OFFCURVE",
"573 702 CURVE SMOOTH",
"530 702 OFFCURVE",
"495 691 OFFCURVE",
"467 668 CURVE",
"436 691 OFFCURVE",
"400 702 OFFCURVE",
"355 702 CURVE SMOOTH",
"258 702 OFFCURVE",
"179 640 OFFCURVE",
"166 547 CURVE SMOOTH",
"158 493 LINE",
"69 493 LINE",
"66 476 LINE",
"155 476 LINE",
"89 0 LINE"
);
},
{
closed = 1;
nodes = (
"185 547 LINE SMOOTH",
"197 629 OFFCURVE",
"265 685 OFFCURVE",
"355 685 CURVE SMOOTH",
"394 685 OFFCURVE",
"427 675 OFFCURVE",
"455 655 CURVE",
"430 630 OFFCURVE",
"414 589 OFFCURVE",
"407 538 CURVE SMOOTH",
"401 493 LINE",
"178 493 LINE"
);
}
);
width = 714;
},
{
anchors = (
{
name = caret_1;
position = "{292, 0}";
},
{
name = caret_2;
position = "{592, 0}";
}
);
layerId = "957254E3-B7AD-4837-9092-D4428001DE8E";
paths = (
{
closed = 1;
nodes = (
"217 0 LINE",
"270 376 LINE",
"419 376 LINE",
"366 0 LINE",
"516 0 LINE",
"569 376 LINE",
"718 376 LINE",
"665 0 LINE",
"815 0 LINE",
"885 493 LINE",
"586 493 LINE",
"589 518 LINE SMOOTH",
"593 549 OFFCURVE",
"626 587 OFFCURVE",
"691 587 CURVE SMOOTH",
"743 587 OFFCURVE",
"784 574 OFFCURVE",
"818 550 CURVE",
"897 653 LINE",
"839 689 OFFCURVE",
"781 708 OFFCURVE",
"685 708 CURVE SMOOTH",
"632 708 OFFCURVE",
"577 695 OFFCURVE",
"529 663 CURVE",
"490 693 OFFCURVE",
"434 708 OFFCURVE",
"379 708 CURVE SMOOTH",
"266 708 OFFCURVE",
"157 644 OFFCURVE",
"141 526 CURVE SMOOTH",
"137 493 LINE",
"55 493 LINE",
"38 376 LINE",
"120 376 LINE",
"67 0 LINE"
);
},
{
closed = 1;
nodes = (
"290 515 LINE SMOOTH",
"295 552 OFFCURVE",
"321 587 OFFCURVE",
"385 587 CURVE SMOOTH",
"414 587 OFFCURVE",
"438 580 OFFCURVE",
"452 574 CURVE",
"448 570 OFFCURVE",
"443 542 OFFCURVE",
"441 529 CURVE SMOOTH",
"436 493 LINE",
"287 493 LINE"
);
}
);
width = 902;
},
{
anchors = (
{
name = caret_1;
position = "{252, 0}";
},
{
name = caret_2;
position = "{523, 0}";
}
);
layerId = m003;
paths = (
{
closed = 1;
nodes = (
"158 0 LINE",
"218 427 LINE",
"404 427 LINE",
"344 0 LINE",
"428 0 LINE",
"488 427 LINE",
"674 427 LINE",
"614 0 LINE",
"699 0 LINE",
"768 493 LINE",
"498 493 LINE",
"503 528 LINE SMOOTH",
"513 600 OFFCURVE",
"557 636 OFFCURVE",
"627 636 CURVE SMOOTH",
"672 636 OFFCURVE",
"710 623 OFFCURVE",
"739 599 CURVE",
"785 656 LINE",
"742 687 OFFCURVE",
"696 705 OFFCURVE",
"624 705 CURVE SMOOTH",
"580 705 OFFCURVE",
"534 695 OFFCURVE",
"493 666 CURVE",
"458 693 OFFCURVE",
"410 705 OFFCURVE",
"363 705 CURVE SMOOTH",
"260 705 OFFCURVE",
"164 645 OFFCURVE",
"149 537 CURVE SMOOTH",
"143 493 LINE",
"58 493 LINE",
"48 427 LINE",
"134 427 LINE",
"74 0 LINE"
);
},
{
closed = 1;
nodes = (
"233 531 LINE SMOOTH",
"241 590 OFFCURVE",
"288 636 OFFCURVE",
"366 636 CURVE SMOOTH",
"399 636 OFFCURVE",
"428 629 OFFCURVE",
"449 615 CURVE",
"433 599 OFFCURVE",
"423 562 OFFCURVE",
"419 534 CURVE SMOOTH",
"414 493 LINE",
"228 493 LINE"
);
}
);
width = 797;
}
);
leftKerningGroup = f;
leftMetricsKey = f;
note = f_f_i;
rightKerningGroup = i;
rightMetricsKey = i;
},
{
glyphname = f_f_l;
lastChange = "2021-11-14 10:14:54 +0000";
layers = (
{
anchors = (
{
name = caret_1;
position = "{220, 0}";
},
{
name = caret_2;
position = "{462, 0}";
}
);
layerId = "F91D9E91-C1BC-4259-B0D8-112C0CBA2B8E";
paths = (
{
closed = 1;
nodes = (
"662 -5 OFFCURVE",
"681 -2 OFFCURVE",
"705 5 CURVE",
"707 24 LINE",
"686 17 OFFCURVE",
"669 13 OFFCURVE",
"651 13 CURVE SMOOTH",
"621 13 OFFCURVE",
"605 30 OFFCURVE",
"605 69 CURVE SMOOTH",
"605 76 OFFCURVE",
"606 85 OFFCURVE",
"607 95 CURVE SMOOTH",
"686 659 LINE",
"655 686 OFFCURVE",
"619 702 OFFCURVE",
"573 702 CURVE SMOOTH",
"530 702 OFFCURVE",
"494 691 OFFCURVE",
"468 669 CURVE",
"437 691 OFFCURVE",
"401 702 OFFCURVE",
"355 702 CURVE SMOOTH",
"258 702 OFFCURVE",
"179 640 OFFCURVE",
"166 547 CURVE SMOOTH",
"158 493 LINE",
"69 493 LINE",
"66 476 LINE",
"155 476 LINE",
"89 0 LINE",
"108 0 LINE",
"175 476 LINE",
"398 476 LINE",
"331 0 LINE",
"351 0 LINE",
"418 476 LINE",
"545 476 LINE",
"548 493 LINE",
"421 493 LINE",
"427 537 LINE SMOOTH",
"442 649 OFFCURVE",
"496 685 OFFCURVE",
"573 685 CURVE SMOOTH",
"612 685 OFFCURVE",
"643 671 OFFCURVE",
"666 652 CURVE",
"586 93 LINE SMOOTH",
"585 82 OFFCURVE",
"584 74 OFFCURVE",
"584 64 CURVE SMOOTH",
"584 16 OFFCURVE",
"606 -5 OFFCURVE",
"647 -5 CURVE SMOOTH"
);
},
{
closed = 1;
nodes = (
"185 546 LINE SMOOTH",
"197 629 OFFCURVE",
"265 685 OFFCURVE",
"355 685 CURVE SMOOTH",
"393 685 OFFCURVE",
"428 675 OFFCURVE",
"456 655 CURVE",
"430 628 OFFCURVE",
"414 590 OFFCURVE",
"407 538 CURVE SMOOTH",
"401 493 LINE",
"178 493 LINE"
);
}
);
width = 784;
},
{
anchors = (
{
name = caret_1;
position = "{292, 0}";
},
{
name = caret_2;
position = "{591, 0}";
}
);
background = {
paths = (
{
closed = 1;
nodes = (
"849 -11 OFFCURVE",
"883 -7 OFFCURVE",
"914 5 CURVE",
"914 133 LINE",
"901 129 OFFCURVE",
"891 127 OFFCURVE",
"882 127 CURVE SMOOTH",
"863 127 OFFCURVE",
"854 136 OFFCURVE",
"854 152 CURVE SMOOTH",
"854 651 LINE",
"786 689 OFFCURVE",
"728 708 OFFCURVE",
"631 708 CURVE SMOOTH",
"575 708 OFFCURVE",
"519 692 OFFCURVE",
"477 664 CURVE",
"434 694 OFFCURVE",
"376 708 OFFCURVE",
"324 708 CURVE SMOOTH",
"209 708 OFFCURVE",
"104 642 OFFCURVE",
"104 522 CURVE SMOOTH",
"104 493 LINE",
"25 493 LINE",
"25 376 LINE",
"104 376 LINE",
"104 0 LINE",
"254 0 LINE",
"254 376 LINE",
"403 376 LINE",
"403 0 LINE",
"554 0 LINE",
"554 376 LINE",
"637 376 LINE",
"637 493 LINE",
"554 493 LINE",
"554 522 LINE SMOOTH",
"554 553 OFFCURVE",
"577 587 OFFCURVE",
"638 587 CURVE SMOOTH",
"659 587 OFFCURVE",
"677 586 OFFCURVE",
"702 583 CURVE",
"702 125 LINE SMOOTH",
"702 30 OFFCURVE",
"759 -11 OFFCURVE",
"828 -11 CURVE SMOOTH"
);
}
);
};
layerId = "957254E3-B7AD-4837-9092-D4428001DE8E";
paths = (
{
closed = 1;
nodes = (
"815 -11 OFFCURVE",
"849 -9 OFFCURVE",
"880 3 CURVE",
"890 134 LINE",
"877 130 OFFCURVE",
"866 127 OFFCURVE",
"853 127 CURVE SMOOTH",
"841 127 OFFCURVE",
"836 130 OFFCURVE",
"836 144 CURVE SMOOTH",
"836 149 OFFCURVE",
"836 152 OFFCURVE",
"837 157 CURVE SMOOTH",
"903 649 LINE",
"841 687 OFFCURVE",
"786 708 OFFCURVE",
"685 708 CURVE SMOOTH",
"633 708 OFFCURVE",
"576 694 OFFCURVE",
"527 664 CURVE",
"491 691 OFFCURVE",
"435 708 OFFCURVE",
"379 708 CURVE SMOOTH",
"266 708 OFFCURVE",
"157 644 OFFCURVE",
"141 526 CURVE SMOOTH",
"137 493 LINE",
"55 493 LINE",
"38 376 LINE",
"120 376 LINE",
"67 0 LINE",
"217 0 LINE",
"270 376 LINE",
"419 376 LINE",
"366 0 LINE",
"516 0 LINE",
"569 376 LINE",
"652 376 LINE",
"669 493 LINE",
"586 493 LINE",
"589 518 LINE SMOOTH",
"593 549 OFFCURVE",
"626 587 OFFCURVE",
"691 587 CURVE SMOOTH",
"708 587 OFFCURVE",
"726 587 OFFCURVE",
"751 580 CURVE",
"684 129 LINE SMOOTH",
"683 119 OFFCURVE",
"682 109 OFFCURVE",
"682 101 CURVE SMOOTH",
"682 25 OFFCURVE",
"733 -11 OFFCURVE",
"798 -11 CURVE SMOOTH"
);
},
{
closed = 1;
nodes = (
"288 505 LINE SMOOTH",
"295 559 OFFCURVE",
"328 587 OFFCURVE",
"385 587 CURVE SMOOTH",
"414 587 OFFCURVE",
"437 580 OFFCURVE",
"453 575 CURVE",
"444 554 OFFCURVE",
"442 537 OFFCURVE",
"441 529 CURVE SMOOTH",
"436 493 LINE",
"287 493 LINE"
);
}
);
width = 938;
},
{
anchors = (
{
name = caret_1;
position = "{252, 0}";
},
{
name = caret_2;
position = "{522, 0}";
}
);
layerId = m003;
paths = (
{
closed = 1;
nodes = (
"737 -8 OFFCURVE",
"764 -4 OFFCURVE",
"788 4 CURVE",
"794 79 LINE",
"776 73 OFFCURVE",
"761 69 OFFCURVE",
"747 69 CURVE SMOOTH",
"725 69 OFFCURVE",
"715 80 OFFCURVE",
"715 106 CURVE SMOOTH",
"715 114 OFFCURVE",
"715 119 OFFCURVE",
"716 125 CURVE SMOOTH",
"789 654 LINE",
"743 686 OFFCURVE",
"697 705 OFFCURVE",
"624 705 CURVE SMOOTH",
"579 705 OFFCURVE",
"532 694 OFFCURVE",
"493 667 CURVE",
"460 691 OFFCURVE",
"414 705 OFFCURVE",
"363 705 CURVE SMOOTH",
"260 705 OFFCURVE",
"164 645 OFFCURVE",
"149 537 CURVE SMOOTH",
"143 493 LINE",
"58 493 LINE",
"48 427 LINE",
"134 427 LINE",
"74 0 LINE",
"158 0 LINE",
"218 427 LINE",
"404 427 LINE",
"344 0 LINE",
"428 0 LINE",
"488 427 LINE",
"594 427 LINE",
"603 493 LINE",
"498 493 LINE",
"503 528 LINE SMOOTH",
"513 600 OFFCURVE",
"557 636 OFFCURVE",
"627 636 CURVE SMOOTH",
"657 636 OFFCURVE",
"680 630 OFFCURVE",
"703 617 CURVE",
"630 111 LINE SMOOTH",
"629 104 OFFCURVE",
"628 94 OFFCURVE",
"628 85 CURVE SMOOTH",
"628 22 OFFCURVE",
"664 -8 OFFCURVE",
"717 -8 CURVE SMOOTH"
);
},
{
closed = 1;
nodes = (
"232 526 LINE SMOOTH",
"241 589 OFFCURVE",
"287 636 OFFCURVE",
"366 636 CURVE SMOOTH",
"399 636 OFFCURVE",
"429 628 OFFCURVE",
"450 615 CURVE",
"434 593 OFFCURVE",
"424 568 OFFCURVE",
"419 534 CURVE SMOOTH",
"414 493 LINE",
"228 493 LINE"
);
}
);
width = 852;
}
);
leftKerningGroup = f;
leftMetricsKey = f;
note = f_f_l;
rightKerningGroup = l;
rightMetricsKey = l;
},
{
glyphname = fi;
lastChange = "2021-11-19 16:23:12 +0000";
layers = (
{
anchors = (
{
name = caret_1;
position = "{220, 0}";
}
);
layerId = "F91D9E91-C1BC-4259-B0D8-112C0CBA2B8E";
paths = (
{
closed = 1;
nodes = (
"108 0 LINE",
"175 476 LINE",
"404 476 LINE",
"407 493 LINE",
"178 493 LINE",
"184 537 LINE SMOOTH",
"200 649 OFFCURVE",
"255 685 OFFCURVE",
"332 685 CURVE SMOOTH",
"372 685 OFFCURVE",
"405 671 OFFCURVE",
"431 647 CURVE",
"443 659 LINE",
"413 686 OFFCURVE",
"377 702 OFFCURVE",
"331 702 CURVE SMOOTH",
"237 702 OFFCURVE",
"179 647 OFFCURVE",
"164 538 CURVE SMOOTH",
"158 493 LINE",
"69 493 LINE",
"66 476 LINE",
"155 476 LINE",
"89 0 LINE"
);
},
{
closed = 1;
nodes = (
"352 0 LINE",
"422 493 LINE",
"402 493 LINE",
"332 0 LINE"
);
}
);
width = 473;
},
{
anchors = (
{
name = caret_1;
position = "{286, 0}";
}
);
layerId = "957254E3-B7AD-4837-9092-D4428001DE8E";
paths = (
{
closed = 1;
nodes = (
"217 0 LINE",
"270 376 LINE",
"462 376 LINE",
"480 493 LINE",
"287 493 LINE",
"289 508 LINE SMOOTH",
"295 552 OFFCURVE",
"330 587 OFFCURVE",
"393 587 CURVE SMOOTH",
"443 587 OFFCURVE",
"485 575 OFFCURVE",
"519 550 CURVE",
"598 653 LINE",
"543 687 OFFCURVE",
"486 708 OFFCURVE",
"386 708 CURVE SMOOTH",
"272 708 OFFCURVE",
"157 640 OFFCURVE",
"142 529 CURVE SMOOTH",
"137 493 LINE",
"55 493 LINE",
"38 376 LINE",
"120 376 LINE",
"67 0 LINE"
);
},
{
closed = 1;
nodes = (
"504 0 LINE",
"574 493 LINE",
"424 493 LINE",
"354 0 LINE"
);
}
);
width = 593;
},
{
anchors = (
{
name = caret_1;
position = "{249, 0}";
}
);
layerId = m003;
paths = (
{
closed = 1;
nodes = (
"158 0 LINE",
"218 427 LINE",
"429 427 LINE",
"439 493 LINE",
"228 493 LINE",
"232 522 LINE SMOOTH",
"243 599 OFFCURVE",
"287 636 OFFCURVE",
"358 636 CURVE SMOOTH",
"403 636 OFFCURVE",
"440 624 OFFCURVE",
"470 599 CURVE",
"515 656 LINE",
"473 686 OFFCURVE",
"426 705 OFFCURVE",
"354 705 CURVE SMOOTH",
"254 705 OFFCURVE",
"165 648 OFFCURVE",
"149 534 CURVE SMOOTH",
"143 493 LINE",
"58 493 LINE",
"48 427 LINE",
"134 427 LINE",
"74 0 LINE"
);
},
{
closed = 1;
nodes = (
"423 0 LINE",
"493 493 LINE",
"408 493 LINE",
"339 0 LINE"
);
}
);
width = 521;
}
);
leftKerningGroup = f;
leftMetricsKey = f;
note = fi;
rightKerningGroup = i;
rightMetricsKey = i;
unicode = FB01;
},
{
glyphname = fl;
lastChange = "2021-11-14 10:14:54 +0000";
layers = (
{
anchors = (
{
name = caret_1;
position = "{204, 0}";
}
);
layerId = "F91D9E91-C1BC-4259-B0D8-112C0CBA2B8E";
paths = (
{
closed = 1;
nodes = (
"397 -5 OFFCURVE",
"417 -1 OFFCURVE",
"439 5 CURVE",
"441 24 LINE",
"416 16 OFFCURVE",
"399 13 OFFCURVE",
"384 13 CURVE SMOOTH",
"354 13 OFFCURVE",
"337 29 OFFCURVE",
"337 68 CURVE SMOOTH",
"337 76 OFFCURVE",
"338 86 OFFCURVE",
"339 94 CURVE SMOOTH",
"418 658 LINE",
"391 686 OFFCURVE",
"358 702 OFFCURVE",
"313 702 CURVE SMOOTH",
"240 702 OFFCURVE",
"175 663 OFFCURVE",
"158 538 CURVE SMOOTH",
"152 493 LINE",
"69 493 LINE",
"66 476 LINE",
"149 476 LINE",
"82 0 LINE",
"102 0 LINE",
"169 476 LINE",
"286 476 LINE",
"289 493 LINE",
"172 493 LINE",
"178 537 LINE SMOOTH",
"192 638 OFFCURVE",
"235 685 OFFCURVE",
"314 685 CURVE SMOOTH",
"348 685 OFFCURVE",
"377 672 OFFCURVE",
"398 650 CURVE",
"319 93 LINE SMOOTH",
"318 83 OFFCURVE",
"317 73 OFFCURVE",
"317 65 CURVE SMOOTH",
"317 17 OFFCURVE",
"339 -5 OFFCURVE",
"379 -5 CURVE SMOOTH"
);
}
);
width = 518;
},
{
anchors = (
{
name = caret_1;
position = "{292, 0}";
}
);
layerId = "957254E3-B7AD-4837-9092-D4428001DE8E";
paths = (
{
closed = 1;
nodes = (
"516 -11 OFFCURVE",
"550 -9 OFFCURVE",
"583 3 CURVE",
"593 134 LINE",
"580 130 OFFCURVE",
"569 127 OFFCURVE",
"556 127 CURVE SMOOTH",
"543 127 OFFCURVE",
"539 131 OFFCURVE",
"539 141 CURVE SMOOTH",
"539 142 OFFCURVE",
"539 145 OFFCURVE",
"539 148 CURVE SMOOTH",
"606 649 LINE",
"543 687 OFFCURVE",
"488 708 OFFCURVE",
"390 708 CURVE SMOOTH",
"274 708 OFFCURVE",
"157 639 OFFCURVE",
"142 529 CURVE SMOOTH",
"137 493 LINE",
"55 493 LINE",
"38 376 LINE",
"120 376 LINE",
"67 0 LINE",
"218 0 LINE",
"271 376 LINE",
"354 376 LINE",
"371 493 LINE",
"288 493 LINE",
"291 518 LINE SMOOTH",
"295 549 OFFCURVE",
"328 587 OFFCURVE",
"397 587 CURVE SMOOTH",
"410 587 OFFCURVE",
"428 587 OFFCURVE",
"452 580 CURVE",
"385 129 LINE SMOOTH",
"384 119 OFFCURVE",
"383 109 OFFCURVE",
"383 101 CURVE SMOOTH",
"383 25 OFFCURVE",
"434 -11 OFFCURVE",
"499 -11 CURVE SMOOTH"
);
}
);
width = 641;
},
{
anchors = (
{
name = caret_1;
position = "{243, 0}";
}
);
layerId = m003;
paths = (
{
closed = 1;
nodes = (
"450 -8 OFFCURVE",
"477 -5 OFFCURVE",
"506 4 CURVE",
"512 79 LINE",
"494 73 OFFCURVE",
"479 69 OFFCURVE",
"465 69 CURVE SMOOTH",
"443 69 OFFCURVE",
"433 79 OFFCURVE",
"433 104 CURVE SMOOTH",
"433 111 OFFCURVE",
"433 116 OFFCURVE",
"434 121 CURVE SMOOTH",
"507 653 LINE",
"462 686 OFFCURVE",
"417 705 OFFCURVE",
"347 705 CURVE SMOOTH",
"253 705 OFFCURVE",
"164 651 OFFCURVE",
"147 534 CURVE SMOOTH",
"141 493 LINE",
"58 493 LINE",
"48 427 LINE",
"131 427 LINE",
"71 0 LINE",
"155 0 LINE",
"215 427 LINE",
"315 427 LINE",
"325 493 LINE",
"225 493 LINE",
"230 528 LINE SMOOTH",
"240 602 OFFCURVE",
"285 636 OFFCURVE",
"351 636 CURVE SMOOTH",
"376 636 OFFCURVE",
"398 630 OFFCURVE",
"420 616 CURVE",
"347 111 LINE SMOOTH",
"346 104 OFFCURVE",
"345 94 OFFCURVE",
"345 85 CURVE SMOOTH",
"345 22 OFFCURVE",
"381 -8 OFFCURVE",
"434 -8 CURVE SMOOTH"
);
}
);
width = 570;
}
);
leftKerningGroup = f;
leftMetricsKey = f;
note = fl;
rightKerningGroup = l;
rightMetricsKey = l;
unicode = FB02;
},
{
glyphname = ordfeminine;
lastChange = "2021-11-14 10:14:53 +0000";
layers = (
{
layerId = "F91D9E91-C1BC-4259-B0D8-112C0CBA2B8E";
paths = (
{
closed = 1;
nodes = (
"269 345 OFFCURVE",
"317 377 OFFCURVE",
"350 438 CURVE",
"350 350 LINE",
"365 350 LINE",
"365 565 LINE SMOOTH",
"365 654 OFFCURVE",
"318 702 OFFCURVE",
"233 702 CURVE SMOOTH",
"178 702 OFFCURVE",
"140 683 OFFCURVE",
"105 634 CURVE",
"117 626 LINE",
"146 667 OFFCURVE",
"181 688 OFFCURVE",
"234 688 CURVE SMOOTH",
"310 688 OFFCURVE",
"350 644 OFFCURVE",
"350 567 CURVE SMOOTH",
"350 560 OFFCURVE",
"350 552 OFFCURVE",
"350 545 CURVE",
"226 545 LINE SMOOTH",
"145 545 OFFCURVE",
"92 512 OFFCURVE",
"92 445 CURVE SMOOTH",
"92 385 OFFCURVE",
"138 345 OFFCURVE",
"207 345 CURVE SMOOTH"
);
},
{
closed = 1;
nodes = (
"150 360 OFFCURVE",
"108 392 OFFCURVE",
"108 445 CURVE SMOOTH",
"108 500 OFFCURVE",
"151 530 OFFCURVE",
"226 530 CURVE SMOOTH",
"350 530 LINE",
"350 506 OFFCURVE",
"349 484 OFFCURVE",
"349 461 CURVE",
"319 397 OFFCURVE",
"271 360 OFFCURVE",
"209 360 CURVE SMOOTH"
);
}
);
width = 480;
},
{
layerId = "957254E3-B7AD-4837-9092-D4428001DE8E";
paths = (
{
closed = 1;
nodes = (
"229 350 OFFCURVE",
"263 363 OFFCURVE",
"293 390 CURVE",
"295 359 LINE",
"372 359 LINE",
"372 567 LINE SMOOTH",
"372 650 OFFCURVE",
"316 708 OFFCURVE",
"222 708 CURVE SMOOTH",
"159 708 OFFCURVE",
"113 685 OFFCURVE",
"71 625 CURVE",
"138 580 LINE",
"154 602 OFFCURVE",
"178 630 OFFCURVE",
"225 630 CURVE SMOOTH",
"257 630 OFFCURVE",
"276 617 OFFCURVE",
"285 596 CURVE SMOOTH",
"288 589 OFFCURVE",
"289 581 OFFCURVE",
"289 570 CURVE",
"195 570 LINE SMOOTH",
"122 570 OFFCURVE",
"61 537 OFFCURVE",
"61 463 CURVE SMOOTH",
"61 393 OFFCURVE",
"117 350 OFFCURVE",
"189 350 CURVE SMOOTH"
);
},
{
closed = 1;
nodes = (
"170 429 OFFCURVE",
"154 444 OFFCURVE",
"154 461 CURVE SMOOTH",
"154 480 OFFCURVE",
"170 493 OFFCURVE",
"201 493 CURVE SMOOTH",
"289 493 LINE",
"286 479 OFFCURVE",
"282 466 OFFCURVE",
"273 454 CURVE SMOOTH",
"259 437 OFFCURVE",
"238 429 OFFCURVE",
"209 429 CURVE SMOOTH"
);
}
);
width = 456;
},
{
layerId = m003;
paths = (
{
closed = 1;
nodes = (
"264 348 OFFCURVE",
"306 370 OFFCURVE",
"338 415 CURVE",
"339 355 LINE",
"384 355 LINE",
"384 566 LINE SMOOTH",
"384 652 OFFCURVE",
"332 705 OFFCURVE",
"243 705 CURVE SMOOTH",
"184 705 OFFCURVE",
"142 684 OFFCURVE",
"104 630 CURVE",
"143 603 LINE",
"166 636 OFFCURVE",
"196 659 OFFCURVE",
"245 659 CURVE SMOOTH",
"299 659 OFFCURVE",
"328 631 OFFCURVE",
"334 581 CURVE SMOOTH",
"335 573 OFFCURVE",
"335 562 OFFCURVE",
"335 558 CURVE",
"226 558 LINE SMOOTH",
"150 558 OFFCURVE",
"92 525 OFFCURVE",
"92 455 CURVE SMOOTH",
"92 389 OFFCURVE",
"143 348 OFFCURVE",
"214 348 CURVE SMOOTH"
);
},
{
closed = 1;
nodes = (
"176 395 OFFCURVE",
"146 418 OFFCURVE",
"146 453 CURVE SMOOTH",
"146 490 OFFCURVE",
"176 512 OFFCURVE",
"229 512 CURVE SMOOTH",
"335 512 LINE",
"334 493 OFFCURVE",
"331 476 OFFCURVE",
"327 458 CURVE",
"304 416 OFFCURVE",
"269 395 OFFCURVE",
"225 395 CURVE SMOOTH"
);
}
);
width = 499;
}
);
leftKerningGroup = ordfeminine;
note = ordfeminine;
unicode = 00AA;
},
{
glyphname = ordmasculine;
lastChange = "2021-11-14 10:14:53 +0000";
layers = (
{
layerId = "F91D9E91-C1BC-4259-B0D8-112C0CBA2B8E";
paths = (
{
closed = 1;
nodes = (
"347 356 OFFCURVE",
"417 430 OFFCURVE",
"417 529 CURVE SMOOTH",
"417 627 OFFCURVE",
"346 702 OFFCURVE",
"255 702 CURVE SMOOTH",
"163 702 OFFCURVE",
"92 627 OFFCURVE",
"92 529 CURVE SMOOTH",
"92 431 OFFCURVE",
"162 356 OFFCURVE",
"255 356 CURVE SMOOTH"
);
},
{
closed = 1;
nodes = (
"170 371 OFFCURVE",
"108 438 OFFCURVE",
"108 529 CURVE SMOOTH",
"108 619 OFFCURVE",
"170 687 OFFCURVE",
"255 687 CURVE SMOOTH",
"338 687 OFFCURVE",
"401 619 OFFCURVE",
"401 529 CURVE SMOOTH",
"401 438 OFFCURVE",
"338 371 OFFCURVE",
"255 371 CURVE SMOOTH"
);
}
);
width = 510;
},
{
layerId = "957254E3-B7AD-4837-9092-D4428001DE8E";
paths = (
{
closed = 1;
nodes = (
"344 350 OFFCURVE",
"417 431 OFFCURVE",
"417 529 CURVE SMOOTH",
"417 626 OFFCURVE",
"344 708 OFFCURVE",
"238 708 CURVE SMOOTH",
"131 708 OFFCURVE",
"59 626 OFFCURVE",
"59 529 CURVE SMOOTH",
"59 432 OFFCURVE",
"130 350 OFFCURVE",
"238 350 CURVE SMOOTH"
);
},
{
closed = 1;
nodes = (
"174 432 OFFCURVE",
"156 477 OFFCURVE",
"156 529 CURVE SMOOTH",
"156 583 OFFCURVE",
"175 626 OFFCURVE",
"238 626 CURVE SMOOTH",
"301 626 OFFCURVE",
"320 583 OFFCURVE",
"320 529 CURVE SMOOTH",
"320 477 OFFCURVE",
"301 432 OFFCURVE",
"238 432 CURVE SMOOTH"
);
}
);
width = 477;
},
{
layerId = m003;
paths = (
{
closed = 1;
nodes = (
"362 353 OFFCURVE",
"433 431 OFFCURVE",
"433 529 CURVE SMOOTH",
"433 627 OFFCURVE",
"361 705 OFFCURVE",
"263 705 CURVE SMOOTH",
"164 705 OFFCURVE",
"92 626 OFFCURVE",
"92 529 CURVE SMOOTH",
"92 432 OFFCURVE",
"163 353 OFFCURVE",
"263 353 CURVE SMOOTH"
);
},
{
closed = 1;
nodes = (
"188 401 OFFCURVE",
"148 458 OFFCURVE",
"148 529 CURVE SMOOTH",
"148 601 OFFCURVE",
"189 658 OFFCURVE",
"263 658 CURVE SMOOTH",
"336 658 OFFCURVE",
"378 601 OFFCURVE",
"378 529 CURVE SMOOTH",
"378 458 OFFCURVE",
"337 401 OFFCURVE",
"263 401 CURVE SMOOTH"
);
}
);
width = 526;
}
);
leftKerningGroup = ordmasculine;
note = ordmasculine;
rightKerningGroup = ordmasculine;
unicode = 00BA;
},
{
color = 1;
glyphname = Delta;
lastChange = "2021-11-14 10:14:53 +0000";
layers = (
{
layerId = "F91D9E91-C1BC-4259-B0D8-112C0CBA2B8E";
paths = (
{
closed = 1;
nodes = (
"536 0 LINE",
"390 697 LINE",
"365 697 LINE",
"24 0 LINE"
);
},
{
closed = 1;
nodes = (
"376 675 LINE",
"509 19 LINE",
"57 19 LINE"
);
}
);
width = 630;
},
{
layerId = "957254E3-B7AD-4837-9092-D4428001DE8E";
paths = (
{
closed = 1;
nodes = (
"678 0 LINE",
"487 697 LINE",
"371 697 LINE",
"-16 0 LINE"
);
},
{
closed = 1;
nodes = (
"400 463 LINE",
"475 144 LINE",
"232 144 LINE"
);
}
);
width = 733;
},
{
layerId = m003;
paths = (
{
closed = 1;
nodes = (
"625 0 LINE",
"457 697 LINE",
"387 697 LINE",
"23 0 LINE"
);
},
{
closed = 1;
nodes = (
"407 571 LINE",
"511 81 LINE",
"162 81 LINE"
);
}
);
width = 719;
}
);
leftKerningGroup = A;
rightKerningGroup = A;
unicode = 0394;
},
{
color = 1;
glyphname = pi;
lastChange = "2021-11-14 10:14:53 +0000";
layers = (
{
layerId = "F91D9E91-C1BC-4259-B0D8-112C0CBA2B8E";
paths = (
{
closed = 1;
nodes = (
"462 -5 OFFCURVE",
"472 -4 OFFCURVE",
"487 0 CURVE",
"484 17 LINE",
"473 15 OFFCURVE",
"462 14 OFFCURVE",
"454 14 CURVE SMOOTH",
"400 14 OFFCURVE",
"377 40 OFFCURVE",
"377 102 CURVE SMOOTH",
"377 117 OFFCURVE",
"377 135 OFFCURVE",
"380 155 CURVE SMOOTH",
"425 475 LINE",
"529 475 LINE",
"532 493 LINE",
"83 493 LINE",
"80 475 LINE",
"143 475 LINE",
"76 0 LINE",
"96 0 LINE",
"163 475 LINE",
"405 475 LINE",
"360 152 LINE SMOOTH",
"357 131 OFFCURVE",
"355 112 OFFCURVE",
"355 97 CURVE SMOOTH",
"355 25 OFFCURVE",
"386 -5 OFFCURVE",
"450 -5 CURVE SMOOTH"
);
}
);
width = 540;
},
{
layerId = "957254E3-B7AD-4837-9092-D4428001DE8E";
paths = (
{
closed = 1;
nodes = (
"492 -11 OFFCURVE",
"518 -5 OFFCURVE",
"554 16 CURVE",
"541 143 LINE",
"531 136 OFFCURVE",
"516 128 OFFCURVE",
"500 128 CURVE SMOOTH",
"492 128 OFFCURVE",
"485 130 OFFCURVE",
"485 144 CURVE SMOOTH",
"485 146 OFFCURVE",
"485 147 OFFCURVE",
"486 154 CURVE SMOOTH",
"516 367 LINE",
"576 367 LINE",
"594 493 LINE",
"64 493 LINE",
"46 367 LINE",
"109 367 LINE",
"58 0 LINE",
"208 0 LINE",
"259 367 LINE",
"366 367 LINE",
"331 111 LINE SMOOTH",
"330 104 OFFCURVE",
"329 96 OFFCURVE",
"329 90 CURVE SMOOTH",
"329 26 OFFCURVE",
"375 -11 OFFCURVE",
"458 -11 CURVE SMOOTH"
);
}
);
width = 598;
},
{
layerId = m003;
paths = (
{
closed = 1;
nodes = (
"484 -8 OFFCURVE",
"504 -5 OFFCURVE",
"529 8 CURVE",
"520 79 LINE",
"510 74 OFFCURVE",
"498 70 OFFCURVE",
"485 70 CURVE SMOOTH",
"454 70 OFFCURVE",
"439 84 OFFCURVE",
"439 122 CURVE SMOOTH",
"439 129 OFFCURVE",
"440 140 OFFCURVE",
"442 154 CURVE SMOOTH",
"479 422 LINE",
"561 422 LINE",
"571 493 LINE",
"82 493 LINE",
"72 422 LINE",
"135 422 LINE",
"76 0 LINE",
"160 0 LINE",
"219 422 LINE",
"395 422 LINE",
"354 132 LINE SMOOTH",
"352 118 OFFCURVE",
"351 106 OFFCURVE",
"351 98 CURVE SMOOTH",
"351 27 OFFCURVE",
"389 -8 OFFCURVE",
"463 -8 CURVE SMOOTH"
);
}
);
width = 580;
}
);
note = pi;
unicode = 03C0;
},
{
color = 1;
glyphname = zero;
lastChange = "2021-11-14 10:14:53 +0000";
layers = (
{
layerId = "F91D9E91-C1BC-4259-B0D8-112C0CBA2B8E";
paths = (
{
closed = 1;
nodes = (
"380 -5 OFFCURVE",
"466 134 OFFCURVE",
"496 346 CURVE SMOOTH",
"501 382 OFFCURVE",
"505 420 OFFCURVE",
"505 460 CURVE SMOOTH",
"505 605 OFFCURVE",
"454 703 OFFCURVE",
"342 703 CURVE SMOOTH",
"186 703 OFFCURVE",
"118 524 OFFCURVE",
"93 349 CURVE SMOOTH",
"88 311 OFFCURVE",
"85 269 OFFCURVE",
"85 235 CURVE SMOOTH",
"85 101 OFFCURVE",
"126 -5 OFFCURVE",
"249 -5 CURVE SMOOTH"
);
},
{
closed = 1;
nodes = (
"142 14 OFFCURVE",
"104 110 OFFCURVE",
"104 233 CURVE SMOOTH",
"104 266 OFFCURVE",
"108 308 OFFCURVE",
"113 346 CURVE SMOOTH",
"139 533 OFFCURVE",
"209 684 OFFCURVE",
"340 684 CURVE SMOOTH",
"438 684 OFFCURVE",
"485 598 OFFCURVE",
"485 461 CURVE SMOOTH",
"485 428 OFFCURVE",
"482 391 OFFCURVE",
"476 349 CURVE SMOOTH",
"448 151 OFFCURVE",
"371 14 OFFCURVE",
"250 14 CURVE SMOOTH"
);
}
);
width = 560;
},
{
layerId = "957254E3-B7AD-4837-9092-D4428001DE8E";
paths = (
{
closed = 1;
nodes = (
"481 -10 OFFCURVE",
"528 208 OFFCURVE",
"547 344 CURVE SMOOTH",
"552 378 OFFCURVE",
"556 417 OFFCURVE",
"556 458 CURVE SMOOTH",
"556 580 OFFCURVE",
"517 709 OFFCURVE",
"337 709 CURVE SMOOTH",
"106 709 OFFCURVE",
"62 490 OFFCURVE",
"43 362 CURVE SMOOTH",
"38 326 OFFCURVE",
"34 285 OFFCURVE",
"34 244 CURVE SMOOTH",
"34 118 OFFCURVE",
"73 -10 OFFCURVE",
"252 -10 CURVE SMOOTH"
);
},
{
closed = 1;
nodes = (
"201 134 OFFCURVE",
"185 176 OFFCURVE",
"185 236 CURVE SMOOTH",
"185 267 OFFCURVE",
"189 302 OFFCURVE",
"194 339 CURVE SMOOTH",
"212 462 OFFCURVE",
"241 564 OFFCURVE",
"333 564 CURVE SMOOTH",
"388 564 OFFCURVE",
"405 523 OFFCURVE",
"405 463 CURVE SMOOTH",
"405 430 OFFCURVE",
"400 395 OFFCURVE",
"395 358 CURVE SMOOTH",
"378 239 OFFCURVE",
"348 134 OFFCURVE",
"256 134 CURVE SMOOTH"
);
}
);
width = 560;
},
{
layerId = m003;
paths = (
{
closed = 1;
nodes = (
"431 -8 OFFCURVE",
"497 176 OFFCURVE",
"520 343 CURVE SMOOTH",
"526 383 OFFCURVE",
"529 426 OFFCURVE",
"529 460 CURVE SMOOTH",
"529 591 OFFCURVE",
"486 706 OFFCURVE",
"339 706 CURVE SMOOTH",
"147 706 OFFCURVE",
"90 510 OFFCURVE",
"68 355 CURVE SMOOTH",
"63 317 OFFCURVE",
"59 278 OFFCURVE",
"59 239 CURVE SMOOTH",
"59 110 OFFCURVE",
"99 -8 OFFCURVE",
"250 -8 CURVE SMOOTH"
);
},
{
closed = 1;
nodes = (
"170 74 OFFCURVE",
"144 143 OFFCURVE",
"144 236 CURVE SMOOTH",
"144 269 OFFCURVE",
"148 306 OFFCURVE",
"153 343 CURVE SMOOTH",
"175 496 OFFCURVE",
"223 625 OFFCURVE",
"337 625 CURVE SMOOTH",
"414 625 OFFCURVE",
"444 560 OFFCURVE",
"444 460 CURVE SMOOTH",
"444 430 OFFCURVE",
"441 391 OFFCURVE",
"435 351 CURVE SMOOTH",
"413 195 OFFCURVE",
"359 74 OFFCURVE",
"253 74 CURVE SMOOTH"
);
}
);
width = 560;
}
);
leftKerningGroup = zero;
note = zero;
rightKerningGroup = zero;
unicode = 0030;
},
{
color = 1;
glyphname = one;
lastChange = "2021-11-14 10:14:53 +0000";
layers = (
{
layerId = "F91D9E91-C1BC-4259-B0D8-112C0CBA2B8E";
paths = (
{
closed = 1;
nodes = (
"307 0 LINE",
"405 697 LINE",
"385 697 LINE",
"375 623 LINE SMOOTH",
"371 592 OFFCURVE",
"353 582 OFFCURVE",
"324 582 CURVE SMOOTH",
"182 582 LINE",
"180 564 LINE",
"376 564 LINE",
"368 578 LINE",
"287 0 LINE"
);
}
);
width = 560;
},
{
layerId = "957254E3-B7AD-4837-9092-D4428001DE8E";
paths = (
{
closed = 1;
nodes = (
"374 0 LINE",
"472 697 LINE",
"321 697 LINE",
"317 669 LINE SMOOTH",
"310 616 OFFCURVE",
"278 590 OFFCURVE",
"225 590 CURVE SMOOTH",
"130 590 LINE",
"114 471 LINE",
"331 471 LINE",
"298 544 LINE",
"223 0 LINE"
);
}
);
width = 560;
},
{
layerId = m003;
paths = (
{
closed = 1;
nodes = (
"341 0 LINE",
"439 697 LINE",
"354 697 LINE",
"347 646 LINE SMOOTH",
"341 603 OFFCURVE",
"315 586 OFFCURVE",
"275 586 CURVE SMOOTH",
"157 586 LINE",
"147 518 LINE",
"354 518 LINE",
"334 562 LINE",
"256 0 LINE"
);
}
);
width = 560;
}
);
leftKerningGroup = one;
note = one;
rightKerningGroup = one;
unicode = 0031;
},
{
color = 1;
glyphname = two;
lastChange = "2021-11-14 10:14:53 +0000";
layers = (
{
background = {
paths = (
{
closed = 1;
nodes = (
"464 0 LINE",
"465 10 LINE",
"40 10 LINE",
"42 18 LINE",
"205 142 OFFCURVE",
"477 297 OFFCURVE",
"506 508 CURVE SMOOTH",
"508 521 OFFCURVE",
"509 533 OFFCURVE",
"509 545 CURVE SMOOTH",
"509 643 OFFCURVE",
"446 702 OFFCURVE",
"338 702 CURVE SMOOTH",
"208 702 OFFCURVE",
"124 622 OFFCURVE",
"105 482 CURVE",
"115 482 LINE",
"133 616 OFFCURVE",
"214 692 OFFCURVE",
"338 692 CURVE SMOOTH",
"440 692 OFFCURVE",
"499 637 OFFCURVE",
"499 545 CURVE SMOOTH",
"499 534 OFFCURVE",
"498 522 OFFCURVE",
"496 510 CURVE SMOOTH",
"467 301 OFFCURVE",
"197 148 OFFCURVE",
"32 24 CURVE",
"29 0 LINE"
);
}
);
};
layerId = "F91D9E91-C1BC-4259-B0D8-112C0CBA2B8E";
paths = (
{
closed = 1;
nodes = (
"466 0 LINE",
"468 19 LINE",
"50 19 LINE",
"50 22 LINE",
"190 123 OFFCURVE",
"511 311 OFFCURVE",
"511 542 CURVE SMOOTH",
"511 642 OFFCURVE",
"446 702 OFFCURVE",
"338 702 CURVE SMOOTH",
"209 702 OFFCURVE",
"121 622 OFFCURVE",
"102 480 CURVE",
"121 478 LINE",
"139 607 OFFCURVE",
"216 683 OFFCURVE",
"337 683 CURVE SMOOTH",
"435 683 OFFCURVE",
"491 629 OFFCURVE",
"491 542 CURVE SMOOTH",
"491 316 OFFCURVE",
"163 128 OFFCURVE",
"31 30 CURVE",
"27 0 LINE"
);
}
);
width = 560;
},
{
layerId = "957254E3-B7AD-4837-9092-D4428001DE8E";
paths = (
{
closed = 1;
nodes = (
"493 0 LINE",
"513 140 LINE",
"179 140 LINE",
"134 74 LINE",
"339 153 OFFCURVE",
"535 308 OFFCURVE",
"535 507 CURVE SMOOTH",
"535 628 OFFCURVE",
"453 705 OFFCURVE",
"332 705 CURVE SMOOTH",
"174 705 OFFCURVE",
"72 570 OFFCURVE",
"55 448 CURVE",
"200 428 LINE",
"212 482 OFFCURVE",
"244 559 OFFCURVE",
"324 559 CURVE SMOOTH",
"368 559 OFFCURVE",
"385 534 OFFCURVE",
"385 500 CURVE SMOOTH",
"385 342 OFFCURVE",
"151 178 OFFCURVE",
"14 113 CURVE",
"1 0 LINE"
);
}
);
width = 560;
},
{
background = {
paths = (
{
closed = 1;
nodes = (
"478 0 LINE",
"489 79 LINE",
"113 79 LINE",
"89 48 LINE",
"287 152 OFFCURVE",
"493 302 OFFCURVE",
"519 487 CURVE SMOOTH",
"521 500 OFFCURVE",
"522 512 OFFCURVE",
"522 524 CURVE SMOOTH",
"522 634 OFFCURVE",
"449 704 OFFCURVE",
"334 704 CURVE SMOOTH",
"189 704 OFFCURVE",
"96 594 OFFCURVE",
"78 464 CURVE",
"159 453 LINE",
"174 548 OFFCURVE",
"232 622 OFFCURVE",
"329 622 CURVE SMOOTH",
"401 622 OFFCURVE",
"438 581 OFFCURVE",
"438 520 CURVE SMOOTH",
"438 511 OFFCURVE",
"437 503 OFFCURVE",
"436 494 CURVE SMOOTH",
"414 337 OFFCURVE",
"215 204 OFFCURVE",
"78 110 CURVE SMOOTH",
"21 71 LINE",
"13 0 LINE"
);
}
);
};
layerId = m003;
paths = (
{
closed = 1;
nodes = (
"478 0 LINE",
"489 79 LINE",
"113 79 LINE",
"109 48 LINE",
"280 152 OFFCURVE",
"522 320 OFFCURVE",
"522 524 CURVE SMOOTH",
"522 634 OFFCURVE",
"449 704 OFFCURVE",
"334 704 CURVE SMOOTH",
"189 704 OFFCURVE",
"96 594 OFFCURVE",
"78 464 CURVE",
"159 453 LINE",
"174 548 OFFCURVE",
"232 622 OFFCURVE",
"329 622 CURVE SMOOTH",
"401 622 OFFCURVE",
"438 581 OFFCURVE",
"438 520 CURVE SMOOTH",
"438 342 OFFCURVE",
"181 178 OFFCURVE",
"21 71 CURVE",
"13 0 LINE"
);
}
);
width = 560;
}
);
leftKerningGroup = two;
note = two;
rightKerningGroup = two;
unicode = 0032;
},
{
color = 1;
glyphname = three;
lastChange = "2021-11-14 10:14:53 +0000";
layers = (
{
layerId = "F91D9E91-C1BC-4259-B0D8-112C0CBA2B8E";
paths = (
{
closed = 1;
nodes = (
"389 -5 OFFCURVE",
"499 92 OFFCURVE",
"499 216 CURVE SMOOTH",
"499 325 OFFCURVE",
"403 363 OFFCURVE",
"321 370 CURVE",
"321 369 LINE",
"429 383 OFFCURVE",
"511 452 OFFCURVE",
"511 555 CURVE SMOOTH",
"511 641 OFFCURVE",
"440 702 OFFCURVE",
"336 702 CURVE SMOOTH",
"220 702 OFFCURVE",
"130 630 OFFCURVE",
"115 523 CURVE",
"135 522 LINE",
"148 618 OFFCURVE",
"230 683 OFFCURVE",
"336 683 CURVE SMOOTH",
"428 683 OFFCURVE",
"490 630 OFFCURVE",
"490 554 CURVE SMOOTH",
"490 433 OFFCURVE",
"375 377 OFFCURVE",
"247 378 CURVE",
"246 360 LINE",
"358 359 OFFCURVE",
"479 332 OFFCURVE",
"479 217 CURVE SMOOTH",
"479 98 OFFCURVE",
"374 14 OFFCURVE",
"242 14 CURVE SMOOTH",
"124 14 OFFCURVE",
"54 72 OFFCURVE",
"54 167 CURVE SMOOTH",
"54 177 OFFCURVE",
"55 187 OFFCURVE",
"56 198 CURVE",
"36 198 LINE",
"34 187 OFFCURVE",
"34 174 OFFCURVE",
"34 165 CURVE SMOOTH",
"34 61 OFFCURVE",
"113 -5 OFFCURVE",
"241 -5 CURVE SMOOTH"
);
}
);
width = 561;
},
{
layerId = "957254E3-B7AD-4837-9092-D4428001DE8E";
paths = (
{
closed = 1;
nodes = (
"411 -10 OFFCURVE",
"538 96 OFFCURVE",
"538 237 CURVE SMOOTH",
"538 322 OFFCURVE",
"491 372 OFFCURVE",
"409 391 CURVE",
"409 360 LINE",
"504 390 OFFCURVE",
"538 450 OFFCURVE",
"538 521 CURVE SMOOTH",
"538 627 OFFCURVE",
"460 707 OFFCURVE",
"333 707 CURVE SMOOTH",
"199 707 OFFCURVE",
"89 619 OFFCURVE",
"73 497 CURVE",
"219 479 LINE",
"227 529 OFFCURVE",
"268 563 OFFCURVE",
"321 563 CURVE SMOOTH",
"366 563 OFFCURVE",
"387 539 OFFCURVE",
"387 504 CURVE SMOOTH",
"387 449 OFFCURVE",
"337 422 OFFCURVE",
"262 422 CURVE",
"254 304 LINE",
"353 304 OFFCURVE",
"389 286 OFFCURVE",
"389 231 CURVE SMOOTH",
"389 173 OFFCURVE",
"338 134 OFFCURVE",
"256 134 CURVE SMOOTH",
"192 134 OFFCURVE",
"154 162 OFFCURVE",
"154 223 CURVE SMOOTH",
"154 224 OFFCURVE",
"154 228 OFFCURVE",
"154 232 CURVE",
"5 231 LINE",
"3 219 OFFCURVE",
"2 207 OFFCURVE",
"2 195 CURVE SMOOTH",
"2 73 OFFCURVE",
"97 -10 OFFCURVE",
"244 -10 CURVE SMOOTH"
);
}
);
width = 560;
},
{
layerId = m003;
paths = (
{
closed = 1;
nodes = (
"413 -8 OFFCURVE",
"519 102 OFFCURVE",
"519 219 CURVE SMOOTH",
"519 325 OFFCURVE",
"432 370 OFFCURVE",
"364 379 CURVE",
"364 362 LINE",
"452 382 OFFCURVE",
"525 444 OFFCURVE",
"525 541 CURVE SMOOTH",
"525 640 OFFCURVE",
"450 705 OFFCURVE",
"336 705 CURVE SMOOTH",
"211 705 OFFCURVE",
"111 626 OFFCURVE",
"95 510 CURVE",
"177 501 LINE",
"187 571 OFFCURVE",
"246 624 OFFCURVE",
"331 624 CURVE SMOOTH",
"398 624 OFFCURVE",
"439 591 OFFCURVE",
"439 531 CURVE SMOOTH",
"439 438 OFFCURVE",
"341 398 OFFCURVE",
"255 400 CURVE",
"250 333 LINE",
"354 333 OFFCURVE",
"435 310 OFFCURVE",
"435 220 CURVE SMOOTH",
"435 132 OFFCURVE",
"358 74 OFFCURVE",
"251 74 CURVE SMOOTH",
"159 74 OFFCURVE",
"104 117 OFFCURVE",
"104 190 CURVE SMOOTH",
"104 192 OFFCURVE",
"104 202 OFFCURVE",
"106 214 CURVE",
"22 214 LINE",
"20 202 OFFCURVE",
"19 191 OFFCURVE",
"19 180 CURVE SMOOTH",
"19 67 OFFCURVE",
"109 -8 OFFCURVE",
"246 -8 CURVE SMOOTH"
);
}
);
width = 560;
}
);
leftKerningGroup = three;
note = three;
rightKerningGroup = three;
unicode = 0033;
},
{
color = 1;
glyphname = four;
lastChange = "2021-11-14 10:14:53 +0000";
layers = (
{
layerId = "F91D9E91-C1BC-4259-B0D8-112C0CBA2B8E";
paths = (
{
closed = 1;
nodes = (
"384 0 LINE",
"408 169 LINE",
"523 169 LINE",
"527 188 LINE",
"411 188 LINE",
"482 697 LINE",
"456 697 LINE",
"21 190 LINE",
"18 169 LINE",
"388 169 LINE",
"364 0 LINE"
);
},
{
closed = 1;
nodes = (
"459 675 LINE",
"459 676 LINE",
"391 188 LINE",
"35 188 LINE",
"35 180 LINE"
);
}
);
width = 560;
},
{
layerId = "957254E3-B7AD-4837-9092-D4428001DE8E";
paths = (
{
closed = 1;
nodes = (
"411 0 LINE",
"434 163 LINE",
"544 163 LINE",
"564 303 LINE",
"454 303 LINE",
"509 697 LINE",
"378 697 LINE",
"6 278 LINE",
"-9 163 LINE",
"283 163 LINE",
"260 0 LINE"
);
},
{
closed = 1;
nodes = (
"353 531 LINE",
"343 565 LINE",
"308 303 LINE",
"127 303 LINE",
"134 271 LINE"
);
}
);
width = 560;
},
{
layerId = m003;
paths = (
{
closed = 1;
nodes = (
"398 0 LINE",
"421 166 LINE",
"533 166 LINE",
"544 245 LINE",
"432 245 LINE",
"496 697 LINE",
"417 697 LINE",
"13 233 LINE",
"5 166 LINE",
"336 166 LINE",
"313 0 LINE"
);
},
{
closed = 1;
nodes = (
"407 595 LINE",
"397 602 LINE",
"347 245 LINE",
"80 245 LINE",
"84 215 LINE"
);
}
);
width = 560;
}
);
leftKerningGroup = four;
note = four;
rightKerningGroup = four;
unicode = 0034;
},
